<?xml version="1.0" encoding="UTF-8"?>
<svg id="_Слой_2" data-name="Слой 2" xmlns="http://www.w3.org/2000/svg" viewBox="0 0 510 1128.19">
  <defs>
    <style>
      .cls-1 {
        fill: #fff;
        stroke-width: 0px;
      }
    </style>
  </defs>
  <g id="_Слой_1-2" data-name=" Слой 1">
    <g>
      <g>
        <path class="cls-1" d="M126.3,182.99c-.2,2.4-.2,4.2-.4,6-.9,9.6-7.7,16.4-17.3,16.7-7.6.3-15.3.3-22.9,0-9.5-.4-16.7-7.5-16.9-17.1-.3-17-.3-33.9,0-50.9.2-10.1,6.9-17,17.1-17.7,7.6-.5,15.3-.5,22.9,0,10.3.7,18.2,8.2,16.8,18.4-2.2,15.9,5.2,24.4,17.4,32.9,24.9,17.3,48.7,36.1,73,54.3,1.5,1.1,3.1,2,5.7,3.7v-68.8c0-8.8,3.3-11.9,12.2-12.1h8.6c4.5.2,9,.7,7.9-6.3-.4-2.7,1.6-3.1,3.7-3.1h20.8c1.6,0,4.1-.2,3.9,2-.6,5.5,2.6,7.7,6.6,10.3,3.4,2.1,3,6.2,3,9.8v66.4c2.8,1.4,3.9-.7,5.3-1.7,28.7-21.4,57.3-43,86.1-64.4,3.2-2.4,4.7-4.9,4.4-8.9-.3-4.8-.2-9.6,0-14.3.3-10.1,6.7-17.4,16.7-18.2,7.8-.6,15.8-.6,23.6,0,10,.7,16.8,7.9,16.9,17.9.3,16.7.3,33.5,0,50.2-.2,10.3-7.4,17.2-17.9,17.6-5.2.2-10.5,0-15.8,0-17.3,0-22.6-4.9-23.9-22.1-2.3-.8-3.4,1.2-4.8,2.2-28.5,21.3-56.9,42.7-85.5,64-3.2,2.4-5.4,4.7-5.4,9.2,0,5.6-3.9,8.7-9.3,8.9-3.8.1-5.2.4-5.7,5.2-.9,8-6.2,14.4-12.6,19.2-3.2,2.4-7.5,2.6-10.8,0-6.7-5.2-12.1-11.7-13.3-20.3-.4-3-.9-4.1-4-4.1-6.8,0-10.8-3.4-10.8-10.5,0-3-1.3-4.8-3.6-6.5-29.7-22.2-59.3-44.4-88.9-66.6-.7-.5-1.6-.9-3-1.6l.2.3ZM269.4,208.49c0-11.7-.1-23.4,0-35.1,0-3.8-.7-5.7-5-5.5-6.2.3-12.4.2-18.6,0-3.4,0-5.2.6-5.1,4.7.2,23.9.2,47.8,0,71.7,0,3.9,1.5,4.9,5,4.8,6.2-.2,12.4-.3,18.6,0,4.2.2,5.2-1.5,5.2-5.4-.2-11.7,0-23.4,0-35.1l-.1-.1ZM87.6,163.09v10.7c0,13.6,0,13.4,13.7,13.3,4.3,0,5.8-1.2,5.7-5.6-.3-9.5,0-19,0-28.6,0-14.8,0-14.7-14.8-13.7-3.3.2-4.7,1.2-4.6,4.6.2,6.4,0,12.9,0,19.3h0ZM403.1,162.59h0v10.7c0,14.1,0,13.9,14,13.7,4.7,0,5.5-1.8,5.4-5.9-.2-9.5,0-19,0-28.5,0-14.2,0-14-14.3-13.5-4.3.2-5.2,1.9-5.1,5.6.2,5.9,0,11.9,0,17.8v.1Z"/>
        <path class="cls-1" d="M255.7,377.99h172.8c19.9,0,32.7,12.5,31.9,30.6-.6,13.8-11.6,25.8-25.4,26.5-15.3.7-30.6.3-45.9.2-5.9,0-9.3-3.4-9.6-9.4-.2-5.5,3.9-9.4,10.2-9.5,13.1-.2,26.3,0,39.4,0,7.8,0,12.4-3.8,12.2-9.8-.2-5.9-4.4-9.1-12.1-9.1H80.8c-7.9,0-12.5,3.7-12.2,9.8.3,6,4.7,9.2,12.9,9.2h271.7c2.6,0,5.3-.2,7.9.2,5.4.9,8.7,4.1,8.5,9.7-.2,5.2-3.2,8.3-8.5,9-1.2.2-2.4.1-3.6.1H78.6c-17.9,0-30.2-13.6-29-31,1.1-15,13.2-25.9,29.7-26.2,13.9-.3,27.7,0,41.6,0h134.8v-.3Z"/>
        <path class="cls-1" d="M199.3,96.19h-113.9c-18.5,0-31.3-12.4-31.1-29.3.2-14.7,11.8-27.2,26.5-27.8,11.7-.5,23.4-.3,35.1-.2,6.3,0,10.5,4.3,10,9.7-.5,5.9-4.1,9.1-10,9.2-9.8.2-19.6,0-29.4,0-8.5,0-13.3,3.6-13.2,9.7.1,6,4.6,9.3,12.8,9.3h199.2c10.3,0,20.5.3,30.8,0,4.8-.1,6.2,1.6,6,6.2-.4,16.1,1.9,13.2-13.2,13.2-36.5.2-73.1,0-109.6,0h0Z"/>
        <path class="cls-1" d="M345.7,62.69c0,10.8.1,21.5,0,32.3-.3,17.8-11.8,29.5-29.7,29.9-11,.3-22,0-33,.1-4.6,0-9.6-.2-9.1,6.8.1,1.8-1.2,2.4-2.8,2.4h-5.7c-10.8,0-13-3.1-9.6-13.6,3-9.1,10.6-12.5,19.2-14.1,12.6-2.2,25.3-.8,37.9-1.1,11.3-.2,13.9-2.6,13.9-14V31.89c0-9.3-3.2-12.5-12.5-12.6-7.4,0-14.8-.1-22.2.1-5.3.2-9.5,2-8.3,8.6.8,4.5-1.2,6.2-5.5,5.5-4.4-.7-10.9,2.4-12.7-1.5-2.2-5.1-1.8-11.7.8-17.4,4.3-9.3,12.6-13.1,21.9-13.9,10.7-.9,21.5-.9,32.2-.1,14.2,1,24.9,13.1,25.2,27.5.3,11.5,0,22.9,0,34.4h0v.2Z"/>
        <path class="cls-1" d="M392.9,38.89c11.2,0,22.5-.1,33.7,0,16.3.2,28.6,11.9,29.2,27.4.5,15.9-11.3,29.3-27.6,29.7-24.1.6-48.3.1-72.4.3-3.7,0-4.8-1.4-5-5-.7-14.4-.8-14.4,13.5-14.4h60.2c7.9,0,12.5-3.8,12.3-9.8-.2-5.7-4.7-9.2-12.2-9.2-22.2,0-44.5-.2-66.7.1-5.6,0-7.4-1.4-7.2-7.1.3-12.1,0-12.1,12.1-12h30.1Z"/>
        <path class="cls-1" d="M232.1,38.79c27.5,0,54.9.2,82.4-.1,5.7,0,7.9,1.2,7.7,7.4-.4,11.7,0,11.7-11.8,11.7h-160.4c-2.4,0-4.9.2-7.1-.4-4.7-1.2-7.3-4.5-7.2-9.4.1-5,2.8-8,7.6-9,2.3-.4,4.8-.3,7.1-.3h81.7v.1Z"/>
        <path class="cls-1" d="M83.2,291.59v-73.8c0-3.2-1.1-6.7,4.6-6.7s4.4,3.7,4.4,6.8v148.3c0,2.6,1.9,6.5-3.5,6.9-4.6.4-5.6-1.4-5.5-5.6.2-25.3,0-50.6,0-75.9Z"/>
        <path class="cls-1" d="M398.7,292.39v-75.3c0-3.2-.4-5.9,4.5-6,5,0,4.6,2.8,4.6,5.9v150.5c0,3.6-.5,5.7-5,5.7s-4.1-2.7-4.1-5.6v-75.3h0v.1Z"/>
        <path class="cls-1" d="M111.3,292.29v74.5c0,3.3.8,6.6-4.7,6.4-5.2-.2-4.3-3.4-4.3-6.3v-149.8c0-3-.7-6.1,4.4-6.1s4.5,2.7,4.5,5.9v75.2l.1.2Z"/>
        <path class="cls-1" d="M426.8,292.29v74.5c0,2.7,1.5,6.3-3.9,6.5-5.3.1-5-3-5-6.5v-149.6c0-3.1-.6-6.1,4.4-6,4.9,0,4.5,2.8,4.5,6v75.2-.1Z"/>
        <path class="cls-1" d="M241,337.39v-30.8c0-3,.4-4.8,4.2-4.8s4.9,1.3,4.9,4.9c-.1,20.5-.1,41,0,61.5,0,3.7-1.4,4.9-5.1,4.9-3.9,0-4.1-2.1-4-5v-30.8.1Z"/>
        <path class="cls-1" d="M269.1,337.49c0,10.2-.1,20.5,0,30.7,0,3.6-1,5-4.8,5s-4.3-1.8-4.3-4.9v-61.5c0-3.5,1.1-5.1,4.9-5.1s4.1,2,4.1,4.9v30.7l.1.2Z"/>
        <path class="cls-1" d="M241,117.39v-11.4c0-2.9.1-4.9,4.1-4.9,3.7,0,5,1.3,5,4.9-.1,7.8,0,15.7,0,23.5,0,3.4-1.3,4.5-4.6,4.5s-4.7-1-4.5-4.5c.2-4,0-8.1,0-12.1Z"/>
        <path class="cls-1" d="M407.7,108.39c-.4,2.7,1.5,6.6-4.3,6.7-5.4.1-5.1-3.1-4.6-6.4.4-2.9-2.4-7.5,4.1-7.7,6.1-.2,4.5,3.9,4.9,7.3l-.1.1Z"/>
        <path class="cls-1" d="M426.7,107.99c-.8,2.2,2.6,6.9-4.1,7-4.6,0-5.5-2-4.7-5.6.7-3-3-8.1,4.1-8.4,5.4-.2,4.9,3,4.7,7Z"/>
        <path class="cls-1" d="M83.1,108.09c.7-2.7-1.8-6.9,4.2-7,6.1-.1,4.7,4,4.8,7.3,0,3.2.9,6.7-4.6,6.7-5.9,0-3.8-4-4.3-7h-.1Z"/>
        <path class="cls-1" d="M111.4,108.09c-.5,2.9,1.7,7-4.3,7-5.5,0-4.7-3.5-4.7-6.7s-1.3-7.4,4.8-7.3c6,.1,3.5,4.3,4.2,7Z"/>
      </g>
      <g>
        <path class="cls-1" d="M467.3,672.19h-188.6c-20.2,0-36.7-16.5-36.7-36.7v-52.5c0-20.2,16.5-36.7,36.7-36.7h188.6c20.2,0,36.7,16.5,36.7,36.7v52.5c0,20.2-16.5,36.7-36.7,36.7h0ZM278.7,566.39c-9.2,0-16.7,7.5-16.7,16.7v52.5c0,9.2,7.5,16.7,16.7,16.7h188.6c9.2,0,16.7-7.5,16.7-16.7v-52.5c0-9.2-7.5-16.7-16.7-16.7h-188.6Z"/>
        <path class="cls-1" d="M473.3,940.19h-237.6c-20.2,0-36.7-16.5-36.7-36.7v-52.5c0-20.2,16.5-36.7,36.7-36.7h237.6c20.2,0,36.7,16.5,36.7,36.7v52.5c0,20.2-16.5,36.7-36.7,36.7h0ZM235.7,834.39c-9.2,0-16.7,7.5-16.7,16.7v52.5c0,9.2,7.5,16.7,16.7,16.7h237.6c9.2,0,16.7-7.5,16.7-16.7v-52.5c0-9.2-7.5-16.7-16.7-16.7h-237.6Z"/>
        <path class="cls-1" d="M176.3,797.69H36.7c-20.2,0-36.7-16.5-36.7-36.7v-52.5c0-20.2,16.5-36.7,36.7-36.7h139.6c20.2,0,36.7,16.5,36.7,36.7v52.5c0,20.2-16.5,36.7-36.7,36.7ZM36.7,691.89c-9.2,0-16.7,7.5-16.7,16.7v52.5c0,9.2,7.5,16.7,16.7,16.7h139.6c9.2,0,16.7-7.5,16.7-16.7v-52.5c0-9.2-7.5-16.7-16.7-16.7H36.7Z"/>
        <circle class="cls-1" cx="304.5" cy="609.19" r="14.5"/>
        <circle class="cls-1" cx="372.5" cy="609.69" r="14.5"/>
        <circle class="cls-1" cx="72.5" cy="734.19" r="14.5"/>
        <circle class="cls-1" cx="140.5" cy="734.69" r="14.5"/>
        <circle class="cls-1" cx="440.5" cy="610.19" r="14.5"/>
        <circle class="cls-1" cx="286.5" cy="877.19" r="14.5"/>
        <circle class="cls-1" cx="354.5" cy="877.69" r="14.5"/>
        <circle class="cls-1" cx="422.5" cy="878.19" r="14.5"/>
        <path class="cls-1" d="M473.3,1128.19H188.7c-20.2,0-36.7-16.5-36.7-36.7v-69.6c0-20.2,16.5-36.7,36.7-36.7h284.6c20.2,0,36.7,16.5,36.7,36.7v69.6c0,20.2-16.5,36.7-36.7,36.7ZM188.7,1005.19c-9.2,0-16.7,7.5-16.7,16.7v69.6c0,9.2,7.5,16.7,16.7,16.7h284.6c9.2,0,16.7-7.5,16.7-16.7v-69.6c0-9.2-7.5-16.7-16.7-16.7H188.7Z"/>
        <circle class="cls-1" cx="286.5" cy="1056.19" r="14.5"/>
        <circle class="cls-1" cx="354.5" cy="1056.69" r="14.5"/>
        <circle class="cls-1" cx="422.5" cy="1057.19" r="14.5"/>
        <path class="cls-1" d="M376.5,744.19h-173.5v-20h173.5c11.8,0,21.5-9.6,21.5-21.5v-40.5h20v40.5c0,22.9-18.6,41.5-41.5,41.5Z"/>
        <path class="cls-1" d="M209,888.19h-76.6c-19.8,0-35.9-16.1-35.9-35.9v-65.1h20v65.1c0,8.8,7.1,15.9,15.9,15.9h76.6v20Z"/>
        <rect class="cls-1" x="398" y="930.19" width="20" height="65"/>
        <path class="cls-1" d="M252,620.19h-94.5c-14.3,0-25.5-15.5-25.5-35.4v-50.2h20v50.2c0,9.8,4.2,15.1,5.6,15.4h94.5v20h-.1Z"/>
        <path class="cls-1" d="M87.2,534.29h108.4c5.69,0,10.3,4.59,10.3,10.25h0c0,5.66-4.61,10.25-10.3,10.25h-108.4c-5.69,0-10.3-4.59-10.3-10.25h0c0-5.66,4.61-10.25,10.3-10.25Z"/>
      </g>
    </g>
  </g>
</svg>