<?xml version="1.0" encoding="UTF-8"?>
<svg id="_Слой_2" data-name="Слой 2" xmlns="http://www.w3.org/2000/svg" viewBox="0 0 593.6 817.7">
  <defs>
    <style>
      .cls-1 {
        fill: #fff;
        stroke-width: 0px;
      }
    </style>
  </defs>
  <g id="_Слой_1-2" data-name=" Слой 1">
    <g>
      <path class="cls-1" d="M6.6,256h373.6c3.6,0,6.6-2.9,6.6-6.6s-2.9-6.6-6.6-6.6H6.6C3,242.8,0,245.7,0,249.4s2.9,6.6,6.6,6.6Z"/>
      <path class="cls-1" d="M434,256h153c3.6,0,6.6-2.9,6.6-6.6s-2.9-6.6-6.6-6.6h-153c-3.6,0-6.6,2.9-6.6,6.6s2.9,6.6,6.6,6.6Z"/>
      <path class="cls-1" d="M587,613.8H213.4c-3.6,0-6.6-2.9-6.6-6.6s2.9-6.6,6.6-6.6h373.6c3.6,0,6.6,2.9,6.6,6.6s-2.9,6.6-6.6,6.6Z"/>
      <path class="cls-1" d="M159.6,613.8H6.6C3,613.8,0,610.9,0,607.2s2.9-6.6,6.6-6.6h153c3.6,0,6.6,2.9,6.6,6.6s-2.9,6.6-6.6,6.6Z"/>
      <path class="cls-1" d="M6.6,658.9h166.7c20.2,0,36.6,16.4,36.6,36.6v85.6c0,12.9,10.5,23.4,23.4,23.4h353.6c3.6,0,6.6,2.9,6.6,6.6h0c0,3.6-2.9,6.6-6.6,6.6H233.3c-20.2,0-36.6-16.4-36.6-36.6v-85.6c0-12.9-10.5-23.4-23.4-23.4H6.6c-3.6,0-6.6-2.9-6.6-6.6h0c0-3.6,2.9-6.6,6.6-6.6h0Z"/>
      <g>
        <path class="cls-1" d="M214.9,99.6c.6-2.8,1.1-5.5,1.7-8.3,2.7-12.1,8.6-22.6,16.7-31.9,3.3-3.8,7-7.4,11.3-10.8,0,4.5.1,9,0,13.5,0,1.6-1.7,2.7-2.7,4-9.5,12.7-13.6,26.9-10.4,42.6,2.5,12.6,9,23,20.1,30,11.4,7.2,23.2,7.5,35.3,1.7,5.2-2.5,9.5-6.2,13.7-10.1,1.4-1.3,1.6-2.3.1-3.7-1.8-1.7-3.6-3.5-5.3-5.4-.9-1-2.9-1.8-2.4-3.2.7-2,2.2-3.8,3.5-5.5.8-1,1.3.2,1.8.7,2.5,2.4,5.1,4.8,7.4,7.4,1.7,2,2.7,1.7,4.6,0,2.2-2,1.4-3-.3-4.6-2.6-2.5-5-5.2-7.7-7.6-1.7-1.5-1.8-2.7-.3-4.3.4-.4.7-.9.9-1.4,1.2-2.7,2.5-2.6,4.4-.5,2.7,3,5.8,5.7,8.6,8.6,1.3,1.3,2.2,2,3.6.2,1.1-1.5,3.3-2.4.9-4.7-3.1-2.9-5.8-6.3-9-9-2.5-2.2-2.4-3.8-.6-6.4,1.7-2.5,2.6-2.7,4.6-.5,3.3,3.6,7.2,6.8,10.5,10.4,2.2,2.4,3.1.6,4.6-.6,1.7-1.4,1.4-2.4,0-3.8-4-3.8-7.7-7.8-11.7-11.5-1.9-1.7-2.2-3-.6-5.1,2.8-3.8,2.6-3.9,6-.5,3.8,3.8,7.7,7.5,11.3,11.4,1.8,1.9,2.7,1.7,4.6,0,2.1-1.9,1.4-3-.3-4.5-4.6-4.5-9.1-9.2-13.7-13.6-1.4-1.3-1.4-2.3-.4-3.8,4.5-6.6,8.9-13.3,13.2-20,1.6-2.5,4.2-3.8,6.3-5.6.9-.8,1.5-.3,2.2.4,6.1,6.1,12.2,12.3,18.4,18.3,1.4,1.4.4,2-.5,2.8-4.3,4.3-8.4,8.6-12.8,12.7-1.5,1.4-1.5,2.2,0,3.6,3.7,3.5,7.2,7,10.7,10.7,1.6,1.8,2.6,1.4,4.1-.2,4-4.2,8.2-8.2,12.2-12.4,1.2-1.3,2-1.5,3.4,0,5.9,6,12,11.9,17.9,17.8.7.7,1.4,1.3.5,2.5-2,2.3-3.5,5-6.2,6.7-6.4,4.1-12.8,8.4-19.1,12.7-1.7,1.1-2.6,1.2-4.1-.4-4.6-4.8-9.5-9.4-14.1-14.2-1.9-2-2.7-1-4.1.4-1.3,1.3-2.4,2.2-.4,4.1,4.6,4.3,8.9,9,13.5,13.4,1.4,1.3,1.4,2-.3,3.1-4.5,2.9-4.5,3-8.2-.7s-7.2-7-10.6-10.7c-2.2-2.3-2.9,0-4,.9-1.3,1-2.1,1.9-.4,3.5,4,3.7,7.7,7.8,11.7,11.5,1.7,1.6,1.4,2.4-.4,3.3-.6.3-1.2.6-1.6,1.1-1.9,1.9-3.5,1.3-5.2-.5-3.2-3.3-6.6-6.4-9.8-9.7-2.4-2.5-3.2.1-4.6,1.1-2,1.4-.6,2.3.4,3.3,3.1,3.1,6.1,6.3,9.3,9.3,1.4,1.4,1.8,2.4-.3,3.3-.6.3-1.1.7-1.6,1.1-1.9,1.7-3.4,1.6-5.1-.4-2.4-2.8-5.3-5.2-7.8-8-1.4-1.6-2.4-1.4-3.6.1-1.1,1.3-2.8,2.3-.7,4.2,2.6,2.5,5,5.2,7.7,7.7,1.5,1.4,1.2,2.1-.4,3-5.8,3.5-3.9,3.3-8.3-.6-2.1-1.9-3.8-5.4-6.2-5.3-2.1,0-4.1,3.3-6.1,5.1-20.6,18-45.9,20.6-67.7,6.4-15.2-9.8-23.9-23.9-26.7-41.8-.2-1.1,0-2.2-.7-3.1v-9.8l-.7.1Z"/>
        <path class="cls-1" d="M445.3,47.1c-1.5.1-2.1,1.5-3,2.3-13.5,13.4-27,26.9-40.4,40.4-1.8,1.8-2.8,1.9-4.5,0-4.1-4.4-8.5-8.6-12.7-12.8-.8-.8-2.1-1.7-.5-2.8,1.3-.9,1.7-3.7,4.4-2.2,1.9,1.1,3.7,3.6,5.9,2.8,1.9-.6,3.2-2.9,4.7-4.4,5.6-5.6,11.1-11.1,16.6-16.8,1.5-1.5,2.4-2,4.1-.2,3.7,3.9,3.9,3.8,7.7,0,3.4-3.4,6.9-6.7,10.2-10.2,1.6-1.8,2.8-2,4.3,0,.9,1.2,2.2,2.1,3.3,3.2v.7h-.1Z"/>
        <path class="cls-1" d="M332.7,45.9c-.2-2.4,0-4.3,1.2-6.6,1.5-3,1-7.3,0-10.9-.4-1.4-1.9-1.9-3.5-1.9-3.5.1-7,0-10.5,0-2,0-2.8-.6-2.6-2.6,0-.5-.1-1.1,0-1.6.3-3.2-1.1-4.4-4.2-3.9-3,.6-4.2-.9-4-3.7.2-3.5-1.6-4.4-4.7-4.3-5.6.2-11.2.3-16.7,0-2.6,0-3.7,1-3.5,3.3.3,3.9-1.6,5.3-5.2,4.8-2.3-.3-2.9.7-3,3-.2,5-.3,5-5.4,5h-7.9c-2.5,0-3.9,1.2-3.9,3.7,0,3-1,6.7.4,8.7,2.3,3.2,1.2,6.2,1.6,9.3.2,1.5.3,3.1-1.4,4-.8.4-.6,1.4-.6,2.1v10.2c0,2.7,1.4,4,4.1,3.9,3.3,0,6.6-.2,9.8-.1,1.7,0,2.2-.7,2.2-2.3v-14.8c0-1.3-.2-2.7,1.9-2.7s1.8,1.5,1.8,2.7v14.8c0,1.5.1,2.5,2.1,2.5s2-1.1,2-2.5v-14.4c0-1.4-.7-3.2,1.9-3.2s1.7,1.8,1.8,3c0,4.8.2,9.6,0,14.4,0,1.8.5,2.5,2.4,2.6,2.2,0,1.8-1.4,1.8-2.6v-14.8c0-1.3-.2-2.6,1.9-2.7,2.1,0,1.9,1.3,1.9,2.6v15.1c0,1.5,0,2.5,2,2.5s2.4-.8,2.3-2.6v-15.1c0-1.2-.2-2.4,1.7-2.5,2.1,0,1.9,1.2,1.9,2.6v15.1c0,1.8.5,2.5,2.4,2.5s2.1-1,2.1-2.5v-14.8c0-1.3-.6-3,1.9-2.9,2.2,0,1.7,1.6,1.7,2.8v14.8c0,1.4,0,2.6,2,2.5,1.8-.1,2.4-.8,2.4-2.6v-15.1c0-1.2-.2-2.4,1.7-2.4,1.8,0,1.9.9,1.9,2.3,0,5.4.2,10.7,0,16.1-.2,3.6-3.1,5.9-5,8.6-1,1.5-3.1.7-4.6.7-16.7,0-33.5,0-50.2-.1-5.5,0-7.3-1.9-7.3-7.3V10.2c.2-5.2,2-7.2,7.2-7.2,17.4-.1,34.8-.1,52.2-.1,8.2,0,16.4,0,24.6.1,4.7,0,6.6,1.9,6.7,6.5.2,8.6.2,17.3.3,25.9,0,1.4-.4,2.5-1.6,3.3-2.8,2-5.5,4.2-7.8,7l-.2.2Z"/>
        <path class="cls-1" d="M415.1,48.6c-.7.8-1.3,1.4-1.9,2-5.9,5.9-11.8,11.7-17.6,17.7-1.5,1.5-2.5,1.8-4.4.6-4.6-2.8-4.7-2.7-8.4,1.1-4.6,4.7-9.3,9.2-13.9,13.9-1.3,1.3-2.2,1.9-3.6.1-1.9-2.4-5.8-4-5.9-6.7,0-2.5,3.6-4.3,5.7-6.4,3.6-3.7,7.1-7.4,10.8-11,1.7-1.6,2.3-3,.6-5-2.5-2.9-2.2-5.1.8-7.8,5.8-5.2,11.1-10.9,16.5-16.4,1-1,1.7-1.8,3.1-.3,5.5,5.6,11.2,11.1,16.8,16.6.4.4.8,1,1.3,1.5l.1.1Z"/>
        <path class="cls-1" d="M402.8,4.7c-.5.5-1,1.1-1.5,1.6-4.2,4.1-8.4,8.3-12.7,12.3-1.4,1.3-1.6,2.1-.1,3.6,4,4,3.9,4.1-.2,8.2-5.5,5.5-10.8,11.2-16.5,16.5-2.6,2.4-2.9,4.3-.8,7.1.8,1.1,2.6,2.2.9,4.2-2.8,3.2-2.8,3.3-5.9.2-4-3.9-7.8-8-11.9-11.8-1.7-1.6-1.5-2.6,0-4.1,13.7-13.6,27.3-27.1,40.8-40.8,2.3-2.3,3.7-2.3,5.5.2.7,1,1.9,1.5,2.3,2.9l.1-.1Z"/>
        <path class="cls-1" d="M411.7,40.4c-.6-.6-1.3-1.1-1.9-1.7-.9-.9,0-1.4.5-1.8,3.8-3.9,7.7-7.7,11.5-11.6,1-1,1.6-.7,2.4.1.6.7,1.6,1.3.5,2.4-4,4-8,8-12.1,12-.2.2-.5.4-.9.6Z"/>
        <path class="cls-1" d="M394.6,23.4c-.5-.5-1.2-1-1.7-1.7-.8-.9.2-1.4.6-1.8l11.1-11.1c.8-.8,1.5-1.5,2.7-.3,1,1,1,1.7,0,2.7-3.8,3.8-7.4,7.6-11.2,11.5-.4.4-.6.9-1.5.8v-.1Z"/>
        <path class="cls-1" d="M436.3,37.3c0,1.4-.7,1.9-1.2,2.4-3.5,3.6-7,7.2-10.5,10.8-1,1-1.7,1.4-2.9.2s-.9-1.9.2-2.8c3.7-3.6,7.3-7.3,10.9-10.9.5-.5.9-1.5,1.8-1,.7.4,1.4,1,1.7,1.3Z"/>
        <path class="cls-1" d="M400.2,29.8c-.6-.9-1.2-1.7-1.8-2.5-.5-.8.2-1.2.6-1.6,3.8-3.8,7.6-7.5,11.3-11.3.9-.9,1.6-1.1,2.7,0,1.2,1.2.4,1.8-.3,2.6-3.6,3.7-7.3,7.5-10.9,11.2-.4.4-.8.7-1.7,1.5l.1.1Z"/>
        <path class="cls-1" d="M417.3,46.1c-.6-.6-1.3-1.1-1.9-1.8-.6-.7-.1-1.2.4-1.6l11.8-11.8c.8-.9,1.5-.7,2.1.1.5.6,1.7,1,.7,2.1-4,4.1-8.1,8.3-12.1,12.4-.2.2-.5.4-.9.6h-.1Z"/>
        <path class="cls-1" d="M419.9,20.8c-.6.8-1,1.2-1.3,1.6-3.6,3.8-7.3,7.5-10.9,11.3-.9.9-1.5,1.4-2.7.2-1.1-1.1-1.2-1.8,0-2.9,3.8-3.6,7.5-7.4,11.2-11,.5-.5,1-1.3,1.9-.6.6.5,1.2.9,1.9,1.4h-.1Z"/>
      </g>
      <path class="cls-1" d="M193.7,249.5c-.2,13.9-1.8,27.9,1.6,41.6,7.3,29.1,32.2,48.5,62.6,48.6,46.6.2,93.3.2,139.9,0,39.1-.2,71.3,27,77.1,65.6,6.7,44.6-20.6,81.9-65.4,88.3-15.9,2.3-32.2.5-48.3.7h-16.1c-2,0-3.2.2-3.9,2.6-2.5,8.4-5.2,10.5-14.2,10.3-4.2-.1-4.9,1.4-4.8,5.2.2,9.7-4.3,14.1-14,14.2h-42.8c-.2,0-.3,0-.5.1-.2,1.9,1.6,1.9,2.6,2.5,5.3,3.2,10.7,6.3,16.1,9.3,2.3,1.3,3.1,2.2,1.6,4.9-4.7,8.3-4.5,8.4-12.8,3.7-10.8-6.2-21.6-12.3-32.3-18.5-2.4-1.4-4.8-2-7.6-2h-39.8c-8.4,0-12.2-3.8-12.2-12.3v-52.3c0-8.7,3.9-12.7,12.5-12.7h114.7c10,0,14.7,4.4,14.4,14.4-.1,4.5,1.6,5.2,5.5,5.2,8.4-.1,11,1.9,13.4,9.9.7,2.2,1.7,2.9,3.8,2.8,19.8-.1,39.6.6,59.4-.4,33.5-1.6,59.2-29.4,59.5-63,.3-34.3-24.4-62.4-58.1-64.8-23.9-1.8-47.9-.4-71.9-.6-27.3-.2-54.7.7-82-.5-38.1-1.6-69.6-34.2-71.2-72.4-.4-10,0-20.1,0-30.2h13.1l.1-.2ZM251.4,513.5h49.3q8.7,0,8.7-8.7c0-7.13,3.6-10.7,10.8-10.7,8.6,0,8.4,0,8.6-8.8,0-3.6-1.3-4.2-4.4-4.1-3.8.2-7.7,0-11.6,0-2.6.1-3.6-.9-3.4-3.5.2-3.8-.2-7.7,0-11.6.3-3.7-1.2-4.4-4.6-4.4-35.5.1-71,.1-106.6,0-3.6,0-5,.7-5,4.7.2,14.1.2,28.1,0,42.2,0,3.8,1,4.8,4.8,4.8,17.8-.2,35.5,0,53.3,0l.1.1Z"/>
    </g>
  </g>
</svg>