<?xml version="1.0" encoding="UTF-8"?>
<svg id="_Слой_2" data-name="Слой 2" xmlns="http://www.w3.org/2000/svg" viewBox="0 0 427.45 224.7">
  <defs>
    <style>
      .cls-1 {
        fill: #fff;
        stroke-width: 0px;
      }
    </style>
  </defs>
  <g id="_Слой_1-2" data-name=" Слой 1">
    <g>
      <path class="cls-1" d="M388.73,186.5c-.2,21.6-17.4,38.2-39.4,37.8-21.8-.4-38.3-17-37.9-38.3.4-22.1,17-38.1,39.3-37.8,21.6.2,38.2,17.1,38,38.4v-.1ZM349.83,206.2c11.2,0,19.9-8.4,20.1-19.5.2-11.4-8.7-20.4-20.1-20.3-11.1,0-19.7,8.8-19.7,19.9s8.5,19.9,19.7,19.9h0Z"/>
      <path class="cls-1" d="M183.03,224.7c-4.2-.5-8.5-1.2-12.7-1.6-3.1-.3-4.6-1.4-4.9-4.9-1-10.5-.2-11.3,10.2-9.8,4.8.7,9.6,1,14.3-.5,3.2-1,6.1-2.5,6.4-6.3.2-3.5-2.2-5.3-5-6.5-3.4-1.5-7-2.7-10.4-4.1-12.1-4.9-16.7-11.9-15.5-23.2,1-10,7.9-16.6,19.7-19.1,7-1.5,13.9-.4,20.7.8,7.8,1.4,3.7,7.7,4.1,11.8.5,5.6-3.7,2.5-6.2,2.5-4,0-8-.5-12-.2-3.6.3-7.1,1.5-7.5,5.8-.4,3.9,2.7,5.6,5.7,6.8,3.4,1.4,7.1,2.3,10.6,3.7,9.9,4,14.8,11,14.6,20.7-.2,10.3-5.5,17.4-15.6,21-5.3,1.9-10.9,2.8-16.6,2.9l.1.2Z"/>
      <path class="cls-1" d="M289.63,204c.3.5.6.7.6.9,1.7,17.6-1.7,21.1-19.4,19.3-15.4-1.6-27.9-8.2-33.5-23.5-5.3-14.6-3.6-28.7,7.3-40.3,11.3-12,25.8-14.1,41.4-10.7,3,.7,4.7,2,4.5,5.4-.2,4.3,0,8.5,0,13.5-12.7-3.2-25.3-5.7-33.7,7.5-4.5,7-3.9,16,1.4,22.6,8.8,11,20.2,8.5,31.4,5.4v-.1Z"/>
      <path class="cls-1" d="M94.13,213.1c2.3,7.6-1.8,9.8-8.9,10.9-16.4,2.4-33.2-4.4-41.2-17.3-8.1-13.1-7.1-31.3,2.4-43.8,9.3-12.2,27.7-17.8,43.5-13.1,2.1.6,4.3,1,4.3,3.8,0,4.8,1.3,9.8-.7,14.2-.9,1.9-3.8-.3-5.8-.8-13.4-3.1-24.3,1.4-28.4,11.6-5.7,14.6,5.5,29.4,21.4,28.1,1.9-.1,3.9-.2,5.5-.9,7.7-3.3,9.2.2,7.8,7.3h.1Z"/>
      <path class="cls-1" d="M102.53,57.3V10.8c0-6.1,1.6-10.8,8.7-10.8s8.8,4.9,8.8,10.9v93.1c0,6.2-1.4,11.6-8.9,11.7-7.8,0-8.6-5.8-8.6-11.8v-46.5h0v-.1Z"/>
      <path class="cls-1" d="M324.83,58.5v45.7c0,5.9-1.1,11.1-8.2,11.4-7.5.2-9.3-5.1-9.3-11.3V10.5C307.33,4.2,309.63,0,316.53,0s8.2,4.7,8.2,10.4v48.1h.1Z"/>
      <path class="cls-1" d="M138.83,186.4c0,9.6-.5,19.3.1,28.9.5,7.8-3.7,7.8-9.3,7.7-5.2,0-9,.2-8.7-7.3.6-19.5.6-39.1,0-58.6-.2-7.7,3.4-7.6,9.1-7.8,6.3-.2,9.3,1,8.8,8.2-.6,9.6-.2,19.3-.2,28.9h.2Z"/>
      <path class="cls-1" d="M171.43,66.7v19.2c0,5.9-2,11.1-8.6,11.3-6.7.2-9.2-4.6-9.2-10.7-.1-13.9-.2-27.7,0-41.6,0-5.7,2.5-10.1,8.9-10,6.3,0,8.7,4.5,8.9,10.2.2,7.2,0,14.4,0,21.6h0Z"/>
      <path class="cls-1" d="M376.03,65.7v22.4c0,5.8-3.4,9.2-8.9,9.1-5.1,0-8.4-3.5-8.4-8.9,0-15-.1-29.9,0-44.9,0-5.3,3.2-8.6,8.6-8.6,5.8,0,8.7,3.4,8.8,9.2v21.6h0l-.1.1Z"/>
      <path class="cls-1" d="M51.43,65.2v-20c0-5.9,2.1-10.2,8.5-10.3,6.3-.1,9,3.9,9,9.8v42.4c0,5.9-2.7,10.1-8.9,10-6.2,0-8.6-4.4-8.5-10.3v-21.6h-.1Z"/>
      <path class="cls-1" d="M256.03,65.7v-20c0-6.2,2.2-10.7,9-10.7,6.4,0,8.6,4.3,8.6,10.2v40.8c0,5.9-1.7,11.2-8.5,11.3-7.2.1-9.1-5.3-9.2-11.5v-20h0l.1-.1Z"/>
      <path class="cls-1" d="M.13,78.4c0-3.5-.3-7,0-10.4.6-5,3.8-7.5,8.8-7.4,4.6,0,7.9,2.7,8.2,7.2.5,7.4.4,14.9,0,22.3-.3,4.6-3.9,7.1-8.3,7.1-4.8,0-8.1-2.8-8.6-7.7-.4-3.7,0-7.4,0-11.2H.23l-.1.1Z"/>
      <path class="cls-1" d="M222.13,79.1c0,3.5.3,7,0,10.4-.5,4.6-3.4,7.4-7.9,7.6-4.9.3-8.5-2.6-8.9-7.4-.6-7.2-.6-14.4,0-21.6.4-4.7,3.8-7.6,8.8-7.5,5.1.2,7.8,3.3,8.4,8.1.4,3.4,0,6.9,0,10.4h-.4Z"/>
      <path class="cls-1" d="M410.03,78.5c0-3.5-.3-6.9,0-10.4.4-4.6,3.3-7.2,7.9-7.5,5-.4,8.7,2.2,9.1,7,.6,7.4.5,14.9,0,22.3-.3,4.5-3.7,7.2-8.2,7.2-4.8,0-8.2-2.5-8.8-7.5-.4-3.7,0-7.4,0-11.2v.1Z"/>
    </g>
  </g>
</svg>