<?xml version="1.0" encoding="UTF-8"?>
<svg id="_Слой_2" data-name="Слой 2" xmlns="http://www.w3.org/2000/svg" viewBox="0 0 684.9 853.8">
  <defs>
    <style>
      .cls-1 {
        fill: #fff;
        stroke-width: 0px;
      }
    </style>
  </defs>
  <g id="_Слой_1-2" data-name=" Слой 1">
    <g>
      <g>
        <path class="cls-1" d="M433.3,0c.6.9,1.6.8,2.4,1.1,7.3,2.9,11.8,9.2,11.8,17.1v124.8c0,10.9-7.8,18.3-18.9,18.4h-58.8c-3.4,0-4.7.5-3.9,4.3.8,4,1,8.1,1.3,12.2.2,4.1-1.4,6-5.5,6h-49.8c-4.2,0-6-2.1-5.6-6.3.3-4.1.7-8.1,1.4-12.2.5-3.1-.4-4-3.6-4-20.9.1-41.9,0-62.8,0-3.1,0-6-.3-8.8-1.7-5.8-2.9-9.3-7.5-10.2-14-.2-1.6-.3-3.1-.3-4.7,0-39,.2-77.9-.2-116.9-.1-11.3,2.9-19.8,14-24.1h197.5ZM334.8,128.3h98.7c2.8,0,4.5,0,4.5-3.9-.2-34.9,0-69.8-.1-104.7,0-7-3.2-10.2-10.1-10.2h-185.6c-7.6,0-10.4,2.9-10.4,10.5v103.9c0,3.5,1,4.3,4.4,4.3,32.9-.1,65.8,0,98.7,0l-.1.1ZM335,138.2h-101.5c-1.1,0-1.5.5-1.7,1.6-1.3,6.8,2.6,11.9,9.5,11.9h187.2c6,0,9.1-3.3,9.6-9.2.2-3.4-.7-4.4-4.3-4.4-32.9.2-65.8,0-98.7,0l-.1.1ZM336.5,174h11c9.5,0,9.3,0,8.5-9.4-.2-2.6-1.1-3.3-3.6-3.3-8.4.1-16.8,0-25.3,0-9.4,0-9.3,0-10.5,9.2-.4,3,.6,3.6,3.3,3.5,5.5-.2,11,0,16.6,0Z"/>
        <path class="cls-1" d="M335,218.8h-87.7c-7.7,0-9.4-2.9-5.9-9.8,2.4-4.6,4.9-9,7-13.7,1.7-3.6,4.2-4.9,8.1-4.9h156.5c3.9,0,6.4,1.2,8.1,4.9,2.2,4.8,4.8,9.4,7.2,14,3.4,6.6,1.6,9.5-6,9.5h-87.3ZM334.8,209.1h80.6c.7,0,1.2-.2,1.2-1.1,0-3.2-4.5-7.7-7.8-7.7-48.8,0-97.6,0-146.5-.1-4.1,0-6.5,1.1-8,5-1.7,4-1.9,3.9,2.4,3.9h78.2-.1Z"/>
      </g>
      <g>
        <path class="cls-1" d="M346.9,274.8v569c0,5.5-4.5,10-10,10s-10-4.5-10-10V274.8c0-5.5,4.5-10,10-10s10,4.5,10,10Z"/>
        <path class="cls-1" d="M458.5,426.3h-122.3c-2.9,0-5.2-4.5-5.2-10s2.4-10,5.2-10h122.3c2.9,0,5.2,4.5,5.2,10s-2.4,10-5.2,10Z"/>
        <path class="cls-1" d="M336.7,569.3h-120.8c-2.9,0-5.2-4.5-5.2-10s2.3-10,5.2-10h120.8c2.9,0,5.2,4.5,5.2,10s-2.3,10-5.2,10Z"/>
        <path class="cls-1" d="M458.5,712.3h-122.3c-2.9,0-5.2-4.5-5.2-10s2.4-10,5.2-10h122.3c2.9,0,5.2,4.5,5.2,10s-2.4,10-5.2,10Z"/>
        <path class="cls-1" d="M672.4,341.8c.5.8,1.4.7,2.1,1,6.4,2.6,10.4,8.1,10.4,15.1v110c0,9.6-6.9,16.2-16.7,16.2h-51.8c-3,0-4.2.5-3.5,3.8.7,3.5.9,7.1,1.1,10.7.2,3.6-1.2,5.3-4.8,5.3h-43.8c-3.7,0-5.2-1.8-5-5.6.3-3.6.7-7.2,1.2-10.7.4-2.7-.4-3.6-3.2-3.5-18.4.1-36.9,0-55.3,0-2.7,0-5.3-.3-7.8-1.5-5.1-2.6-8.2-6.6-9-12.4-.2-1.4-.2-2.8-.2-4.2,0-34.3.2-68.7-.1-103,0-10,2.6-17.5,12.4-21.2h174.1-.1ZM585.5,454.9h87c2.5,0,4,0,4-3.4-.1-30.7,0-61.5,0-92.2,0-6.2-2.8-9-8.9-9h-163.6c-6.7,0-9.2,2.5-9.2,9.3v91.5c0,3.1.8,3.8,3.9,3.8,29-.1,58,0,87,0h-.2ZM585.7,463.6h-89.5c-1,0-1.3.4-1.5,1.4-1.2,6,2.3,10.5,8.4,10.5h165c5.3,0,8-2.9,8.4-8.1.2-3-.6-3.9-3.8-3.9-29,.1-58,0-87,0v.1ZM587,495.2h9.7c8.3,0,8.2,0,7.5-8.3-.2-2.3-1-2.9-3.2-2.9-7.4.1-14.8,0-22.3,0-8.3,0-8.2,0-9.3,8.1-.4,2.7.5,3.1,2.9,3.1,4.9-.1,9.7,0,14.6,0h.1Z"/>
        <path class="cls-1" d="M186.4,477.8c.5.8,1.4.7,2.1,1,6.4,2.6,10.4,8.1,10.4,15.1v110c0,9.6-6.9,16.2-16.7,16.2h-51.8c-3,0-4.2.5-3.5,3.8.7,3.5.9,7.1,1.1,10.7s-1.2,5.3-4.8,5.3h-43.8c-3.7,0-5.2-1.8-5-5.6.3-3.6.7-7.2,1.2-10.7.4-2.7-.4-3.6-3.2-3.5-18.4.1-36.9,0-55.3,0-2.7,0-5.3-.3-7.8-1.5-5.1-2.6-8.2-6.6-9-12.4-.2-1.4-.2-2.8-.2-4.2,0-34.3.2-68.7-.1-103,0-10,2.6-17.5,12.4-21.2h174.1-.1ZM99.5,590.9h87c2.5,0,4,0,4-3.4-.1-30.7,0-61.5,0-92.2,0-6.2-2.8-9-8.9-9H18c-6.7,0-9.2,2.5-9.2,9.3v91.5c0,3.1.8,3.8,3.9,3.8,29-.1,58,0,87,0h-.2ZM99.7,599.6H10.2c-1,0-1.3.4-1.5,1.4-1.2,6,2.3,10.5,8.4,10.5h165c5.3,0,8-2.9,8.4-8.1.2-3-.6-3.9-3.8-3.9-29,.1-58,0-87,0v.1ZM101,631.2h9.7c8.3,0,8.2,0,7.5-8.3-.2-2.3-1-2.9-3.2-2.9-7.4.1-14.8,0-22.3,0-8.3,0-8.2,0-9.3,8.1-.4,2.7.5,3.1,2.9,3.1,4.9-.1,9.7,0,14.6,0h.1Z"/>
        <path class="cls-1" d="M672.4,630.8c.5.8,1.4.7,2.1,1,6.4,2.6,10.4,8.1,10.4,15.1v110c0,9.6-6.9,16.2-16.7,16.2h-51.8c-3,0-4.2.5-3.5,3.8.7,3.5.9,7.1,1.1,10.7.2,3.6-1.2,5.3-4.8,5.3h-43.8c-3.7,0-5.2-1.8-5-5.6.3-3.6.7-7.2,1.2-10.7.4-2.7-.4-3.6-3.2-3.5-18.4.1-36.9,0-55.3,0-2.7,0-5.3-.3-7.8-1.5-5.1-2.6-8.2-6.6-9-12.4-.2-1.4-.2-2.8-.2-4.2,0-34.3.2-68.7-.1-103,0-10,2.6-17.5,12.4-21.2h174.1-.1ZM585.5,743.9h87c2.5,0,4,0,4-3.4-.1-30.7,0-61.5,0-92.2,0-6.2-2.8-9-8.9-9h-163.6c-6.7,0-9.2,2.5-9.2,9.3v91.5c0,3.1.8,3.8,3.9,3.8,29-.1,58,0,87,0h-.2ZM585.7,752.6h-89.5c-1,0-1.3.4-1.5,1.4-1.2,6,2.3,10.5,8.4,10.5h165c5.3,0,8-2.9,8.4-8.1.2-3-.6-3.9-3.8-3.9-29,.1-58,0-87,0v.1ZM587,784.2h9.7c8.3,0,8.2,0,7.5-8.3-.2-2.3-1-2.9-3.2-2.9-7.4.1-14.8,0-22.3,0-8.3,0-8.2,0-9.3,8.1-.4,2.7.5,3.1,2.9,3.1,4.9-.1,9.7,0,14.6,0h.1Z"/>
      </g>
    </g>
  </g>
</svg>