<?xml version="1.0" encoding="UTF-8"?>
<svg id="_Слой_2" data-name="Слой 2" xmlns="http://www.w3.org/2000/svg" viewBox="0 0 589 1273.42">
  <defs>
    <style>
      .cls-1 {
        fill: #fff;
        stroke-width: 0px;
      }
    </style>
  </defs>
  <g id="_Слой_1-2" data-name="Слой 1">
    <g>
      <g>
        <path class="cls-1" d="M156.33,149.39v-22.45c.27-1.25.66-2.48.8-3.74,6.12-57.29,47.82-105.1,103.75-119.09,7.4-1.85,14.98-2.48,22.4-4.11h22.45c1.25.27,2.48.67,3.75.8,56.59,5.69,105.37,48.1,119,103.32,1.86,7.54,2.55,15.26,4.2,22.83v22.45c-.27,1.24-.67,2.47-.81,3.73-6.49,59.13-49.81,107.34-107.95,120-6.01,1.31-12.12,2.15-18.19,3.21h-22.45c-.98-.76-2.17-.67-3.3-.79-57.43-6.02-105.21-47.41-119.45-103.33-1.92-7.54-2.6-15.26-4.2-22.83ZM417.45,138.09c-.03-67.89-54.82-122.82-122.58-122.89-68.35-.07-123.32,54.76-123.33,123.03-.01,68,54.95,122.89,123.03,122.88,68.05,0,122.91-54.94,122.88-123.02Z"/>
        <path class="cls-1" d="M295.36,63.04c23.31,0,46.63-.01,69.94,0,9.91,0,14.45,4.54,14.46,14.55.02,30.08.03,60.16,0,90.23-.01,11.55-4.02,15.48-15.62,15.48-17.41.01-34.83.06-52.24-.04-3.1-.02-4.92.38-4.45,4.14.57,4.51-1.94,10.61,1.03,13.19,2.59,2.24,8.5.7,12.94.75,4.89.05,9.79-.03,14.68.04,5.92.08,9.38,5.13,7.52,10.7-.45,1.36-1.37,1.27-2.34,1.29-2.16.04-4.32.02-6.48.02-27.34,0-54.69.04-82.03-.09-1.82-.01-4.88,1.81-5.43-2.09-.68-4.83.76-8.27,4.18-9.37,1.33-.43,2.83-.45,4.25-.46,8.06-.04,16.12-.16,24.18.05,3.03.08,3.61-1.13,3.47-3.76-.18-3.44-.28-6.93.02-10.35.29-3.35-.99-4.09-4.13-4.07-17.7.13-35.4.07-53.1.06-10.81-.01-14.9-4.08-14.9-14.8-.01-30.08-.01-60.16,0-90.23,0-11.24,4.05-15.22,15.4-15.22,22.88-.02,45.77-.02,68.65-.02ZM295.35,75.1c-22.58,0-45.17.07-67.75-.08-3.39-.02-4.34.92-4.32,4.31.13,25.17.12,50.34,0,75.52-.02,3.24.67,4.47,4.22,4.46,45.31-.12,90.62-.11,135.93-.02,3.38.01,4.37-.94,4.36-4.36-.14-25.17-.17-50.34.01-75.52.03-3.82-1.31-4.41-4.7-4.39-22.59.14-45.17.08-67.75.08ZM301.43,171.4c.06-3.34-2.63-6.09-5.93-6.07-3.28.02-6.06,2.83-6.01,6.07.05,3.11,2.62,5.68,5.78,5.78,3.41.11,6.1-2.4,6.16-5.78Z"/>
      </g>
      <g>
        <path class="cls-1" d="M6.52,337.67h370.73c3.6,0,6.52-2.92,6.52-6.52s-2.92-6.52-6.52-6.52H6.52c-3.6,0-6.52,2.92-6.52,6.52s2.92,6.52,6.52,6.52Z"/>
        <path class="cls-1" d="M430.67,337.67h151.81c3.6,0,6.52-2.92,6.52-6.52s-2.92-6.52-6.52-6.52h-151.81c-3.6,0-6.52,2.92-6.52,6.52.01,3.6,2.93,6.52,6.52,6.52Z"/>
      </g>
      <path class="cls-1" d="M581.65,394.52v486.16c0,4.72-3.83,8.54-8.54,8.54s-8.54-3.83-8.54-8.54v-486.16c0-4.72,3.83-8.54,8.54-8.54s8.54,3.82,8.54,8.54Z"/>
      <path class="cls-1" d="M581.65,1063.81v153.07c0,4.72-3.83,8.54-8.54,8.54s-8.54-3.83-8.54-8.54v-153.07c0-4.72,3.83-8.54,8.54-8.54s8.54,3.82,8.54,8.54Z"/>
      <path class="cls-1" d="M307.38,980.63V446.55c0-17.28,14.06-31.34,31.34-31.34h103.18c17.28,0,31.34,14.06,31.34,31.34v534.09c0,17.28-14.06,31.34-31.34,31.34h-103.18c-17.28,0-31.34-14.07-31.34-31.35ZM456.15,446.55c0-7.86-6.39-14.25-14.25-14.25h-103.18c-7.86,0-14.25,6.39-14.25,14.25v534.09c0,7.86,6.39,14.25,14.25,14.25h103.18c7.86,0,14.25-6.39,14.25-14.25V446.55Z"/>
      <path class="cls-1" d="M442.04,1273.42H135.23c-17.28,0-31.34-14.06-31.34-31.34v-103.17c0-17.28,14.06-31.34,31.34-31.34h306.81c17.28,0,31.34,14.06,31.34,31.34v103.17c0,17.28-14.06,31.34-31.34,31.34ZM135.23,1124.65c-7.86,0-14.25,6.39-14.25,14.25v103.17c0,7.86,6.39,14.25,14.25,14.25h306.81c7.86,0,14.25-6.39,14.25-14.25v-103.17c0-7.86-6.39-14.25-14.25-14.25H135.23Z"/>
      <path class="cls-1" d="M0,1182.99v-170.99c0-26.29,21.31-47.6,47.6-47.6h111.45c16.85,0,30.51-13.66,30.51-30.51V385.98h17.09v547.91c0,26.29-21.31,47.6-47.6,47.6H47.6c-16.85,0-30.51,13.66-30.51,30.51v170.99c0,4.72-3.83,8.54-8.54,8.54h0c-4.72.01-8.55-3.82-8.55-8.54Z"/>
    </g>
  </g>
</svg>