<?xml version="1.0" encoding="UTF-8"?>
<svg id="_Слой_2" data-name="Слой 2" xmlns="http://www.w3.org/2000/svg" viewBox="0 0 588.22 670.05">
  <defs>
    <style>
      .cls-1 {
        fill: none;
        stroke: #fff;
        stroke-linecap: round;
        stroke-linejoin: round;
        stroke-width: 10px;
      }

      .cls-2 {
        fill: #fff;
        stroke-width: 0px;
      }
    </style>
  </defs>
  <g id="_Слой_1-2" data-name="Слой 1">
    <g>
      <g>
        <path class="cls-2" d="M69.01,125.52c9.66,0,19.33-.02,28.99.01,8.18.02,10.93,2.68,10.95,10.66.04,14.33.04,28.66,0,42.99-.02,7.29-2.5,10.06-9.74,10.29-3.02.09-3.62,1.22-3.55,3.86.06,2.21.95,5.15-1.69,6.29-2.96,1.28-4.6-1.6-5.99-3.41-4.24-5.53-9.56-7.16-16.44-6.8-10.8.56-21.65.19-32.48.13-7.15-.04-10.07-2.91-10.1-9.99-.06-14.66-.06-29.33,0-43.99.03-7.1,2.94-9.98,10.07-10.02,9.99-.07,19.99-.02,29.98-.02ZM89.58,190.15c.19-5.28,2.9-6.06,6.83-5.98,6.97.14,7.23-.29,7.24-7.33.01-8.66-.09-17.31.05-25.96.05-2.96-.85-4.11-3.96-4.1-20.47.1-40.95.09-61.42.01-2.93-.01-4.18.79-4.12,3.94.16,9.32.16,18.64.01,27.96-.07,4.08,1.6,5.65,5.64,5.6,10.98-.14,21.97-.04,32.96-.05,6.09-.01,12.56-1.19,16.77,5.91ZM77.19,131.11c-7.59-.54-10.51,1.28-16.36,9.87,7.15,1.19,10.41-.72,16.36-9.87ZM75.45,141.2c8.56.55,14.23-3.1,17.34-10.08-8.69-2.25-11.26,5.53-17.34,10.08ZM44.84,141.01c7.13,1.13,10.59-.92,16.1-9.55-6.89-1.38-10.03.48-16.1,9.55ZM92.15,140.06c.25.48.51.97.76,1.45h4.78c5.91,0,7.38-1.95,5.82-7.69-.57-2.1-1.46-2.85-3.34-1.05-2.61,2.49-5.34,4.87-8.02,7.29ZM34.89,142.18c3.96-3.78,7.57-6.72,10.39-10.77-10.54-1.7-12.02-.3-10.39,10.77Z"/>
        <path class="cls-2" d="M4.93,224.07c0-6.33.08-12.66-.03-18.98-.06-3.34,1.22-4.92,4.67-4.86,5.83.1,12.03-1.23,17.38.37,5.75,1.72,10.76-.12,16.08-.22,5.06-.09,10.08-.06,13.81,4.16,1.21,1.36,2.75.95,4.19.96,6.16.06,12.33-.1,18.48.09,5.86.18,9.75,3.78,10.57,9.33.62,4.19,2.64,5.16,6.1,2.65,3.63-2.64,6.93-5.75,10.6-8.33,6.57-4.6,13.62-7.23,21.46-3.13,5.55,2.9,5.76,5.07,1.14,9.15-13.35,11.8-26.78,23.51-40.04,35.41-2.65,2.38-5.06,2.95-8.55,2.07-14.67-3.7-29.44-7.03-44.15-10.59-2.81-.68-5.22-1.59-5.14,2.93.04,2.46-2.04,3.2-4.25,3.2-5.99.02-11.99.02-17.98,0-3.11-.01-4.43-1.61-4.38-4.73.11-6.49.04-12.99.04-19.48ZM125.16,210.9c-2.65-2.02-5.54-1.62-8.46-.76-3.42,1-6.76,2.56-8.95,5.25-7.23,8.87-17.85,9.37-27.68,11.1-6.95,1.22-14.28.27-21.44.36-2.07.03-3.01-.68-2.98-2.89.03-2.55,1.65-2.43,3.37-2.43,6.16.01,12.33-.05,18.49.02,3.7.04,7.03-.81,7.21-5.07.19-4.65-3.35-5.61-7.18-5.62-6.5-.03-12.99-.01-19.49-.02-1.83,0-3.44-.11-4.87-1.8-3.72-4.4-16.08-4.38-20.07-.27-1.36,1.41-1.18,3.03-1.18,4.66-.03,6,.2,12-.09,17.99-.17,3.45,1.3,4.48,4.36,5.18,14.6,3.31,29.18,6.75,43.7,10.39,3.12.78,5.26.3,7.63-1.83,11.77-10.57,23.69-20.99,35.54-31.48.82-.77,1.97-1.31,2.09-2.78ZM26.12,224.2h-.12v-6.99c0-12.45,0-12.36-12.44-11.73-2.7.14-3.37,1.12-3.34,3.58.1,7.32.03,14.64.03,21.96,0,12.68,0,12.59,12.66,11.79,2.71-.17,3.33-1.19,3.26-3.65-.15-4.97-.05-9.97-.05-14.96Z"/>
        <path class="cls-2" d="M58.19,165.55q-.01-12.41,10.99-6.92c2.38,1.19,4.74,2.41,7.12,3.6,1.5.75,3.17,1.41,3.06,3.47-.09,1.76-1.56,2.39-2.92,3.06-4.17,2.06-8.28,4.25-12.49,6.22-3.99,1.87-5.48.93-5.73-3.45-.12-1.98-.03-3.98-.03-5.98ZM63.83,162.8c.36,1.88-1.31,4.43.85,5.25,1.52.58,3.91-.76,5.09-2.84-1.9-1.14-3.43-2.42-5.94-2.41Z"/>
      </g>
      <g>
        <path class="cls-2" d="M495.92,477.76c17.49,0,34.99-.14,52.48.09,4.86.07,6.43-1.66,6.4-6.38-.15-22.49-.16-44.98.01-67.47.03-4.79-1.59-6.55-6.43-6.28-6.31.35-12.66.1-18.99.07-1.92-.01-4.19.54-4.11-2.73.07-3.27,2.42-2.61,4.28-2.63,7-.06,14-.13,20.99.02,6.63.15,9.47,2.98,9.48,9.55.07,23.82.07,47.65,0,71.47-.02,6.56-2.94,9.43-9.5,9.5-8.83.1-17.67.24-26.49-.06-4.14-.14-4.29,2.02-3.96,4.92.29,2.57-1.6,6.51,3.82,5.99,1.73-.17,4.19-.95,4.2,2.49.01,3.46-2.44,2.51-4.2,2.51-18.66.05-37.32.05-55.98,0-1.62,0-3.79.83-3.93-2.28-.16-3.34,2.08-2.96,3.97-2.74,5.69.65,3.7-3.52,4.07-6.24.45-3.27-.53-4.76-4.25-4.64-8.66.26-17.32.14-25.99.06-6.86-.07-9.73-2.9-9.74-9.77-.06-23.66-.06-47.31,0-70.97.02-6.86,2.83-9.66,9.76-9.79,6.99-.13,13.99-.04,20.99-.03,2.02,0,4.12-.22,4.01,2.92-.1,2.94-2.14,2.44-3.89,2.45-6.83.03-13.66.14-20.49-.03-3.68-.09-5.11,1.46-5.1,5.02.04,23.32.05,46.65-.01,69.97-.01,4,1.97,5.08,5.64,5.06,17.64-.11,35.3-.05,52.96-.05ZM495.97,493.75c5.15,0,10.31-.16,15.46.05,4.29.18,3.38-2.82,3.24-5.07s1.61-5.76-3.1-5.73c-10.31.06-20.61.06-30.92,0-5.08-.03-2.93,3.76-3.26,6.1-.36,2.59-.32,4.96,3.63,4.73,4.96-.29,9.96-.07,14.95-.08Z"/>
        <path class="cls-2" d="M445.27,437.44c0-8.66.12-17.32-.05-25.98-.09-4.32,1.6-6.04,5.93-5.76,4.15.26,8.32.09,12.49.05,1.89-.02,3.2.28,3.18,2.67-.02,2.44-1.47,2.64-3.28,2.58-.5-.02-1,0-1.5,0q-11.23.13-11.23,11.16c0,12.49.13,24.98-.08,37.47-.06,3.66.91,4.96,4.73,4.86,9.49-.25,18.98-.1,28.48-.05,1.85.01,4.12-.65,4.17,2.67.04,3.35-2.22,2.68-4.09,2.69-10.99.03-21.99-.12-32.97.08-4.44.08-5.88-1.77-5.8-5.95.13-8.83.02-17.66.02-26.49Z"/>
        <path class="cls-2" d="M546.8,437.84c0,8.66-.1,17.32.05,25.98.07,4.09-1.17,6.14-5.7,6.05-11.15-.21-22.32-.07-33.47-.07-1.82,0-3.68.32-3.7-2.6-.02-2.79,1.64-2.79,3.58-2.79,9.83.01,19.65-.1,29.48.05,3.18.05,4.35-.88,4.31-4.24-.16-14.99-.15-29.98-.01-44.96.03-3.2-.84-4.59-4.21-4.3-2.81.24-5.66.04-8.49.04-1.74,0-3.3.03-3.38-2.49-.08-2.82,1.65-2.77,3.58-2.76,4.33.02,8.67.14,12.99-.03,3.77-.16,5.01,1.69,4.99,5.14-.06,9-.02,17.99-.02,26.98Z"/>
        <path class="cls-2" d="M509.16,424.54c0,3.16.25,6.34-.05,9.47-.61,6.37-6.51,11.61-12.84,11.73-6.51.13-12.86-5.18-13.28-11.77-.4-6.29-.38-12.64-.03-18.94.37-6.6,6.61-12.01,13.09-12,6.49.01,12.53,5.44,13.09,12.04.27,3.14.05,6.31.05,9.47h-.03ZM495.92,408.65c-4.28.16-7.22,2.5-7.54,6.57-.48,6.12-.37,12.32,0,18.45.19,3.17,2.36,5.47,5.67,6.21,2.96.66,5.64.12,7.74-2.23,1.01-1.13,2.12-2.49,1.72-3.98-.53-1.97-2.48-1.01-3.83-1.17-1.32-.16-2.66-.07-3.99-.07-2.04-.01-2.44-1.27-2.4-2.99.03-1.61.68-2.49,2.38-2.47,2,.02,4-.07,6-.03,1.69.04,2.34-.69,2.37-2.38.03-1.82-.44-2.85-2.49-2.76-2,.09-4-.04-6-.01-1.78.02-2.26-1-2.26-2.55s.3-2.68,2.09-2.75c1.33-.05,2.67.02,4-.1,1.42-.13,3.46.72,4.08-.92.69-1.84-.78-3.44-2.07-4.76-1.49-1.52-3.36-2.11-5.47-2.06Z"/>
        <path class="cls-2" d="M520.05,432.04c-.28,11.24-6.53,20.01-17.11,23.11-3.39.99-4.57,2.48-4.18,5.83.25,2.13,0,4.32.02,6.48.02,2.1-1.27,2.36-2.96,2.35-1.62-.01-2.82-.64-2.47-2.28,1.85-8.56-2.69-11.8-9.94-15.19-8.88-4.15-11.7-13.05-11.41-22.73.05-1.86.68-2.69,2.63-2.67,1.91.02,2.67.78,2.71,2.66.04,1.99.17,3.99.5,5.95,1.52,9.01,9.05,15.33,18.16,15.35,9.11.01,16.66-6.3,18.22-15.28.28-1.63.4-3.3.5-4.95.1-1.83-.23-3.69,2.65-3.74s2.7,1.74,2.68,3.62c-.01.49,0,.99,0,1.49Z"/>
        <path class="cls-2" d="M526.65,383.11c-.17,2.13-1.28,2.72-2.07,3.51-1.14,1.14-2.1.29-3.01-.46-2.57-2.12-5.21-4.09-8.27-5.49-14.39-6.58-28-5.37-40.83,3.96-.67.49-1.37.96-1.96,1.54-1.67,1.68-2.82.72-4.13-.58-1.71-1.69-.38-2.49.73-3.55,14.99-14.27,42.89-14.27,57.88.01.6.57,1.41.9,1.66,1.06Z"/>
        <path class="cls-2" d="M496.27,381.54c7.85.02,15.05,2.57,21.3,7.74,1.15.95,2.61,1.77.86,3.49-1.23,1.21-2.14,2.33-4.11.83-12.13-9.23-24.39-9.23-36.53-.02-1.96,1.48-2.87.44-4.12-.79-1.74-1.71-.34-2.54.82-3.5,6.24-5.17,13.43-7.73,21.78-7.75Z"/>
        <path class="cls-2" d="M495.96,391.77c5.35-.03,10.15,1.59,14.36,4.9,1,.78,2.45,1.61.98,3.15-1.09,1.14-1.96,2.76-4.08,1.22-7.33-5.31-14.83-5.39-22.19-.08-2.05,1.48-2.97.21-4.12-1-1.74-1.83.04-2.66,1.13-3.49,4.09-3.12,8.74-4.71,13.92-4.7Z"/>
      </g>
      <g>
        <path class="cls-2" d="M588.17,47.92c0,5.16.1,10.32-.02,15.47-.19,8.23-5.56,13.69-13.83,13.89-7.48.18-14.98.26-22.45-.03-3.87-.15-6.64,1.05-9.11,3.91-2.28,2.64-4.91,4.96-7.38,7.43-1.09,1.09-2.26,2.15-3.91,1.61-1.98-.64-1.95-2.47-2.05-4.13-.05-.83-.06-1.67-.01-2.49.21-3.73.15-6.8-4.4-8.68-3.97-1.63-5.94-5.77-5.98-10.25-.1-11.14-.25-22.29.02-33.43.16-6.67,5.5-12.15,12.12-12.28,14.8-.27,29.61-.28,44.41-.02,7.07.12,12.28,5.83,12.54,13.03.19,5.32.04,10.65.04,15.97t.01,0ZM534.89,80.23c2.38-.49,3.29-1.82,4.14-2.93,3.34-4.4,7.65-5.69,13.07-5.38,7.13.41,14.31.18,21.46.06,5.61-.09,8.91-2.61,9.07-7.85.33-10.8.29-21.63-.03-32.43-.14-4.85-3.47-7.54-8.29-7.58-13.81-.12-27.62-.14-41.44,0-5.39.06-8.5,3.07-8.61,8.36-.2,10.31-.1,20.63-.04,30.95.02,3.41,1.32,6.77,4.67,7.52,5.15,1.18,6.83,4.04,6,9.28Z"/>
        <path class="cls-2" d="M499.65,91.49c-.29-5.54,2.68-6.4,6.81-6.26,4.82.17,9.65.06,14.48.04,1.79-.01,3.22.08,3.28,2.56.07,2.62-1.24,3.03-3.38,2.99-3.66-.07-7.34.19-10.98-.07-3.55-.26-4.71,1.12-4.48,4.56.14,1.99.86,4.66-1.9,5.6-2.34.8-3.78-1.21-4.88-2.73-4.54-6.3-10.52-8.53-18.12-7.45-2.76.39-5.67.16-8.46-.2-6.67-.88-11.54-6.12-11.81-12.79-.22-5.48-.21-10.99-.01-16.47.27-7.32,5.77-13.02,13.06-13.15,12.31-.23,24.63-.07,36.94-.1,1.81,0,3.22.11,3.26,2.56.05,2.8-1.68,2.77-3.61,2.76-10.98-.01-21.96-.03-32.95.01-8.77.03-11.37,2.62-11.45,11.28-.03,3.83-.14,7.66.04,11.48.3,6.27,3.13,8.96,9.39,9.14,2.66.08,5.33.14,7.99,0,6.3-.34,12.44-.4,16.78,6.24Z"/>
        <path class="cls-2" d="M523.8,128.06c-8.32,0-16.64.06-24.97-.01-9.01-.09-14.57-5.66-14.69-14.65-.07-4.83.01-9.65-.02-14.48-.01-1.64.13-2.9,2.33-2.92,2.1-.02,3.04.63,3,2.83-.08,4.66-.11,9.32.02,13.98.19,6.85,2.99,9.84,9.77,9.89,16.64.13,33.29.14,49.93-.01,6.71-.06,9.53-3.11,9.63-10.02.13-8.65.04-17.31.04-25.96,0-2.02-.27-4.08,2.91-3.95,2.99.12,2.38,2.19,2.38,3.89.04,9.15.12,18.31-.02,27.46-.12,8.13-5.76,13.79-13.87,13.92-8.79.14-17.61.02-26.44.03Z"/>
        <path class="cls-2" d="M524.66.03c8.49,0,16.98-.08,25.47.03,6.44.08,11.52,3.74,13.3,9.4.4,1.27,1.65,3.03-.64,3.67-1.5.42-3.62.85-4.26-1.32-1.75-5.99-6.4-6.49-11.47-6.48-15.32.02-30.63-.01-45.95.02-9.06.02-11.61,2.57-11.66,11.58-.04,7.33-.02,14.65-.01,21.98,0,2.08.13,4.07-2.99,3.91-3.04-.16-2.29-2.33-2.3-3.99-.06-8.32-.14-16.65.02-24.97.15-8.1,5.82-13.67,14.01-13.79,8.83-.14,17.65-.04,26.48-.04Z"/>
        <path class="cls-2" d="M497.64,72.05c-4.49,0-8.98-.03-13.47.02-1.8.02-2.79-.54-2.78-2.54.01-1.86.71-2.77,2.61-2.76,8.98.02,17.97.04,26.95,0,2.04-.01,2.47,1.07,2.49,2.84.02,2.06-1.08,2.49-2.82,2.47-4.33-.06-8.65-.03-12.98-.03Z"/>
        <path class="cls-2" d="M524.06,117.32c-1.82,0-3.64-.05-5.45.01-2,.07-2.47-.98-2.49-2.78-.02-1.99.87-2.57,2.69-2.53,3.64.07,7.28.09,10.91,0,2.03-.05,2.48.94,2.49,2.74.01,1.97-.88,2.63-2.69,2.58-1.83-.06-3.65-.02-5.46-.02Z"/>
        <path class="cls-2" d="M500.15,24.16c.22,1.87-.62,2.66-2.54,2.65-1.85-.01-2.7-.69-2.74-2.61-.04-2.1.76-2.97,2.91-2.94,2.08.04,2.51,1.14,2.37,2.9Z"/>
        <path class="cls-2" d="M508.07,16.01c-2.17.23-2.68-.87-2.69-2.67-.01-1.97.94-2.55,2.75-2.59,2.22-.05,2.85,1.01,2.78,3.05-.06,2.15-1.32,2.39-2.84,2.21Z"/>
        <path class="cls-2" d="M500.14,13.55c.25,1.95-.74,2.49-2.56,2.55-2.26.07-2.73-1.03-2.71-3,.03-2.11,1.26-2.3,2.9-2.33,2.01-.04,2.57,1,2.37,2.78Z"/>
        <path class="cls-2" d="M473.71,66.8c1.97-.2,2.43.88,2.5,2.66.09,2.34-1.15,2.63-3.05,2.62-2.17-.01-2.24-1.31-2.27-2.91-.05-2.04,1.08-2.53,2.82-2.37Z"/>
        <path class="cls-2" d="M548.95,37.51c3.11,1.54,6.78,3.11,10.21,5.11,2.6,1.52,7.11,1.6,7.22,5.25.11,4.08-4.69,3.99-7.35,5.65-2.8,1.76-5.87,3.11-8.9,4.47-2.57,1.15-4.45.14-4.59-2.61-.24-4.98-.14-9.97-.03-14.96.03-1.63,1.02-2.75,3.44-2.91ZM556.88,47.85c-1.98-.74-3.41-3.57-5.52-2.01-1.07.79-1.08,3.85.06,4.5,2.03,1.18,3.68-.99,5.46-2.49Z"/>
      </g>
      <line class="cls-1" x1="154.04" y1="257.76" x2="397.61" y2="378.29"/>
      <line class="cls-1" x1="79.43" y1="295.13" x2="69.7" y2="520.23"/>
      <line class="cls-1" x1="414.72" y1="510.89" x2="149.19" y2="633.44"/>
      <line class="cls-1" x1="150.55" y1="138.38" x2="426.72" y2="72.07"/>
      <line class="cls-1" x1="505.39" y1="344.58" x2="526.65" y2="170.13"/>
      <g>
        <path class="cls-2" d="M64.03,670.03c-9.99,0-19.97.05-29.96-.02-7.11-.05-10.02-2.93-10.05-10.03-.06-14.65-.06-29.29,0-43.94.03-7.1,2.93-10.02,10.04-10.03,19.97-.05,39.94-.05,59.92,0,7.11.02,10.02,2.93,10.05,10.03.06,14.65.06,29.29,0,43.94-.03,7.1-2.93,9.99-10.04,10.04-9.98.06-19.97.01-29.96.01ZM64.37,627.31c-10.33,0-20.65.08-30.98-.05-2.95-.04-4.17.82-4.11,3.95.16,9.49.11,18.99.03,28.48-.03,3.63,1.61,5.05,5.15,5.04,19.65-.06,39.31-.07,58.96.01,3.84.02,5.39-1.56,5.35-5.37-.12-9.16-.22-18.33.05-27.48.12-3.95-1.43-4.73-4.97-4.65-9.83.2-19.66.07-29.48.07ZM73.37,611.78c-8.18-.82-13.72,2.72-17.28,9.89,8.74,2.57,11.26-5.35,17.28-9.89ZM71.09,621.3c7.53,1.28,14-2.76,16.7-9.76-8.68-2.13-11.19,5.62-16.7,9.76ZM38.83,621.36c9.99,2.73,12.63-4.94,18.07-9.38-9.68-2.87-12.19,5.19-18.07,9.38ZM87.28,620.54c.23.48.46.97.69,1.45h4.76c5.96,0,7.4-1.88,5.86-7.65-.54-2.04-1.39-2.96-3.32-1.11-2.6,2.49-5.32,4.88-7.99,7.31ZM41.1,612.99c-.35-.54-.71-1.07-1.06-1.61-2.41,0-4.83-.08-7.23.03-1.87.08-3.16,1.12-3.33,3.06-.19,2.29-.64,4.68.29,6.86.37.88,1.44.23,2.08-.33,3.09-2.67,6.17-5.34,9.25-8.01Z"/>
        <path class="cls-2" d="M93.52,541.99c8.33,0,16.66-.08,24.99.02,6.47.08,9.44,3.07,9.51,9.57.1,9.66.11,19.33,0,28.99-.07,6.44-3.09,9.36-9.65,9.43-9.5.09-19,.23-28.49-.06-4.33-.13-7.78.79-10.39,4.36-.68.93-1.58,1.73-2.47,2.47-1.71,1.44-2.95,4.29-5.65,3.34-3.1-1.09-2.02-4.21-2.05-6.56-.03-2.35-.51-3.46-3.24-3.73-4.86-.49-7.28-3.68-7.3-8.54-.04-10.16-.14-20.33.03-30.49.1-5.88,3.13-8.68,9.21-8.76,8.5-.12,17-.04,25.5-.04ZM75.4,590.6c4.21-7.02,10.65-5.91,16.75-5.89,8.31.03,16.63-.1,24.94.05,4,.07,5.76-1.42,5.68-5.54-.16-8.81-.16-17.62,0-26.43.07-4.14-1.73-5.55-5.71-5.52-15.79.11-31.59.1-47.38.01-3.9-.02-5.8,1.21-5.7,5.47.21,8.81.17,17.62.01,26.43-.07,3.72,1.14,5.85,5.08,5.51,3.91-.34,6.09,1.13,6.33,5.91Z"/>
        <path class="cls-2" d="M36.62,590.65c.14-5.59,3.27-6.25,7.25-5.97,2.32.17,4.66.1,6.99.05,2.06-.04,2.47,1.13,2.44,2.88-.02,1.64-.66,2.47-2.36,2.41-1-.04-2.02.15-2.99-.02-4.18-.69-5.76.98-5.21,5.16.23,1.76.34,3.91-1.67,4.85-2.33,1.09-3.93-.71-5-2.28-4.8-7.02-11.5-8.65-19.48-7.78-3.95.43-7.99.01-11.98.09-3.11.06-4.62-1.26-4.6-4.45.05-7.66.08-15.32,0-22.99-.04-3.49,1.64-4.66,4.93-4.65,14.99.07,29.98.03,44.97.03,1.67,0,3.34-.22,3.44,2.36.1,2.64-1.31,2.97-3.41,2.96-12.16-.04-24.32-.06-36.48.01-9.33.05-7.98-1.18-8.1,8.34-.04,3,.13,6-.04,8.99-.17,2.96.81,4.27,3.95,4.11,3.82-.2,7.66.01,11.49-.06,5.84-.1,11.89-.88,15.87,5.96Z"/>
        <path class="cls-2" d="M36.93,576.76c-4.16,0-8.33-.03-12.49.02-1.96.03-3.17-.48-3.17-2.77s1.2-2.79,3.16-2.78c8.66.04,17.32.05,25.99,0,2.16-.01,2.95.91,2.9,3.02-.05,2.03-1.14,2.53-2.89,2.51-4.5-.02-9,0-13.5,0Z"/>
        <path class="cls-2" d="M13.24,571.29c1.71-.17,2.88.31,2.8,2.37-.06,1.52.11,3.04-2.14,3.1-1.93.06-3.23-.33-3.17-2.65.06-1.71.42-2.96,2.51-2.82Z"/>
        <path class="cls-2" d="M53.27,645.65q-.01-12.06,10.87-6.62c2.68,1.34,5.43,2.55,8.01,4.06,3.24,1.89,3.24,4.03-.08,5.85-4.37,2.39-8.88,4.55-13.36,6.73-3.68,1.79-5.33.24-5.42-3.52-.06-2.17-.02-4.34-.02-6.5ZM65.36,646.01c-2.33-1.37-4.12-3.46-6.03-2.34-1.23.72-.76,3.3-.02,5.08,2.16-.03,3.7-1.29,6.05-2.74Z"/>
        <path class="cls-2" d="M73.29,563.41c3.87-.55,6.45.5,8.22,2.98,2.84,3.99,5.16,3.12,7.94-.17,2.57-3.04,5.68-5.62,8.4-8.54,2.52-2.71,4.7-2.5,7.13.11,2.8,3,5.39,6.39,10.39,5.59,1.78-.29,1.91,1.4,1.93,2.8.02,1.56-.52,2.45-2.25,2.6-4.19.36-7.99-.17-10.64-3.91-2.05-2.9-3.83-2.67-6.14-.03-2.94,3.38-6.36,6.35-9.47,9.59-2.3,2.4-4.37,2.57-6.78.09-2.95-3.04-5.51-6.72-10.77-5.89-2.11.33-2.08-1.78-1.9-3.26.38-3.21,3.01-1.7,3.94-1.96Z"/>
      </g>
    </g>
  </g>
</svg>