<?xml version="1.0" encoding="UTF-8"?>
<svg id="_Слой_2" data-name="Слой 2" xmlns="http://www.w3.org/2000/svg" viewBox="0 0 242.89 215.69">
  <defs>
    <style>
      .cls-1 {
        fill: #fff;
        stroke-width: 0px;
      }
    </style>
  </defs>
  <g id="_Слой_1-2" data-name="Слой 1">
    <g>
      <path class="cls-1" d="M103.5,215.69c-25.16,0-50.32.01-75.49,0-12.66-.01-17.18-4.5-17.19-17.12-.02-27.33-.01-54.66-.01-81.99,0-5.39.11-5.58,4.96-2.8,26.21,14.98,53.31,8.89,70.96-7.07,1.6-1.45,3.1-3.02,4.57-4.61,5.36-5.76,9.35-5.85,15.18-.33,14.72,13.94,32.08,21.22,52.49,20.49,11.51-.41,22.34-3.64,32.34-9.32,3.48-1.98,4.73-1.97,4.71,2.52-.14,28.66-.06,57.32-.18,85.98-.04,9.19-5.08,14.15-14.37,14.17-25.99.08-51.99.03-77.99.03.02.02.02.03.02.05ZM88.9,131.28v51.39c16.88-8.86,33.21-17.44,50.26-26.39-17.24-8.57-33.44-16.63-50.26-25Z"/>
      <path class="cls-1" d="M156.57,115.45c-32.49-.14-58.21-25.92-57.98-58.12C98.82,25.29,124.62-.11,156.84,0c31.51.11,57.52,26.37,57.31,57.86-.21,31.81-26.13,57.72-57.58,57.59ZM197.78,40.33c-.03-6.49-4.93-11.44-11.33-11.43-6.5,0-11.85,5.41-11.67,11.8.17,6.08,5.66,11.32,11.8,11.26,6.22-.05,11.23-5.25,11.2-11.63ZM137.66,75.27c.06-6.41-4.81-11.55-11.12-11.74-6.39-.19-11.83,5.15-11.84,11.63-.01,6.29,5.1,11.36,11.47,11.39,6.45.02,11.43-4.87,11.49-11.28ZM167.69,22.97c-.02-6.47-4.91-11.45-11.3-11.51-6.42-.06-11.83,5.41-11.67,11.8.15,6.23,5.4,11.26,11.71,11.23,6.38-.04,11.28-5.06,11.26-11.52ZM137.69,40.2c-.04-6.31-5.14-11.31-11.52-11.31s-11.46,5.14-11.5,11.41c-.04,6.38,5.47,11.78,11.87,11.64,6.22-.13,11.19-5.37,11.15-11.74ZM197.81,75.09c-.04-6.38-5.07-11.52-11.32-11.56-6.32-.04-11.89,5.56-11.74,11.81.15,6.23,5.41,11.24,11.74,11.18,6.5-.06,11.36-4.97,11.32-11.43ZM167.7,92.6c.04-6.42-4.88-11.57-11.15-11.66-6.39-.1-11.89,5.31-11.85,11.64.04,6.2,5.24,11.31,11.58,11.37,6.34.06,11.38-4.96,11.42-11.35ZM156.52,51.14c-3.74-.12-6.7,2.65-6.85,6.38-.14,3.62,2.79,6.74,6.42,6.84,3.65.1,6.77-2.81,6.92-6.42.14-3.57-2.83-6.68-6.49-6.8Z"/>
      <path class="cls-1" d="M46.24,115.42C20.62,115.3-.23,94.34,0,68.93.23,42.92,20.95,22.35,46.83,22.44c25.71.09,46.49,21.23,46.25,47.07-.23,25.54-21.14,46.03-46.84,45.91ZM80.06,55.17c.1-4.99-4-9.35-8.96-9.54-5.14-.19-9.6,4.17-9.6,9.39s4.1,9.17,9.2,9.24c5,.07,9.26-4.06,9.36-9.09ZM80.09,82.89c-.04-4.97-4.3-9.2-9.28-9.24-4.99-.04-9.24,4.14-9.3,9.15-.07,5.25,4.28,9.61,9.47,9.48,4.95-.12,9.15-4.44,9.11-9.39ZM31.57,55.24c.12-5.24-4.16-9.61-9.38-9.59-5,.03-9.12,4.22-9.14,9.3-.02,5.05,4.06,9.21,9.13,9.31,5.01.09,9.27-4,9.39-9.02ZM22.23,73.66c-5.06.02-9.11,4.11-9.17,9.25-.06,5.02,4.06,9.28,9.06,9.39,5.15.11,9.52-4.31,9.42-9.53-.09-5.04-4.27-9.13-9.31-9.11ZM55.73,40.89c-.03-5.07-4.16-9.26-9.14-9.28-4.99-.02-9.18,4.13-9.26,9.17-.09,5.34,4.08,9.53,9.41,9.45,5.08-.07,9.02-4.17,8.99-9.34ZM55.76,96.82c-.06-5.04-4.27-9.2-9.25-9.15-5.12.05-9.17,4.1-9.19,9.19-.02,5.29,4.34,9.62,9.48,9.44,5.02-.19,9.02-4.41,8.96-9.48ZM51.81,68.82c-.27-2.98-1.85-5.2-5.25-5.18-3.33.02-5.21,2.05-5.2,5.43,0,3.17,1.85,5.06,4.9,5.2,3.36.16,5.16-1.84,5.55-5.45Z"/>
      <path class="cls-1" d="M242.31,203.65c-12.3-6.39-24.11-12.48-35.88-18.65-2.78-1.46-3.84-4.02-3.83-7.09.04-14.5.08-29,.09-43.49,0-2.74.91-4.72,3.52-6.03,11-5.55,21.95-11.19,32.88-16.87,2.57-1.34,3.81-1.41,3.8,2.11-.09,29.33-.07,58.66-.09,87.99-.01.46-.22.94-.49,2.03Z"/>
    </g>
  </g>
</svg>