<?xml version="1.0" encoding="UTF-8"?>
<svg id="_Слой_2" data-name="Слой 2" xmlns="http://www.w3.org/2000/svg" viewBox="0 0 402.13 622.94">
  <defs>
    <style>
      .cls-1 {
        fill: #fff;
        stroke-width: 0px;
      }
    </style>
  </defs>
  <g id="_Слой_1-2" data-name="Слой 1">
    <g>
      <path class="cls-1" d="M96.62,369.63H0V0h402.13v79.97l-33.64,33.64h-166.45l-59.89,59.89v88.77l-23.78,23.78v61.83l-21.75,21.75ZM6.6,363.03h87.28l17.88-17.88v-61.83l23.78-23.78v-88.77l63.76-63.76h166.45l29.77-29.77V6.6H6.6v356.43Z"/>
      <polygon class="cls-1" points="127.25 142.75 173.12 96.88 127.25 96.88 127.25 142.75"/>
      <polygon class="cls-1" points="82.59 622.94 80.53 622.94 80.53 470.89 59.4 449.76 59.4 246.48 2.57 189.66 4.03 188.2 61.46 245.63 61.46 448.91 82.59 470.04 82.59 622.94"/>
      <polygon class="cls-1" points="61.16 280.03 59.7 278.57 86.18 252.09 86.17 119.39 109.55 96.02 109.55 73.42 73.79 37.67 73.79 3.3 75.86 3.3 75.86 36.81 111.61 72.57 111.61 96.87 88.24 120.24 88.24 252.95 61.16 280.03"/>
      <polygon class="cls-1" points="30 186.95 3.3 186.95 3.3 184.89 29.14 184.89 54.07 159.96 54.07 77.89 84.77 47.19 86.23 48.65 56.13 78.75 56.13 160.82 30 186.95"/>
      <polygon class="cls-1" points="100.23 62.64 98.77 61.18 113.86 46.1 247.33 46.1 288.56 4.87 290.02 6.33 248.18 48.16 114.71 48.16 100.23 62.64"/>
      <polygon class="cls-1" points="320.72 82.35 110.58 82.35 110.58 80.28 319.86 80.28 347.51 52.64 398.83 52.64 398.83 54.7 348.36 54.7 320.72 82.35"/>
      <g>
        <rect class="cls-1" x="40.08" y="242.04" width="6.6" height="18.92" transform="translate(-165.14 104.34) rotate(-45)"/>
        <rect class="cls-1" x="40.08" y="257.57" width="6.6" height="18.92" transform="translate(-176.11 108.89) rotate(-45)"/>
        <rect class="cls-1" x="40.08" y="273.09" width="6.6" height="18.92" transform="translate(-187.09 113.43) rotate(-45)"/>
        <rect class="cls-1" x="40.08" y="288.61" width="6.6" height="18.92" transform="translate(-198.07 117.98) rotate(-45)"/>
        <rect class="cls-1" x="40.08" y="304.14" width="6.6" height="18.92" transform="translate(-209.04 122.53) rotate(-45)"/>
        <rect class="cls-1" x="40.08" y="319.66" width="6.6" height="18.92" transform="translate(-220.02 127.07) rotate(-45)"/>
        <rect class="cls-1" x="40.08" y="335.19" width="6.6" height="18.92" transform="translate(-231 131.62) rotate(-45)"/>
      </g>
    </g>
  </g>
</svg>