<?xml version="1.0" encoding="UTF-8"?>
<svg id="_Слой_2" data-name="Слой 2" xmlns="http://www.w3.org/2000/svg" viewBox="0 0 525.56 1207.64">
  <defs>
    <style>
      .cls-1 {
        fill: #fff;
        stroke-width: 0px;
      }
    </style>
  </defs>
  <g id="_Слой_1-2" data-name="Слой 1">
    <g>
      <path class="cls-1" d="M383.54,1021.48h132.83c3.15,0,5.7-2.55,5.7-5.7s-2.55-5.7-5.7-5.7h-132.83c-3.15,0-5.7,2.55-5.7,5.7-.01,3.14,2.55,5.7,5.7,5.7Z"/>
      <path class="cls-1" d="M504.65,1164.83h-204.71c-11.53,0-20.91-9.38-20.91-20.91v-68.84c0-11.53,9.38-20.91,20.91-20.91h204.71c11.53,0,20.91,9.38,20.91,20.91v68.84c0,11.53-9.38,20.91-20.91,20.91ZM299.93,1065.57c-5.24,0-9.51,4.27-9.51,9.51v68.84c0,5.24,4.27,9.51,9.51,9.51h204.71c5.24,0,9.51-4.27,9.51-9.51v-68.84c0-5.24-4.27-9.51-9.51-9.51h-204.71Z"/>
      <g>
        <g>
          <path class="cls-1" d="M513.94,346.89H186.83c-3.18,0-5.75-2.86-5.75-6.4s2.57-6.4,5.75-6.4h327.11c3.17,0,5.75,2.86,5.75,6.4s-2.57,6.4-5.75,6.4Z"/>
          <path class="cls-1" d="M139.69,346.89H5.75c-3.18,0-5.75-2.86-5.75-6.4s2.57-6.4,5.75-6.4h133.95c3.18,0,5.75,2.86,5.75,6.4,0,3.53-2.58,6.4-5.76,6.4Z"/>
        </g>
        <path class="cls-1" d="M12.41,1021.48h324.38c3.15,0,5.7-2.55,5.7-5.7s-2.55-5.7-5.7-5.7H12.41c-3.15,0-5.7,2.55-5.7,5.7s2.55,5.7,5.7,5.7Z"/>
        <path class="cls-1" d="M13.27,1069.76h191.81c17.54,0,31.76,14.22,31.76,31.76v74.36c0,11.24,9.12,20.36,20.36,20.36h262.66c3.15,0,5.7,2.55,5.7,5.7h0c0,3.15-2.55,5.7-5.7,5.7h-262.66c-17.54,0-31.76-14.22-31.76-31.76v-74.36c0-11.24-9.12-20.36-20.36-20.36H13.27c-3.15,0-5.7-2.55-5.7-5.7h0c0-3.15,2.55-5.7,5.7-5.7Z"/>
        <g>
          <path class="cls-1" d="M265.16,163.49c-26.03,0-52.07-.1-78.1.05-9.04.05-17.93-1.17-26.86-2.22-5.16-.61-7.3-3.43-7.24-8.47.09-8.42.14-16.85-.01-25.27-.1-5.49,2.62-8.08,7.79-8.66,4.75-.54,9.49-1.27,14.26-1.59,2.73-.18,3.96-1.24,4.75-3.88,1.2-4.01,2.34-8.28,4.63-11.67,3.51-5.17,1.91-8.55-1.59-12.89-12.38-15.38-12.33-12.72,1.66-26.89,3.63-3.68,7.3-7.32,10.97-10.96,3.21-3.19,6.58-3.49,10.24-.68,4.99,3.83,9.72,9.89,15.18,10.68,5.16.75,11-4.51,16.79-6.32,3.8-1.19,5.14-3.02,5.33-6.8.24-4.76,1.06-9.5,1.74-14.24.57-4.02,3.05-6.08,7.06-6.11,9.19-.06,18.38-.05,27.56-.03,4.32.01,6.76,2.22,7.32,6.48.65,4.93,1.47,9.85,1.82,14.81.22,3.11,1.24,4.7,4.41,5.6,4.2,1.19,8.45,2.71,12.2,4.92,4.06,2.39,7.07,2.36,10.51-.99,3-2.92,6.57-5.25,9.87-7.87,3.53-2.8,6.98-2.9,10.25.36,6.38,6.34,12.72,12.72,19.08,19.09,3.44,3.45,3.37,6.99.37,10.71-3.13,3.87-6.03,7.93-9.27,11.69-1.8,2.09-1.82,3.8-.5,6.12,1.6,2.81,3.48,5.75,4,8.84,1.41,8.33,6.46,10.44,14.21,11.06,14.78,1.19,14.74,1.65,14.74,16.5,0,5.93-.09,11.87.02,17.8.09,4.99-1.92,8.02-7.11,8.61-7.79.88-15.51,2.25-23.4,2.24-27.55-.05-55.12-.01-82.68-.02ZM331.56,108.76c-.02-3.37-5.6-6.75-8.27-5.25-4.06,2.28-6.62,1.29-7.47-3.26-.61-3.27-2.94-2.99-5.22-2.98-2.29,0-4.44-.22-4.98,3.17-.65,4.06-3.67,5.39-7.04,3.19-2.92-1.91-4.38-.76-6.28,1.19-1.86,1.91-3.25,3.36-1.16,6.26,2.23,3.08,1.04,6.22-2.61,6.91-3.43.65-3.73,2.39-3.73,5.13s.15,4.71,3.54,5.37c3.82.74,5.01,3.68,2.87,6.76-1.99,2.86-.98,4.38,1.03,6.26,1.87,1.74,3.25,3.38,6.26,1.28,3.34-2.33,6.38-.9,7.07,3.06.56,3.21,2.28,3.45,4.78,3.44,2.55-.02,4.87.22,5.58-3.29.89-4.41,3.59-5.72,7.43-2.93,2.72,1.97,4.14.17,5.75-1.53,1.55-1.65,3.51-2.98,1.43-5.74-2.93-3.89-1.27-6.56,3.02-7.43,3.59-.73,3.12-3.12,3.23-5.6.11-2.61-.42-4.14-3.5-4.73-4.01-.76-4.95-3.59-3.06-7.21.43-.82,1-1.57,1.33-2.07ZM230.4,141.54c.58.24,1.42.35,1.9.83,2.58,2.53,4.48,1.57,6.72-.69,2.19-2.21,2.9-3.77.87-6.75-1.88-2.77-.52-5.75,2.94-6.42,3.3-.64,3.79-2.44,3.66-5.24-.12-2.54.1-4.56-3.51-5.3-3.73-.76-5.29-3.85-2.68-7.28,2.08-2.74.45-4.08-1.22-5.73-1.78-1.76-3.13-3.63-6.19-1.42-3.32,2.39-6.41,1.07-7.15-2.91-.6-3.25-2.44-3.35-4.86-3.37-2.58-.02-4.81-.1-5.55,3.38-.84,3.99-3.71,5.34-7.11,2.9-3.04-2.19-4.44-.24-6.24,1.47-1.75,1.67-3.15,3.06-1.11,5.75,2.61,3.43,1.05,6.47-2.69,7.26-3.41.73-3.68,2.45-3.72,5.19-.03,2.78.42,4.52,3.67,5.32,3.67.9,5.55,3.57,2.75,7.15-2.08,2.66-.52,4.05,1.15,5.75,1.8,1.83,3.27,3.61,6.23,1.41,3.11-2.31,6.07-1.18,6.9,2.44.79,3.46,2.52,4.14,5.61,4.09,2.88-.05,4.85-.54,4.92-3.96.09-2.83,2.78-2.78,4.71-3.87Z"/>
          <path class="cls-1" d="M344.12,172.21c-.11,3.87-1.97,6.64-3.67,9.29-2.01,3.14-1.55,5.38.84,8.04,3.31,3.69,6.01,7.95,9.36,11.6,2.77,3.02,2.15,5.1-.52,7.65-5.4,5.15-10.71,10.4-15.82,15.83-2.59,2.75-4.61,3.19-7.63.56-4.61-4.01-9.08-9.12-14.55-10.96-5.8-1.95-10.52,5.16-16.49,6-8.87,1.25-11.76,6.08-12.3,14.91-.82,13.27-1.58,13.22-14.89,13.22-4.59,0-9.21-.27-13.77.08-4.33.33-5.77-1.63-6.06-5.54-.35-4.76-1.15-9.5-1.48-14.26-.24-3.44-1.35-5.54-5.09-6.38-6.36-1.43-12.42-3.96-17.94-7.43-3.01-1.89-5.04-1.32-7.52.81-4.05,3.49-8.47,6.57-12.55,10.03-2.41,2.05-4.16,1.89-6.33-.36-5.57-5.79-11.2-11.53-17.02-17.07-2.56-2.44-2.39-4.36-.17-6.76,1.55-1.68,2.66-3.79,4.29-5.37,6.28-6.06,9.78-12.31,3.15-20.45-2-2.45-.52-3.57,2.39-3.52,6.89.12,13.78.14,20.66,0,2.46-.05,3.76,1.15,5.12,2.92,26.62,34.79,72.46,34.71,99.2-.15,1.05-1.37,1.91-2.76,4.02-2.74,8.22.1,16.42.05,24.77.05Z"/>
          <path class="cls-1" d="M125.58,11.58c.24-4.44,2.47-8.21,7.05-10.36,4.4-2.06,8.66-1.48,12.33,1.58,3.82,3.18,5.74,7.49,3.85,12.25-1.4,3.53-.56,5.31,2.18,7.57,8.98,7.42,17.55,15.32,26.58,22.67,3.57,2.9,1.33,4.26-.6,6.1-1.84,1.76-3.2,4.35-6.14.75-7.38-9-15.24-17.62-22.69-26.57-2.22-2.67-3.93-3.54-7.58-2.25-7.32,2.58-14.9-3.41-14.98-11.74Z"/>
          <path class="cls-1" d="M394.91.13c4.18.33,7.88,2.67,9.88,7.31,1.92,4.46,1.17,8.7-1.96,12.3-3.28,3.76-7.65,5.55-12.33,3.47-3.5-1.56-5.06-.22-7.07,2.16-7.51,8.89-15.36,17.5-22.69,26.53-3.13,3.85-4.45,1.16-6.58-.69-2.48-2.16-3.13-3.65-.09-6.17,9.12-7.53,17.91-15.45,26.97-23.07,2.19-1.84,2.76-3.21,1.72-6.17-2.83-8.09,3.02-15.87,12.15-15.67Z"/>
          <path class="cls-1" d="M323.63,123.4c-.13,7.29-6.08,12.94-13.36,12.69-7.04-.25-12.55-6.04-12.42-13.05.14-7.31,6.02-12.9,13.36-12.68,7,.21,12.54,6.03,12.42,13.04Z"/>
          <path class="cls-1" d="M220.78,136.07c-7.35.04-13.19-5.74-13.08-12.97.11-7.12,5.65-12.67,12.73-12.75,7.32-.08,13.15,5.71,13.06,12.96-.08,7.09-5.69,12.72-12.71,12.76Z"/>
        </g>
        <g>
          <path class="cls-1" d="M347.24,959.35c-13.49-6.98-23.8-16.42-24.28-32.88-.43-14.67,6-25.87,19.01-32.44,5.07-2.56,6.28-5.49,6.25-10.65-.2-30.64,0-61.29-.2-91.94-.04-6.16,1.61-10.93,5.98-15.5,15.57-16.3,30.74-32.98,46.11-49.49,2.38-2.56,4.47-4.92,4.46-8.92-.12-56.66-.08-113.31-.08-172.51-9.26,8.43-17.26,15.53-25,22.91-2.01,1.91-.97,4.98-.98,7.52-.05,24,.02,47.99-.03,71.99-.02,9.96-2.37,12.41-12.19,12.53-11.85.14-23.72.36-35.56-.11-6.64-.26-8.93,1.56-8.81,8.61.43,25.72.19,51.46.16,77.19-.01,12.15-2,14.13-14.05,14.16-12.14.03-24.29.17-36.43-.08-4.5-.09-6.01,1.3-5.97,5.89.2,22.55.33,45.11-.06,67.65-.1,5.51,3.14,6.42,6.75,8.3,12.58,6.56,19.52,16.93,19.5,31.32-.02,14.34-6.75,24.93-19.44,31.35-17.17,8.67-38.16,1.43-46.58-15.7-8.56-17.4-2.12-38.19,15.43-46.52,6.16-2.92,7.35-6.31,7.25-12.39-.35-20.23-.58-40.49.08-60.7.27-8.04-2.38-9.5-9.7-9.29-18.49.52-37,.22-55.51.16-10.79-.03-13.07-2.37-13.08-13.37-.03-43.95-.08-87.89.09-131.84.02-5.02-1.31-8.56-5.1-12-13.64-12.39-26.94-25.15-40.47-37.86-2.68,2.55-1.61,5.29-1.62,7.67-.07,49.44.04,98.88-.18,148.32-.02,5.46,1.78,9.06,5.61,12.72,17.35,16.57,34.27,33.59,51.69,50.09,5.22,4.95,7.59,10.06,7.49,17.39-.39,27.75-.15,55.51-.16,83.26,0,3.72-.33,6.97,4.38,9.02,13.83,6.03,20.98,17.28,20.81,32.15s-7.76,25.66-21.42,31.96c-1.3.6-2.52,1.35-3.78,2.04h-20.82c-.56-.58-1.01-1.39-1.7-1.7-14.3-6.52-22.28-17.66-22.07-33.3.21-15.7,8.49-26.76,23.26-32.24,4.74-1.76,3.95-5.01,3.96-8.31.04-26.3-.07-52.61.12-78.91.03-4.71-1.32-8.06-4.74-11.34-18.14-17.41-35.98-35.13-54.12-52.55-4.06-3.9-5.84-8.03-5.83-13.7.14-60.12.1-120.24.06-180.36,0-4.78.03-9.47,5.19-11.82,5.23-2.37,8.68.83,12.16,4.11,19.34,18.25,38.63,36.54,58.18,54.56,4.64,4.28,6.52,8.84,6.49,15.15-.22,41.91-.01,83.82-.24,125.73-.03,5.82,1.21,7.99,7.53,7.93,34.1-.31,68.22-.32,102.32,0,6.42.06,7.6-2.29,7.53-8-.27-21.96-.34-43.94.01-65.9.11-6.66-1.62-8.96-8.66-8.82-23.4.45-46.82.25-70.23.13-9.89-.05-12.29-2.54-12.33-12.38-.09-21.39-.16-42.78.04-64.17.05-4.69-1.29-8.11-4.68-11.38-10.2-9.82-19.2-21.12-30.32-29.7-20.77-16.04-30.63-35.64-25.86-61.91.96-5.32-.81-8.5-6.36-11.19-12.83-6.22-19.24-17.48-18.73-31.67.51-14.15,7.69-24.51,20.78-30.47,2.06-.94,4.06-2.02,6.09-3.04h15.62c2.01,1.03,3.99,2.11,6.03,3.09,13.21,6.36,20.41,16.81,20.49,31.51.08,14.71-6.87,25.66-20.27,31.51-5.34,2.32-5.75,5.31-6.46,10.28-2.91,20.34,3.68,35.67,19.89,48.66,13,10.42,23.81,23.54,35.8,35.24,3.81,3.72,5.42,7.73,5.36,13.04-.22,19.07.1,38.15-.21,57.22-.09,5.66.92,8.17,7.4,8.12,38.72-.27,77.45-.21,116.17.02,5.45.03,6.81-1.76,6.75-6.95-.25-21.96.12-43.93-.23-65.88-.11-6.72,2.11-11.37,7.13-15.69,12.26-10.55,24.12-21.57,36.15-32.38,3.47-3.12,6.93-6.59,12.19-4.19,5.05,2.3,5.43,6.83,5.43,11.7-.07,63.87-.09,127.73.03,191.6.01,5.3-1.58,9.32-5.19,13.15-15.47,16.39-30.62,33.07-46.12,49.43-3.63,3.83-5.24,7.72-5.2,13.05.22,28.9.11,57.8.08,86.69,0,4.13.07,7.33,5.2,9.37,13.88,5.55,21.52,16.31,21.89,31.37.38,15.45-7.17,26.31-20.91,33.06-1.26.62-2.4,1.47-3.6,2.22-6.94,0-13.88,0-20.82,0ZM274.51,872.71c-.05-9.88-7.76-17.54-17.55-17.42-9.71.11-17.5,8.02-17.43,17.69.08,9.85,7.8,17.44,17.62,17.33,9.93-.11,17.41-7.7,17.36-17.6ZM180.24,439c.03-9.68-7.89-17.51-17.65-17.44-9.75.07-17.58,7.92-17.54,17.6.03,9.75,7.92,17.55,17.62,17.46,9.74-.1,17.53-7.91,17.57-17.62ZM160.24,924.83c0,9.67,7.88,17.54,17.58,17.58,9.76.04,17.54-7.66,17.66-17.45.11-9.79-7.66-17.64-17.44-17.61-9.58.02-17.81,8.1-17.8,17.48ZM375.27,924.37c-.18-9.76-8.24-17.42-17.93-17.05-9.68.38-17.39,8.55-17.07,18.1.32,9.78,8.28,17.28,18.05,16.99,9.8-.28,17.13-8.07,16.95-18.04Z"/>
          <path class="cls-1" d="M465.23,404.13c3.57,4.15,4.35,8.97,4.34,14.36-.09,105.7-.11,211.4.11,317.09.02,7.55-2.3,13-7.48,18.37-18.04,18.7-35.59,37.87-53.5,56.71-3,3.16-3.74,6.49-4.39,10.68-3.38,21.58,3.04,38.77,21.07,51.49,7.51,5.3,9.54,12.73,9.18,21.89-.67,17.3-.35,34.65-.12,51.97.07,5.32-1.02,9.67-5.65,12.66h-6.94c-3.93-3.91-5.02-8.61-4.94-14.11.25-16.46-.05-32.94.14-49.4.06-4.64-.7-8.59-4.62-11.37-21.57-15.32-29.05-35.9-25.75-62.07,1.22-9.66,2.86-17.31,9.93-24.44,17.07-17.23,33.27-35.33,50.08-52.83,4.11-4.28,5.66-8.68,5.66-14.59-.15-103.72-.08-207.45-.16-311.17,0-5.63.45-10.85,4.36-15.23,2.89-.01,5.79-.01,8.68-.01Z"/>
          <path class="cls-1" d="M74.84,404.13c3.81,4.4,4.4,9.55,4.39,15.21-.11,103.43-.03,206.87-.2,310.3-.01,6.51,1.72,11.32,6.31,16.09,18.03,18.73,35.54,37.95,53.47,56.78,3.88,4.07,6.05,8.3,5.45,13.9-.09.86-.12,1.75,0,2.6,4.12,27.05-2.35,49.91-25.94,66.1-3.45,2.36-4.04,5.88-4,9.9.15,16.76-.12,33.52.17,50.27.1,5.52-1.05,10.17-4.95,14.08h-6.94c-4.19-2.84-5.69-6.69-5.63-11.8.21-19.63.15-39.27-.01-58.91-.04-4.68,1.3-8.42,4.79-11.51,1.73-1.53,3.04-3.59,4.91-4.87,18.19-12.45,23.41-29.87,20.41-50.92-.6-4.21-1.41-7.52-4.41-10.68-18.09-19.06-35.85-38.42-54.04-57.38-4.73-4.93-6.88-9.94-6.86-16.85.18-105.98.15-211.97.04-317.95-.01-5.41.86-10.19,4.38-14.35,2.87,0,5.77,0,8.66,0Z"/>
          <path class="cls-1" d="M295.68,621.02c-8.96,0-17.92-.13-26.87.04-7.83.15-11.9-3.12-11.82-11.27.13-13,.04-26,.03-39.01,0-6.08,2.56-10.43,9.01-10.25,5.93.16,8.35,4.38,8.34,10.07-.01,8.96.26,17.92-.1,26.87-.2,5.07,1.72,6.42,6.5,6.28,10.1-.29,20.23-.38,30.33.03,5.48.22,6.84-1.72,6.75-6.94-.3-16.75.04-33.52-.19-50.27-.07-5.39,1.66-9.34,5.79-12.76,7.56-6.27,14.64-13.12,22.33-19.22,4.95-3.93,7.77-8.17,6.72-14.68-.41-2.53-.33-5.22-.02-7.78.86-6.97-.98-11.06-8.34-14.25-14.49-6.27-21.5-22.92-17.99-38.44,3.53-15.64,16.89-26.62,32.86-27.04,16.54-.43,30.76,9.98,34.93,25.57,4.12,15.38-2.24,32.02-16.44,39.18-6.62,3.34-8.86,7.28-7.7,13.95,3.2,18.41-2.93,32.53-19.13,42.14-13.01,7.72-17.42,18.86-15.87,34,1.4,13.73.37,27.71.26,41.58-.07,9.58-2.74,12.12-12.52,12.2-8.95.05-17.9,0-26.86,0ZM360.04,429.75c-9.77.1-17.54,7.89-17.55,17.62-.01,9.61,8.02,17.53,17.7,17.45,9.63-.08,17.61-8.11,17.57-17.68-.05-9.68-8-17.49-17.72-17.39Z"/>
        </g>
      </g>
    </g>
  </g>
</svg>