<?xml version="1.0" encoding="UTF-8"?>
<svg id="_Слой_2" data-name="Слой 2" xmlns="http://www.w3.org/2000/svg" viewBox="0 0 429.13 125.87">
  <defs>
    <style>
      .cls-1 {
        isolation: isolate;
      }

      .cls-2 {
        fill: #fff;
        stroke-width: 0px;
      }
    </style>
  </defs>
  <g id="_Слой_1-2" data-name="Слой 1">
    <g>
      <g class="cls-1">
        <path class="cls-2" d="M.24,1.02h19.72v87.6H.24V1.02Z"/>
        <path class="cls-2" d="M111.1,1.02v16.81h-26.42v70.79h-19.72V17.83h-26.42V1.02h72.56Z"/>
        <path class="cls-2" d="M218.79,1.02h19.72v87.6h-19.72v-37.16h-33.12v37.16h-19.72V1.02h19.72v33.5h33.12V1.02Z"/>
        <path class="cls-2" d="M298.94,90.39c-6.15,0-11.46-.87-15.93-2.59-4.47-1.73-8.15-4.13-11.06-7.21s-5.06-6.74-6.45-11c-1.39-4.25-2.08-8.95-2.08-14.09V1.02h19.72v52.84c0,3.54.4,6.55,1.2,9.04s1.9,4.51,3.29,6.07c1.39,1.56,3.07,2.68,5.06,3.35,1.98.68,4.15,1.01,6.51,1.01,4.8,0,8.7-1.47,11.69-4.42s4.49-7.96,4.49-15.04V1.03h19.72v54.48c0,5.14-.72,9.86-2.15,14.16-1.43,4.3-3.62,7.99-6.57,11.06-2.95,3.08-6.7,5.46-11.25,7.14-4.56,1.68-9.96,2.52-16.19,2.52Z"/>
        <path class="cls-2" d="M389.19,89.76c-4.8,0-9.59-.15-14.35-.44-4.76-.3-9.71-.99-14.85-2.09V2.28c4.05-.76,8.47-1.33,13.27-1.71,4.8-.38,9.27-.57,13.4-.57,5.56,0,10.68.4,15.36,1.2s8.7,2.17,12.07,4.11,6,4.49,7.9,7.65,2.84,7.06,2.84,11.69c0,7-3.37,12.51-10.11,16.56,5.56,2.11,9.35,4.97,11.38,8.6,2.02,3.62,3.03,7.71,3.03,12.26,0,9.19-3.35,16.1-10.05,20.73-6.7,4.64-16.66,6.96-29.89,6.96ZM379.2,35.4h9.61c6.07,0,10.41-.78,13.02-2.34,2.61-1.56,3.92-4.06,3.92-7.52s-1.35-6.02-4.04-7.46c-2.7-1.43-6.66-2.15-11.88-2.15-1.69,0-3.5.02-5.44.06s-3.67.15-5.18.32v19.09h-.01ZM379.2,50.44v22.63c1.43.17,2.99.3,4.68.38,1.68.08,3.54.13,5.56.13,5.9,0,10.66-.84,14.29-2.53,3.62-1.69,5.44-4.8,5.44-9.35,0-4.04-1.52-6.93-4.55-8.66-3.03-1.73-7.38-2.59-13.02-2.59h-12.4Z"/>
      </g>
      <g class="cls-1">
        <path class="cls-2" d="M13.4,125.51c-.19-.6-.4-1.22-.62-1.86s-.44-1.27-.66-1.9h-6.78c-.22.63-.44,1.27-.66,1.9-.22.64-.43,1.25-.62,1.85H0c.65-1.87,1.27-3.6,1.86-5.18.59-1.59,1.16-3.08,1.72-4.48s1.11-2.73,1.66-3.99c.54-1.26,1.11-2.49,1.7-3.69h3.7c.57,1.2,1.13,2.43,1.69,3.69.55,1.26,1.11,2.59,1.67,3.99.56,1.4,1.14,2.9,1.72,4.48s1.21,3.31,1.86,5.18h-4.18ZM8.71,112.09c-.09.25-.21.59-.38,1.03-.17.43-.36.94-.57,1.5s-.45,1.19-.72,1.88c-.26.68-.53,1.4-.81,2.15h4.96c-.27-.75-.52-1.47-.77-2.16s-.49-1.31-.71-1.88-.42-1.07-.59-1.5-.31-.77-.41-1.02Z"/>
        <path class="cls-2" d="M32.38,122.16v3.35h-11.59v-17.35h3.91v14h7.68Z"/>
        <path class="cls-2" d="M40.72,108.16c.3.55.65,1.23,1.04,2.04s.8,1.69,1.23,2.63c.43.94.85,1.91,1.27,2.89.42.98.81,1.91,1.18,2.78.37-.87.76-1.79,1.18-2.78.42-.99.84-1.95,1.27-2.89s.84-1.82,1.23-2.63.74-1.49,1.04-2.04h3.56c.17,1.15.32,2.44.46,3.87s.27,2.91.38,4.46c.11,1.54.21,3.09.3,4.64.09,1.55.17,3.01.24,4.38h-3.81c-.05-1.69-.12-3.52-.2-5.51-.08-1.99-.21-3.99-.38-6.01-.3.7-.64,1.48-1,2.33s-.73,1.7-1.09,2.55c-.36.85-.71,1.67-1.04,2.44-.33.78-.62,1.44-.85,1.99h-2.73c-.23-.55-.52-1.21-.85-1.99-.33-.78-.68-1.59-1.04-2.44s-.72-1.7-1.09-2.55c-.37-.85-.7-1.63-1-2.33-.17,2.02-.29,4.02-.38,6.01-.08,1.99-.15,3.82-.2,5.51h-3.81c.07-1.37.15-2.83.24-4.38.09-1.55.19-3.1.3-4.64s.23-3.03.38-4.46c.14-1.43.3-2.72.46-3.87h3.71Z"/>
        <path class="cls-2" d="M71.18,125.51c-.19-.6-.4-1.22-.62-1.86s-.44-1.27-.66-1.9h-6.78c-.22.63-.44,1.27-.66,1.9-.22.64-.43,1.25-.62,1.85h-4.06c.65-1.87,1.27-3.6,1.86-5.18.59-1.59,1.16-3.08,1.72-4.48s1.11-2.73,1.66-3.99c.54-1.26,1.11-2.49,1.7-3.69h3.7c.57,1.2,1.13,2.43,1.69,3.69.55,1.26,1.11,2.59,1.67,3.99.56,1.4,1.14,2.9,1.72,4.48s1.21,3.31,1.86,5.18h-4.18ZM66.49,112.09c-.09.25-.21.59-.38,1.03-.17.43-.36.94-.57,1.5s-.45,1.19-.72,1.88c-.26.68-.53,1.4-.81,2.15h4.96c-.27-.75-.52-1.47-.77-2.16s-.49-1.31-.71-1.88-.42-1.07-.59-1.5-.31-.77-.41-1.02Z"/>
        <path class="cls-2" d="M89.39,108.16v3.33h-5.23v14.02h-3.91v-14.02h-5.23v-3.33h14.37Z"/>
        <path class="cls-2" d="M100.07,115.28c.7-1.18,1.37-2.36,2.01-3.54.64-1.18,1.22-2.37,1.75-3.57h4.31c-.95,1.87-1.94,3.68-2.95,5.43-1.02,1.75-2.09,3.51-3.23,5.28v6.63h-3.91v-6.58c-1.14-1.77-2.22-3.54-3.24-5.31-1.03-1.77-2.02-3.59-2.97-5.46h4.53c.53,1.2,1.11,2.39,1.73,3.57.61,1.19,1.27,2.37,1.97,3.55Z"/>
        <path class="cls-2" d="M123.44,107.96c2.59,0,4.57.46,5.96,1.36,1.39.91,2.08,2.4,2.08,4.47s-.7,3.59-2.1,4.52-3.41,1.39-6.01,1.39h-1.23v5.81h-3.91v-17.1c.85-.17,1.75-.28,2.7-.35.95-.06,1.79-.1,2.51-.1ZM123.69,111.29c-.28,0-.56.01-.84.02-.28.02-.51.03-.71.05v5.01h1.23c1.35,0,2.37-.18,3.05-.55s1.03-1.05,1.03-2.05c0-.48-.09-.88-.26-1.2-.18-.32-.43-.57-.75-.76-.33-.19-.72-.33-1.19-.4s-1-.12-1.56-.12Z"/>
        <path class="cls-2" d="M151.85,116.83c0,1.49-.22,2.79-.66,3.92s-1.05,2.07-1.81,2.83c-.77.76-1.68,1.33-2.74,1.71s-2.2.58-3.42.58-2.3-.19-3.35-.58c-1.05-.38-1.97-.96-2.75-1.71-.79-.76-1.4-1.7-1.85-2.83s-.68-2.43-.68-3.92.23-2.79.7-3.92,1.1-2.07,1.89-2.84,1.71-1.34,2.75-1.73c1.04-.38,2.14-.58,3.29-.58s2.3.19,3.35.58c1.05.38,1.97.96,2.75,1.73.78.77,1.4,1.72,1.85,2.84.46,1.12.68,2.43.68,3.92ZM138.61,116.83c0,.85.1,1.62.31,2.3s.51,1.27.9,1.77c.39.49.87.87,1.44,1.14.57.27,1.22.4,1.95.4s1.36-.13,1.94-.4c.58-.27,1.06-.65,1.45-1.14.39-.49.69-1.08.9-1.77.21-.68.31-1.45.31-2.3s-.1-1.62-.31-2.32c-.21-.69-.51-1.29-.9-1.78-.39-.49-.88-.87-1.45-1.14-.58-.27-1.22-.4-1.94-.4s-1.39.14-1.95.41-1.05.66-1.44,1.15-.69,1.08-.9,1.78c-.21.7-.31,1.46-.31,2.3Z"/>
        <path class="cls-2" d="M167.68,122.16v3.35h-11.59v-17.35h3.91v14h7.68Z"/>
        <path class="cls-2" d="M175.01,115.28c.7-1.18,1.37-2.36,2.01-3.54.64-1.18,1.22-2.37,1.75-3.57h4.31c-.95,1.87-1.94,3.68-2.95,5.43-1.02,1.75-2.09,3.51-3.23,5.28v6.63h-3.91v-6.58c-1.14-1.77-2.22-3.54-3.24-5.31-1.03-1.77-2.02-3.59-2.97-5.46h4.53c.53,1.2,1.11,2.39,1.73,3.57.61,1.19,1.27,2.37,1.97,3.55Z"/>
        <path class="cls-2" d="M199.9,108.16v3.33h-5.23v14.02h-3.91v-14.02h-5.23v-3.33h14.37Z"/>
        <path class="cls-2" d="M203.38,125.51v-17.35h11.72v3.28h-7.81v3.4h6.93v3.21h-6.93v4.18h8.39v3.28h-12.3Z"/>
        <path class="cls-2" d="M227.44,125.86c-2.82,0-4.97-.78-6.45-2.35-1.48-1.57-2.22-3.8-2.22-6.68,0-1.44.23-2.72.68-3.84.45-1.13,1.07-2.08,1.85-2.85.78-.78,1.72-1.37,2.8-1.77s2.26-.6,3.53-.6c.73,0,1.4.05,2,.16.6.11,1.13.23,1.58.38.45.14.83.29,1.13.44s.52.27.65.35l-1.13,3.15c-.54-.28-1.16-.53-1.87-.73s-1.51-.3-2.42-.3c-.6,0-1.19.1-1.77.3-.58.2-1.08.52-1.53.96s-.8,1.01-1.06,1.71c-.27.7-.4,1.55-.4,2.55,0,.8.09,1.55.26,2.24s.46,1.29.85,1.79c.39.5.91.9,1.54,1.19s1.4.44,2.3.44c.57,0,1.08-.03,1.53-.1s.85-.15,1.2-.24.66-.2.93-.31c.27-.12.51-.22.73-.33l1.08,3.13c-.55.33-1.33.63-2.33.9-.98.28-2.14.41-3.46.41Z"/>
        <path class="cls-2" d="M247.19,108.16h3.91v17.35h-3.91v-7.36h-6.56v7.36h-3.91v-17.35h3.91v6.63h6.56v-6.63Z"/>
        <path class="cls-2" d="M267.72,125.51c-1.12-1.99-2.33-3.95-3.63-5.88-1.3-1.94-2.69-3.76-4.16-5.48v11.37h-3.86v-17.35h3.18c.55.55,1.16,1.23,1.83,2.03.67.8,1.35,1.66,2.04,2.57s1.38,1.85,2.07,2.83c.68.98,1.33,1.92,1.93,2.82v-10.24h3.88v17.35h-3.28v-.02Z"/>
        <path class="cls-2" d="M275.99,108.16h3.91v17.35h-3.91v-17.35Z"/>
        <path class="cls-2" d="M292.79,125.86c-2.82,0-4.97-.78-6.45-2.35-1.48-1.57-2.22-3.8-2.22-6.68,0-1.44.22-2.72.68-3.84.45-1.13,1.07-2.08,1.85-2.85.78-.78,1.72-1.37,2.8-1.77s2.26-.6,3.53-.6c.73,0,1.4.05,2,.16.6.11,1.13.23,1.58.38.45.14.83.29,1.13.44s.52.27.65.35l-1.13,3.15c-.53-.28-1.16-.53-1.87-.73s-1.51-.3-2.42-.3c-.6,0-1.19.1-1.76.3-.58.2-1.09.52-1.53.96s-.8,1.01-1.06,1.71-.4,1.55-.4,2.55c0,.8.09,1.55.26,2.24.18.69.46,1.29.85,1.79.39.5.91.9,1.54,1.19s1.4.44,2.3.44c.57,0,1.08-.03,1.53-.1s.85-.15,1.2-.24.66-.2.93-.31c.27-.12.51-.22.73-.33l1.08,3.13c-.55.33-1.33.63-2.33.9-1,.28-2.16.41-3.47.41Z"/>
        <path class="cls-2" d="M316.97,125.86c-2.82,0-4.97-.78-6.45-2.35-1.48-1.57-2.22-3.8-2.22-6.68,0-1.44.23-2.72.68-3.84.45-1.13,1.07-2.08,1.85-2.85.78-.78,1.72-1.37,2.8-1.77s2.26-.6,3.53-.6c.73,0,1.4.05,2,.16.6.11,1.13.23,1.58.38.45.14.83.29,1.13.44s.52.27.65.35l-1.13,3.15c-.53-.28-1.16-.53-1.87-.73s-1.51-.3-2.42-.3c-.6,0-1.19.1-1.76.3-.58.2-1.08.52-1.53.96s-.8,1.01-1.06,1.71c-.27.7-.4,1.55-.4,2.55,0,.8.09,1.55.26,2.24.18.69.46,1.29.85,1.79.39.5.91.9,1.54,1.19s1.4.44,2.3.44c.57,0,1.08-.03,1.53-.1s.85-.15,1.2-.24.66-.2.93-.31c.27-.12.51-.22.73-.33l1.08,3.13c-.55.33-1.33.63-2.33.9-.99.28-2.15.41-3.47.41Z"/>
        <path class="cls-2" d="M342.16,116.83c0,1.49-.22,2.79-.66,3.92s-1.05,2.07-1.82,2.83c-.77.76-1.68,1.33-2.74,1.71s-2.2.58-3.42.58-2.3-.19-3.36-.58c-1.05-.38-1.97-.96-2.75-1.71-.78-.76-1.4-1.7-1.85-2.83-.45-1.13-.68-2.43-.68-3.92s.23-2.79.7-3.92c.47-1.13,1.1-2.07,1.89-2.84.79-.77,1.71-1.34,2.75-1.73,1.04-.38,2.14-.58,3.29-.58s2.3.19,3.35.58c1.05.38,1.97.96,2.75,1.73.78.77,1.4,1.72,1.85,2.84.47,1.12.7,2.43.7,3.92ZM328.91,116.83c0,.85.1,1.62.31,2.3s.51,1.27.9,1.77c.39.49.87.87,1.44,1.14.57.27,1.22.4,1.95.4s1.36-.13,1.94-.4,1.06-.65,1.45-1.14c.39-.49.69-1.08.9-1.77.21-.68.31-1.45.31-2.3s-.1-1.62-.31-2.32c-.21-.69-.51-1.29-.9-1.78s-.88-.87-1.45-1.14c-.58-.27-1.22-.4-1.94-.4s-1.39.14-1.95.41-1.05.66-1.44,1.15-.69,1.08-.9,1.78-.31,1.46-.31,2.3Z"/>
        <path class="cls-2" d="M357.98,122.16v3.35h-11.59v-17.35h3.91v14h7.68Z"/>
        <path class="cls-2" d="M373.05,122.16v3.35h-11.59v-17.35h3.91v14h7.68Z"/>
        <path class="cls-2" d="M376.53,125.51v-17.35h11.72v3.28h-7.81v3.4h6.93v3.21h-6.93v4.18h8.39v3.28h-12.3Z"/>
        <path class="cls-2" d="M401.14,111.17c-1.82,0-3.13.5-3.94,1.51s-1.21,2.39-1.21,4.14c0,.85.1,1.62.3,2.32.2.69.5,1.29.9,1.79s.9.89,1.5,1.16,1.3.41,2.1.41c.43,0,.8-.01,1.11-.02.31-.02.58-.05.81-.1v-6.03h3.91v8.59c-.47.18-1.22.38-2.25.59-1.04.21-2.31.31-3.83.31-1.3,0-2.48-.2-3.54-.6s-1.97-.98-2.72-1.75-1.33-1.71-1.74-2.83-.61-2.39-.61-3.83.23-2.74.68-3.86,1.07-2.07,1.85-2.84c.78-.78,1.71-1.37,2.77-1.77s2.19-.6,3.39-.6c.82,0,1.56.05,2.22.16.66.11,1.23.23,1.7.38.48.14.87.29,1.18.44s.53.27.66.35l-1.13,3.13c-.53-.28-1.15-.53-1.84-.74-.69-.21-1.45-.31-2.27-.31Z"/>
        <path class="cls-2" d="M411.23,125.51v-17.35h11.72v3.28h-7.81v3.4h6.93v3.21h-6.93v4.18h8.39v3.28h-12.3Z"/>
      </g>
    </g>
  </g>
</svg>