<?xml version="1.0" encoding="UTF-8"?>
<svg id="_Слой_2" data-name="Слой 2" xmlns="http://www.w3.org/2000/svg" viewBox="0 0 402.13 622.94">
  <defs>
    <style>
      .cls-1 {
        fill: #fff;
        stroke-width: 0px;
      }
    </style>
  </defs>
  <g id="_Слой_1-2" data-name="Слой 1">
    <g>
      <path class="cls-1" d="M305.51,253.31h96.62v369.63H0v-79.97l33.64-33.64h166.45l59.89-59.89v-88.77l23.78-23.78v-61.83l21.75-21.75ZM395.53,259.91h-87.28l-17.88,17.88v61.83l-23.78,23.78v88.77l-63.76,63.76H36.38l-29.77,29.77v70.63h388.92v-356.42Z"/>
      <polygon class="cls-1" points="274.88 480.19 229.01 526.06 274.88 526.06 274.88 480.19"/>
      <polygon class="cls-1" points="319.54 0 321.6 0 321.6 152.05 342.73 173.18 342.73 376.46 399.56 433.28 398.1 434.74 340.67 377.31 340.67 174.03 319.54 152.9 319.54 0"/>
      <polygon class="cls-1" points="340.97 342.91 342.43 344.37 315.96 370.85 315.96 503.55 292.58 526.92 292.58 549.52 328.34 585.27 328.34 619.64 326.27 619.64 326.27 586.13 290.52 550.37 290.52 526.07 313.89 502.7 313.89 369.99 340.97 342.91"/>
      <polygon class="cls-1" points="372.13 435.99 398.83 435.99 398.83 438.05 372.99 438.05 348.06 462.98 348.06 545.05 317.36 575.75 315.9 574.29 346 544.19 346 462.12 372.13 435.99"/>
      <polygon class="cls-1" points="301.9 560.3 303.36 561.76 288.27 576.84 154.8 576.84 113.57 618.07 112.11 616.61 153.95 574.78 287.42 574.78 301.9 560.3"/>
      <polygon class="cls-1" points="81.41 540.59 291.55 540.59 291.55 542.66 82.27 542.66 54.62 570.3 3.3 570.3 3.3 568.24 53.77 568.24 81.41 540.59"/>
      <g>
        <rect class="cls-1" x="355.4" y="361.99" width="6.6" height="18.92" transform="translate(-157.59 362.43) rotate(-45)"/>
        <rect class="cls-1" x="355.4" y="346.46" width="6.6" height="18.92" transform="translate(-146.61 357.88) rotate(-45)"/>
        <rect class="cls-1" x="355.4" y="330.94" width="6.6" height="18.92" transform="translate(-135.64 353.34) rotate(-45)"/>
        <rect class="cls-1" x="355.4" y="315.42" width="6.6" height="18.92" transform="translate(-124.66 348.79) rotate(-45)"/>
        <rect class="cls-1" x="355.4" y="299.88" width="6.6" height="18.92" transform="translate(-113.67 344.24) rotate(-45)"/>
        <rect class="cls-1" x="355.4" y="284.37" width="6.6" height="18.92" transform="translate(-102.71 339.7) rotate(-45)"/>
        <rect class="cls-1" x="355.41" y="268.83" width="6.6" height="18.92" transform="translate(-91.72 335.16) rotate(-45)"/>
      </g>
    </g>
  </g>
</svg>