<svg xmlns="http://www.w3.org/2000/svg" viewBox="0 0 569.01 120.03"><defs><style>.cls-1{fill:#fff;}</style></defs><g id="Слой_2" data-name="Слой 2"><g id="Слой_1-2" data-name="Слой 1"><path class="cls-1" d="M1,35.3H11.75V83.09H1V35.3Z"/><path class="cls-1" d="M61.68,35.3v9.17H47.27V83.09H36.51V44.47H22.1V35.3Z"/><path class="cls-1" d="M120.84,35.3H131.6V83.09H120.84V62.82H102.77V83.09H92V35.3h10.76V53.57h18.07Z"/><path class="cls-1" d="M164.77,84.06a24.13,24.13,0,0,1-8.69-1.41,16,16,0,0,1-6-3.93,15.71,15.71,0,0,1-3.52-6A24.58,24.58,0,0,1,145.39,65V35.3h10.76V64.13a16.07,16.07,0,0,0,.66,4.93,9.07,9.07,0,0,0,1.79,3.31,6.44,6.44,0,0,0,2.76,1.83,10.88,10.88,0,0,0,3.55.55,8.69,8.69,0,0,0,6.38-2.41c1.63-1.61,2.45-4.34,2.45-8.21V35.3H184.5V65a24.32,24.32,0,0,1-1.17,7.72,15.74,15.74,0,0,1-3.59,6,16,16,0,0,1-6.14,3.9A25.22,25.22,0,0,1,164.77,84.06Z"/><path class="cls-1" d="M214.21,83.71q-3.93,0-7.83-.24a54.73,54.73,0,0,1-8.1-1.14V36a70.81,70.81,0,0,1,7.24-.93q3.93-.31,7.31-.31a50.56,50.56,0,0,1,8.38.65,19.9,19.9,0,0,1,6.59,2.24,11.75,11.75,0,0,1,4.31,4.17,12.23,12.23,0,0,1,1.55,6.38q0,5.73-5.52,9,4.55,1.72,6.21,4.69A13.55,13.55,0,0,1,236,68.6q0,7.52-5.48,11.31T214.21,83.71Zm-5.45-29.65H214c3.31,0,5.68-.42,7.1-1.28a4.43,4.43,0,0,0,2.14-4.1A4.22,4.22,0,0,0,221,44.61a14.19,14.19,0,0,0-6.48-1.17l-3,0c-1.06,0-2,.08-2.83.17V54.06Zm0,8.21V74.61q1.17.14,2.55.21c.92.05,1.93.07,3,.07a18.59,18.59,0,0,0,7.79-1.38c2-.92,3-2.62,3-5.1a5,5,0,0,0-2.48-4.72,14.55,14.55,0,0,0-7.1-1.41h-6.75Z"/><path class="cls-1" d="M5.27,101.92a11,11,0,0,1,6,1.38,5,5,0,0,1,2.1,4.52,5.07,5.07,0,0,1-2.13,4.57,11,11,0,0,1-6.08,1.4H4v5.87H0V102.38A20.74,20.74,0,0,1,2.73,102C3.7,102,4.55,101.92,5.27,101.92Zm.26,3.37c-.29,0-.57,0-.85,0l-.72.05v5.06H5.2a6.73,6.73,0,0,0,3.09-.56,2.14,2.14,0,0,0,1-2.08,2.5,2.5,0,0,0-.27-1.22,2,2,0,0,0-.76-.77,3.61,3.61,0,0,0-1.2-.41A12.57,12.57,0,0,0,5.53,105.29Z"/><path class="cls-1" d="M48.21,110.89a10.74,10.74,0,0,1-.67,4,8.15,8.15,0,0,1-1.84,2.86,7.58,7.58,0,0,1-2.77,1.74,10,10,0,0,1-3.46.58,9.74,9.74,0,0,1-3.39-.58,7.79,7.79,0,0,1-2.78-1.74,8.08,8.08,0,0,1-1.87-2.86,10.53,10.53,0,0,1-.68-4,10.33,10.33,0,0,1,.71-4,8.34,8.34,0,0,1,1.91-2.87,7.85,7.85,0,0,1,2.78-1.75,9.52,9.52,0,0,1,3.33-.58,9.74,9.74,0,0,1,3.39.58,7.8,7.8,0,0,1,2.79,1.75,8.21,8.21,0,0,1,1.87,2.87A10.66,10.66,0,0,1,48.21,110.89Zm-13.39,0a8,8,0,0,0,.32,2.33,5.3,5.3,0,0,0,.91,1.79,4,4,0,0,0,1.46,1.15,4.94,4.94,0,0,0,3.94,0A4,4,0,0,0,42.92,115a5.21,5.21,0,0,0,.91-1.79,8,8,0,0,0,.32-2.33,8.12,8.12,0,0,0-.32-2.34,5.26,5.26,0,0,0-.91-1.8,4,4,0,0,0-1.47-1.15,4.61,4.61,0,0,0-2-.41,4.5,4.5,0,0,0-2,.42,4.34,4.34,0,0,0-1.46,1.16,5.26,5.26,0,0,0-.91,1.8A7.7,7.7,0,0,0,34.82,110.89Z"/><path class="cls-1" d="M78.41,116.28v3.39H66.69V102.13h4v14.15Z"/><path class="cls-1" d="M100,109.32c.71-1.19,1.38-2.39,2-3.59s1.23-2.4,1.77-3.61h4.35q-1.44,2.84-3,5.49T101.91,113v6.71H98V113q-1.72-2.69-3.28-5.37t-3-5.52h4.58c.54,1.21,1.12,2.42,1.74,3.61S99.32,108.13,100,109.32Z"/><path class="cls-1" d="M139.39,102.13v3.37H134.1v14.18h-3.95V105.5h-5.29v-3.37Z"/><path class="cls-1" d="M157.11,119.67V102.13H169v3.32h-7.9v3.44h7v3.24h-7v4.23h8.48v3.32H157.11Z"/><path class="cls-1" d="M195.64,120q-4.27,0-6.52-2.38a9.51,9.51,0,0,1-2.24-6.76,10.54,10.54,0,0,1,.68-3.89,8.54,8.54,0,0,1,1.87-2.89,7.83,7.83,0,0,1,2.83-1.78,10.14,10.14,0,0,1,3.57-.61,11.48,11.48,0,0,1,2,.17,13.37,13.37,0,0,1,1.59.38,7.39,7.39,0,0,1,1.14.44l.66.35-1.14,3.19a9.2,9.2,0,0,0-1.89-.73,9.11,9.11,0,0,0-2.44-.3,5.51,5.51,0,0,0-1.79.3,4,4,0,0,0-1.54,1,4.86,4.86,0,0,0-1.08,1.74,7.27,7.27,0,0,0-.41,2.58,9.11,9.11,0,0,0,.27,2.27,4.82,4.82,0,0,0,.86,1.81,4.08,4.08,0,0,0,1.56,1.2,5.48,5.48,0,0,0,2.33.44,10.21,10.21,0,0,0,1.54-.1c.46-.07.86-.15,1.22-.24a6.06,6.06,0,0,0,.94-.32l.73-.33,1.09,3.17a9.21,9.21,0,0,1-2.35.91A13.16,13.16,0,0,1,195.64,120Z"/><path class="cls-1" d="M229.82,102.13h4v17.54h-4v-7.44h-6.63v7.44h-3.95V102.13h3.95v6.71h6.63Z"/><path class="cls-1" d="M340,58.85q-5.64,0-8.58-3.13t-2.95-8.9a13.71,13.71,0,0,1,.9-5.12,10.92,10.92,0,0,1,2.47-3.8,10.3,10.3,0,0,1,3.73-2.35,13.52,13.52,0,0,1,4.7-.8,14.56,14.56,0,0,1,2.67.22,16.31,16.31,0,0,1,2.1.5,10.52,10.52,0,0,1,1.5.58c.4.2.69.36.87.47l-1.5,4.2a12.56,12.56,0,0,0-2.49-1,11.72,11.72,0,0,0-3.22-.4,7,7,0,0,0-2.35.4,5.43,5.43,0,0,0-2,1.28,6.47,6.47,0,0,0-1.42,2.28,9.49,9.49,0,0,0-.53,3.4,12.24,12.24,0,0,0,.35,3,6.26,6.26,0,0,0,1.13,2.38,5.43,5.43,0,0,0,2.05,1.58,7.28,7.28,0,0,0,3.07.58,13.86,13.86,0,0,0,2-.13,13.68,13.68,0,0,0,1.6-.32,7.34,7.34,0,0,0,1.23-.42l1-.43,1.43,4.17a12.37,12.37,0,0,1-3.1,1.2A17.34,17.34,0,0,1,340,58.85Z"/><path class="cls-1" d="M373.87,46.82A14.2,14.2,0,0,1,373,52a10.79,10.79,0,0,1-2.42,3.77,9.91,9.91,0,0,1-3.65,2.28,13.29,13.29,0,0,1-4.55.77,13,13,0,0,1-4.47-.77,10.32,10.32,0,0,1-3.67-2.28A10.61,10.61,0,0,1,351.76,52a14,14,0,0,1-.9-5.22,13.59,13.59,0,0,1,.93-5.22,11,11,0,0,1,2.52-3.78,10.41,10.41,0,0,1,3.67-2.3,12.62,12.62,0,0,1,4.38-.77,13,13,0,0,1,4.47.77,10.23,10.23,0,0,1,3.67,2.3A10.74,10.74,0,0,1,373,41.6,14,14,0,0,1,373.87,46.82Zm-17.63,0a10.45,10.45,0,0,0,.42,3.07,7,7,0,0,0,1.2,2.35,5.28,5.28,0,0,0,1.92,1.52,6,6,0,0,0,2.6.53,6.13,6.13,0,0,0,2.58-.53,5.23,5.23,0,0,0,1.93-1.52,7,7,0,0,0,1.2-2.35,10.41,10.41,0,0,0,.42-3.07,10.57,10.57,0,0,0-.42-3.08,7.15,7.15,0,0,0-1.2-2.37A5.42,5.42,0,0,0,365,39.85a6,6,0,0,0-2.58-.53,5.84,5.84,0,0,0-2.6.55,5.52,5.52,0,0,0-1.92,1.53,7.15,7.15,0,0,0-1.2,2.37A10.46,10.46,0,0,0,356.24,46.82Z"/><path class="cls-1" d="M386,35.28c.4.73.86,1.64,1.39,2.72s1.07,2.25,1.64,3.5,1.13,2.54,1.69,3.85l1.57,3.7,1.57-3.7c.56-1.31,1.12-2.59,1.69-3.85s1.11-2.42,1.64-3.5,1-2,1.39-2.72h4.73c.22,1.53.43,3.25.62,5.15s.35,3.88.5,5.93.28,4.12.4,6.18.23,4,.32,5.83h-5.07c-.07-2.24-.16-4.69-.27-7.33s-.28-5.31-.5-8L398,46.14c-.49,1.13-1,2.27-1.46,3.4s-.94,2.22-1.39,3.25-.82,1.92-1.14,2.65h-3.63c-.31-.73-.69-1.62-1.14-2.65s-.91-2.12-1.39-3.25-1-2.27-1.45-3.4L385,43q-.33,4-.5,8c-.11,2.64-.2,5.09-.27,7.33H379.2c.09-1.82.19-3.77.32-5.83s.26-4.13.4-6.18.31-4,.5-5.93.39-3.62.62-5.15Z"/><path class="cls-1" d="M418.37,35c3.44,0,6.09.61,7.93,1.82s2.77,3.19,2.77,5.95-.93,4.78-2.8,6-4.53,1.85-8,1.85h-1.63v7.73h-5.2V35.62a29.89,29.89,0,0,1,3.6-.47C416.31,35.06,417.42,35,418.37,35Zm.34,4.43c-.38,0-.75,0-1.12,0s-.68,0-.95.07v6.67h1.63a8.86,8.86,0,0,0,4.07-.73,2.82,2.82,0,0,0,1.37-2.73,3.32,3.32,0,0,0-.35-1.6,2.72,2.72,0,0,0-1-1,4.39,4.39,0,0,0-1.58-.53A12.09,12.09,0,0,0,418.71,39.45Z"/><path class="cls-1" d="M434.57,58.39V35.28h15.6v4.37h-10.4v4.53H449v4.27h-9.23V54h11.17v4.37Z"/><path class="cls-1" d="M473.58,35.28v4.43h-7V58.38h-5.2V39.71h-7V35.28Z"/><path class="cls-1" d="M478.58,58.39V35.28h15.6v4.37h-10.4v4.53H493v4.27h-9.23V54H495v4.37Z"/><path class="cls-1" d="M516,58.39c-1.49-2.64-3.1-5.26-4.83-7.83a79.83,79.83,0,0,0-5.53-7.3V58.39h-5.13V35.28h4.23q1.1,1.09,2.43,2.7t2.72,3.42q1.38,1.82,2.75,3.77t2.57,3.75V35.28h5.17v23.1H516Z"/><path class="cls-1" d="M537.85,58.85q-5.64,0-8.58-3.13t-2.95-8.9a13.71,13.71,0,0,1,.9-5.12,10.92,10.92,0,0,1,2.47-3.8,10.3,10.3,0,0,1,3.73-2.35,13.52,13.52,0,0,1,4.7-.8,14.56,14.56,0,0,1,2.67.22,16.31,16.31,0,0,1,2.1.5,10.52,10.52,0,0,1,1.5.58c.4.2.69.36.87.47l-1.5,4.2a12.7,12.7,0,0,0-2.48-1,11.77,11.77,0,0,0-3.22-.4,7,7,0,0,0-2.35.4,5.43,5.43,0,0,0-2,1.28,6.47,6.47,0,0,0-1.42,2.28,9.71,9.71,0,0,0-.53,3.4,12.24,12.24,0,0,0,.35,3,6.26,6.26,0,0,0,1.13,2.38,5.43,5.43,0,0,0,2,1.58,7.28,7.28,0,0,0,3.07.58,13.86,13.86,0,0,0,2-.13,13.68,13.68,0,0,0,1.6-.32,7.34,7.34,0,0,0,1.23-.42l1-.43,1.43,4.17a12.52,12.52,0,0,1-3.1,1.2A17.53,17.53,0,0,1,537.85,58.85Z"/><path class="cls-1" d="M550.58,58.39V35.28h15.6v4.37h-10.4v4.53H565v4.27h-9.23V54H567v4.37Z"/><path class="cls-1" d="M348.14,118.24q-10,0-15.24-5.56t-5.24-15.81a24.27,24.27,0,0,1,1.6-9.09A19.66,19.66,0,0,1,333.64,81a18.15,18.15,0,0,1,6.63-4.17,23.84,23.84,0,0,1,8.35-1.42,27.3,27.3,0,0,1,4.73.38,30.73,30.73,0,0,1,3.73.89,18.68,18.68,0,0,1,2.67,1c.71.36,1.22.63,1.54.83L358.63,86a22.66,22.66,0,0,0-4.41-1.72,21.19,21.19,0,0,0-5.71-.71,12.69,12.69,0,0,0-4.17.71,9.39,9.39,0,0,0-3.61,2.28,11.5,11.5,0,0,0-2.52,4.05,16.79,16.79,0,0,0-.95,6,21.82,21.82,0,0,0,.62,5.3,11.07,11.07,0,0,0,2,4.23,9.71,9.71,0,0,0,3.64,2.81,12.94,12.94,0,0,0,5.44,1,24.44,24.44,0,0,0,3.61-.24,27,27,0,0,0,2.84-.56,14.72,14.72,0,0,0,2.19-.74l1.72-.77,2.55,7.4a21.59,21.59,0,0,1-5.5,2.13A31.85,31.85,0,0,1,348.14,118.24Z"/><path class="cls-1" d="M370.75,117.42v-41h27.7v7.76H380v8h16.4v7.58H380v9.89h19.83v7.75H370.75Z"/><path class="cls-1" d="M437.11,117.42q-4-7-8.58-13.91a141.23,141.23,0,0,0-9.83-13v26.88h-9.12v-41h7.52q1.95,1.95,4.32,4.8c1.58,1.89,3.19,3.92,4.82,6.07s3.27,4.38,4.88,6.69,3.14,4.53,4.56,6.66V76.42h9.17v41h-7.74Z"/><path class="cls-1" d="M487.73,76.39v7.87H475.36v33.15h-9.23V84.26H453.76V76.39Z"/><path class="cls-1" d="M496.61,117.42v-41h27.7v7.76H505.84v8h16.4v7.58h-16.4v9.89h19.83v7.75H496.61Z"/><path class="cls-1" d="M547.46,75.92q9.24,0,14.15,3.29t4.91,10.21a11.53,11.53,0,0,1-2,7,13,13,0,0,1-5.71,4.23q1.24,1.55,2.6,3.52t2.69,4.14q1.33,2.16,2.58,4.5t2.31,4.59H558.69l-2.29-4.08c-.77-1.38-1.57-2.72-2.38-4s-1.61-2.54-2.41-3.7a39.05,39.05,0,0,0-2.38-3.17h-4.56v15h-9.23V77a53.63,53.63,0,0,1,6.24-.83Q544.91,75.93,547.46,75.92Zm.53,7.87q-1,0-1.8.06l-1.51.12V95.1h2.6q5.21,0,7.46-1.3A4.71,4.71,0,0,0,557,89.36a4.52,4.52,0,0,0-2.28-4.29A14.07,14.07,0,0,0,548,83.79Z"/><rect class="cls-1" x="329.4" y="67.31" width="93.44" height="0.66"/><rect class="cls-1" x="472.04" y="67.31" width="93.44" height="0.66"/><circle class="cls-1" cx="427.53" cy="67.65" r="1.67"/><circle class="cls-1" cx="467.35" cy="67.65" r="1.67"/><path class="cls-1" d="M273.07,81.62a8,8,0,0,1,.47-2.8,8.22,8.22,0,0,1,1.26-2.27,9.7,9.7,0,0,1,1.83-1.79,18.1,18.1,0,0,1,2.17-1.38,12.4,12.4,0,0,1-2-2.76,6.64,6.64,0,0,1-.75-3.08,6.86,6.86,0,0,1,2.09-5.32,7.85,7.85,0,0,1,5.5-1.91,9,9,0,0,1,3.1.49A6.1,6.1,0,0,1,289,62.14a5.77,5.77,0,0,1,1.36,2,6.53,6.53,0,0,1,.47,2.46,6.77,6.77,0,0,1-.43,2.44,7.92,7.92,0,0,1-1.16,2.09,10.63,10.63,0,0,1-1.68,1.74,13.74,13.74,0,0,1-2.05,1.4l5.56,5.6a11,11,0,0,0,.93-2.37,26.15,26.15,0,0,0,.57-2.58l4.1.53a19.77,19.77,0,0,1-.85,3.59,19.18,19.18,0,0,1-1.7,3.75c.89,1,1.75,2,2.58,3.1a20.85,20.85,0,0,1,2,3.19h-5.11a14.25,14.25,0,0,0-1-1.5,16.07,16.07,0,0,0-1.32-1.5,14.08,14.08,0,0,1-3.82,2.44,12.15,12.15,0,0,1-4.87.93,12.29,12.29,0,0,1-4.55-.73,8.4,8.4,0,0,1-2.94-1.87,6.64,6.64,0,0,1-1.58-2.52A8.24,8.24,0,0,1,273.07,81.62Zm4.71-.32a4.32,4.32,0,0,0,.26,1.42,4,4,0,0,0,.85,1.36,4.63,4.63,0,0,0,1.54,1,5.86,5.86,0,0,0,2.29.41A9.16,9.16,0,0,0,286,85a7.27,7.27,0,0,0,2.54-1.62l-7.14-7.26a12.57,12.57,0,0,0-1.26.77A6,6,0,0,0,279,77.93a5.71,5.71,0,0,0-.87,1.46A4.83,4.83,0,0,0,277.78,81.3Zm8.8-14.49a2.75,2.75,0,0,0-3-2.84,2.94,2.94,0,0,0-2.35.93,3.46,3.46,0,0,0-.81,2.35,4.72,4.72,0,0,0,.65,2.33,9,9,0,0,0,1.79,2.21,12.91,12.91,0,0,0,1.44-.89,6.52,6.52,0,0,0,1.18-1.1,5.1,5.1,0,0,0,.81-1.34A4.46,4.46,0,0,0,286.58,66.81Z"/><path class="cls-1" d="M14.49,19.2c-.21-.65-.43-1.32-.67-2l-.72-2.05H5.77c-.24.68-.47,1.37-.71,2.06s-.46,1.36-.67,2H0q1.07-3,2-5.6T3.87,8.75c.61-1.52,1.2-3,1.79-4.32s1.2-2.69,1.83-4h4c.62,1.3,1.22,2.63,1.82,4s1.2,2.8,1.81,4.32S16.35,11.88,17,13.6s1.31,3.58,2,5.6ZM9.42,4.69C9.33,5,9.19,5.33,9,5.8s-.39,1-.62,1.63-.49,1.29-.78,2S7,11,6.74,11.79h5.37c-.29-.81-.57-1.59-.83-2.33s-.52-1.42-.77-2-.45-1.16-.64-1.62S9.53,5,9.42,4.69Z"/><path class="cls-1" d="M39.37,15.57V19.2H26.83V.44h4.22V15.57Z"/><path class="cls-1" d="M52.75.44c.33.6.7,1.33,1.13,2.21s.87,1.82,1.33,2.84.92,2.06,1.37,3.13.88,2.07,1.28,3c.4-.94.82-1.94,1.28-3s.91-2.11,1.37-3.13.9-2,1.33-2.84S62.64,1,63,.44h3.84c.18,1.25.35,2.64.5,4.18s.29,3.15.41,4.82.23,3.34.32,5,.18,3.26.26,4.74H64.18c-.05-1.82-.13-3.81-.22-6s-.23-4.31-.41-6.5L62.46,9.26c-.4.92-.79,1.84-1.18,2.76s-.76,1.8-1.13,2.64l-.92,2.15H56.28c-.25-.6-.56-1.31-.92-2.15L54.23,12c-.39-.92-.78-1.84-1.18-2.76L52,6.74q-.27,3.27-.41,6.5c-.09,2.15-.16,4.13-.22,6H47.22c.07-1.48.16-3.06.26-4.74s.21-3.35.32-5,.25-3.28.41-4.82.32-2.94.5-4.18Z"/><path class="cls-1" d="M90.05,19.2c-.21-.65-.43-1.32-.67-2l-.72-2.05H81.33c-.24.68-.47,1.37-.71,2.06s-.46,1.36-.67,2H75.56q1.06-3,2-5.6t1.86-4.85c.61-1.52,1.2-3,1.79-4.32s1.2-2.69,1.83-4h4c.62,1.3,1.22,2.63,1.82,4s1.2,2.8,1.81,4.32,1.23,3.13,1.86,4.85,1.31,3.58,2,5.6ZM85,4.69c-.09.27-.23.64-.41,1.11s-.39,1-.62,1.63-.49,1.29-.78,2-.58,1.51-.87,2.33h5.37c-.29-.81-.57-1.59-.83-2.33s-.52-1.42-.77-2-.45-1.16-.64-1.62S85.09,5,85,4.69Z"/><path class="cls-1" d="M114.1.44V4h-5.66V19.2h-4.22V4H98.56V.44Z"/><path class="cls-1" d="M130,8.14c.76-1.28,1.48-2.56,2.17-3.83s1.32-2.57,1.9-3.86h4.66q-1.55,3-3.19,5.87c-1.1,1.9-2.27,3.8-3.49,5.71V19.2h-4.22V12.08c-1.23-1.91-2.4-3.83-3.51-5.74s-2.18-3.88-3.21-5.9H126c.58,1.3,1.2,2.58,1.87,3.86S129.25,6.86,130,8.14Z"/><path class="cls-1" d="M164,.22a11.64,11.64,0,0,1,6.44,1.48,5.34,5.34,0,0,1,2.25,4.83,5.43,5.43,0,0,1-2.27,4.89,11.79,11.79,0,0,1-6.5,1.5h-1.33V19.2h-4.22V.71a23.71,23.71,0,0,1,2.92-.38C162.31.26,163.22.22,164,.22Zm.27,3.6c-.31,0-.61,0-.91,0l-.77,0V9.31h1.33a7.14,7.14,0,0,0,3.3-.6,2.29,2.29,0,0,0,1.11-2.22,2.66,2.66,0,0,0-.28-1.3,2.22,2.22,0,0,0-.81-.83,3.56,3.56,0,0,0-1.29-.43A12.25,12.25,0,0,0,164.26,3.82Z"/><path class="cls-1" d="M199.08,9.81a11.52,11.52,0,0,1-.72,4.24,8.71,8.71,0,0,1-2,3.06,8,8,0,0,1-3,1.85,11.14,11.14,0,0,1-7.33,0,8.27,8.27,0,0,1-3-1.85,8.52,8.52,0,0,1-2-3.06,11.31,11.31,0,0,1-.73-4.24,10.91,10.91,0,0,1,.76-4.24,9,9,0,0,1,2-3.07,8.5,8.5,0,0,1,3-1.87A10.1,10.1,0,0,1,189.74,0a10.65,10.65,0,0,1,3.63.62,8.32,8.32,0,0,1,3,1.87,8.65,8.65,0,0,1,2,3.07A11.51,11.51,0,0,1,199.08,9.81Zm-14.32,0a8.38,8.38,0,0,0,.34,2.49,5.83,5.83,0,0,0,1,1.91,4.27,4.27,0,0,0,1.56,1.23,5.37,5.37,0,0,0,4.21,0,4.3,4.3,0,0,0,1.57-1.23,5.64,5.64,0,0,0,1-1.91,8.38,8.38,0,0,0,.34-2.49,8.49,8.49,0,0,0-.34-2.5,5.78,5.78,0,0,0-1-1.92,4.3,4.3,0,0,0-1.57-1.23,4.9,4.9,0,0,0-2.1-.43,4.74,4.74,0,0,0-2.11.45,4.5,4.5,0,0,0-1.56,1.25,5.6,5.6,0,0,0-1,1.92A8.17,8.17,0,0,0,184.76,9.81Z"/><path class="cls-1" d="M220.55,15.57V19.2H208V.44h4.22V15.57Z"/><path class="cls-1" d="M232.83,8.14c.76-1.28,1.48-2.56,2.17-3.83s1.32-2.57,1.9-3.86h4.66q-1.55,3-3.19,5.87c-1.1,1.9-2.27,3.8-3.49,5.71V19.2h-4.22V12.08c-1.23-1.91-2.4-3.83-3.51-5.74S225,2.46,223.94.44h4.9c.58,1.3,1.2,2.58,1.87,3.86S232.08,6.86,232.83,8.14Z"/><path class="cls-1" d="M264.11.44V4h-5.66V19.2h-4.22V4h-5.66V.44Z"/><path class="cls-1" d="M272.23,19.2V.44H284.9V4h-8.45V7.67H284v3.47h-7.5v4.52h9.07v3.55H272.23Z"/><path class="cls-1" d="M302.61,19.58q-4.58,0-7-2.54t-2.4-7.23A11.1,11.1,0,0,1,294,5.65a9.11,9.11,0,0,1,2-3.09,8.36,8.36,0,0,1,3-1.91A11,11,0,0,1,302.82,0,12.05,12.05,0,0,1,305,.18a13.49,13.49,0,0,1,1.71.41,8.48,8.48,0,0,1,1.22.47,7,7,0,0,1,.7.38L307.4,4.85a10.25,10.25,0,0,0-2-.79,9.52,9.52,0,0,0-2.61-.32,5.93,5.93,0,0,0-1.91.32,4.24,4.24,0,0,0-1.65,1A5.25,5.25,0,0,0,298.06,7a7.77,7.77,0,0,0-.43,2.76,9.8,9.8,0,0,0,.28,2.42,5.29,5.29,0,0,0,.92,1.94,4.44,4.44,0,0,0,1.67,1.29,5.89,5.89,0,0,0,2.49.47,11.7,11.7,0,0,0,1.65-.11,11.46,11.46,0,0,0,1.3-.26,6.47,6.47,0,0,0,1-.34l.79-.35,1.16,3.38a9.61,9.61,0,0,1-2.52,1A13.35,13.35,0,0,1,302.61,19.58Z"/><path class="cls-1" d="M328.33.44h4.22V19.2h-4.22v-8h-7.09v8H317V.44h4.22V7.61h7.09Z"/><path class="cls-1" d="M354.88,19.2Q353.07,16,351,12.84a67.26,67.26,0,0,0-4.49-5.93V19.2H342.3V.44h3.44c.6.6,1.25,1.33,2,2.19s1.46,1.79,2.21,2.78,1.49,2,2.23,3.06,1.43,2.07,2.08,3V.44h4.2V19.2Z"/><path class="cls-1" d="M368.18.44h4.22V19.2h-4.22Z"/><path class="cls-1" d="M390.7,19.58q-4.57,0-7-2.54t-2.4-7.23a11.1,11.1,0,0,1,.73-4.16,9,9,0,0,1,2-3.09,8.36,8.36,0,0,1,3-1.91A11,11,0,0,1,390.91,0a12.05,12.05,0,0,1,2.17.18,13.49,13.49,0,0,1,1.71.41,8.48,8.48,0,0,1,1.22.47c.32.16.56.29.7.38l-1.22,3.41a10.25,10.25,0,0,0-2-.79,9.52,9.52,0,0,0-2.61-.32,5.93,5.93,0,0,0-1.91.32,4.36,4.36,0,0,0-1.65,1A5.25,5.25,0,0,0,386.15,7a7.77,7.77,0,0,0-.43,2.76,9.8,9.8,0,0,0,.28,2.42,5.29,5.29,0,0,0,.92,1.94,4.48,4.48,0,0,0,1.66,1.29,5.89,5.89,0,0,0,2.49.47,11.7,11.7,0,0,0,1.65-.11,11.46,11.46,0,0,0,1.3-.26,6.47,6.47,0,0,0,1-.34l.79-.35L397,18.15a9.75,9.75,0,0,1-2.52,1A13.18,13.18,0,0,1,390.7,19.58Z"/><path class="cls-1" d="M425.57,19.58q-4.57,0-7-2.54t-2.4-7.23a11.1,11.1,0,0,1,.73-4.16,9.11,9.11,0,0,1,2-3.09,8.36,8.36,0,0,1,3-1.91A11,11,0,0,1,425.78,0,12.05,12.05,0,0,1,428,.18a13.49,13.49,0,0,1,1.71.41,8.48,8.48,0,0,1,1.22.47,7,7,0,0,1,.7.38l-1.22,3.41a10.25,10.25,0,0,0-2-.79,9.52,9.52,0,0,0-2.61-.32,5.93,5.93,0,0,0-1.91.32,4.24,4.24,0,0,0-1.65,1A5.25,5.25,0,0,0,421,7a7.77,7.77,0,0,0-.43,2.76,9.8,9.8,0,0,0,.28,2.42,5.29,5.29,0,0,0,.92,1.94,4.44,4.44,0,0,0,1.67,1.29,5.89,5.89,0,0,0,2.49.47,11.7,11.7,0,0,0,1.65-.11,11.46,11.46,0,0,0,1.3-.26,6.47,6.47,0,0,0,1-.34l.79-.35,1.16,3.38a9.61,9.61,0,0,1-2.52,1A13.3,13.3,0,0,1,425.57,19.58Z"/><path class="cls-1" d="M457.17,9.81a11.52,11.52,0,0,1-.72,4.24,8.71,8.71,0,0,1-2,3.06,8,8,0,0,1-3,1.85,11.14,11.14,0,0,1-7.33,0,8.27,8.27,0,0,1-3-1.85,8.52,8.52,0,0,1-2-3.06,11.31,11.31,0,0,1-.73-4.24,10.91,10.91,0,0,1,.76-4.24,9.16,9.16,0,0,1,2-3.07,8.5,8.5,0,0,1,3-1.87A10.1,10.1,0,0,1,447.83,0a10.65,10.65,0,0,1,3.63.62,8.32,8.32,0,0,1,3,1.87,8.65,8.65,0,0,1,2,3.07A11.51,11.51,0,0,1,457.17,9.81Zm-14.32,0a8.38,8.38,0,0,0,.34,2.49,5.83,5.83,0,0,0,1,1.91,4.27,4.27,0,0,0,1.56,1.23,5.37,5.37,0,0,0,4.21,0,4.3,4.3,0,0,0,1.57-1.23,5.64,5.64,0,0,0,1-1.91,8.38,8.38,0,0,0,.34-2.49,8.49,8.49,0,0,0-.34-2.5,5.78,5.78,0,0,0-1-1.92,4.3,4.3,0,0,0-1.57-1.23,4.9,4.9,0,0,0-2.1-.43,4.74,4.74,0,0,0-2.11.45,4.5,4.5,0,0,0-1.56,1.25,5.6,5.6,0,0,0-1,1.92A8.17,8.17,0,0,0,442.85,9.81Z"/><path class="cls-1" d="M478.64,15.57V19.2H466.1V.44h4.22V15.57Z"/><path class="cls-1" d="M499.29,15.57V19.2H486.75V.44H491V15.57Z"/><path class="cls-1" d="M507.41,19.2V.44h12.67V4h-8.45V7.67h7.5v3.47h-7.5v4.52h9.07v3.55H507.41Z"/><path class="cls-1" d="M538.39,3.69a5.13,5.13,0,0,0-4.26,1.64,7,7,0,0,0-1.31,4.48,8.8,8.8,0,0,0,.33,2.5,5.7,5.7,0,0,0,1,1.94,4.39,4.39,0,0,0,1.62,1.26A5.38,5.38,0,0,0,538,16c.47,0,.87,0,1.21,0a5.27,5.27,0,0,0,.88-.11V9.3h4.22v9.29a16.36,16.36,0,0,1-2.44.64,21,21,0,0,1-4.14.34,10.84,10.84,0,0,1-3.83-.65A7.9,7.9,0,0,1,531,17,8.45,8.45,0,0,1,529.09,14a12.07,12.07,0,0,1-.66-4.14,11,11,0,0,1,.73-4.17,9,9,0,0,1,2-3.07,8.37,8.37,0,0,1,3-1.91A10.38,10.38,0,0,1,537.82,0a14.66,14.66,0,0,1,2.4.18,14.29,14.29,0,0,1,1.84.41,8.45,8.45,0,0,1,1.27.47c.33.16.57.29.72.38l-1.22,3.38a11.14,11.14,0,0,0-2-.8A8,8,0,0,0,538.39,3.69Z"/><path class="cls-1" d="M553.66,19.2V.44h12.67V4h-8.45V7.67h7.5v3.47h-7.5v4.52H567v3.55H553.66Z"/></g></g></svg>