<svg xmlns="http://www.w3.org/2000/svg" viewBox="0 0 1016.76 706.89"><defs><style>.cls-1{fill:#fff;}.cls-2,.cls-5,.cls-7,.cls-8{fill:none;}.cls-2{stroke:#fff;}.cls-2,.cls-8{stroke-linecap:round;stroke-linejoin:round;}.cls-2,.cls-5,.cls-8{stroke-width:2px;}.cls-3{fill:#2d2e83;}.cls-4{fill:red;}.cls-5,.cls-7{stroke:#fcea10;stroke-miterlimit:22.93;}.cls-6{fill:#fcea10;}.cls-7{stroke-width:3px;}.cls-8{stroke:#2d2e83;}</style></defs><g id="Слой_2" data-name="Слой 2"><g id="Слой_1-2" data-name="Слой 1"><rect class="cls-1" x="784.41" y="83.66" width="120.52" height="77.8"/><rect class="cls-1" x="568.37" y="288.34" width="159.43" height="97.33"/><rect class="cls-1" x="0.81" y="230.82" width="221.6" height="65.08"/><rect class="cls-1" x="0.81" y="1.21" width="221.6" height="228.91"/><polyline class="cls-2" points="508.73 642.6 1 642.6 1 1.21 738.4 1.21"/><polyline class="cls-2" points="732.96 1.21 1015.76 1.21 1015.76 642.6 575.29 642.6"/><line class="cls-2" x1="482.23" y1="642.6" x2="482.23" y2="618.24"/><polyline class="cls-2" points="465.78 576.36 481.86 576.36 481.86 604.34"/><line class="cls-2" x1="433.91" y1="642.6" x2="433.91" y2="564.99"/><line class="cls-2" x1="433.91" y1="576.36" x2="450.67" y2="576.36"/><line class="cls-2" x1="287.7" y1="641.83" x2="287.7" y2="514.88"/><path class="cls-2" d="M260.19,514.88H398.66A35.31,35.31,0,0,1,434,550.19h0"/><line class="cls-2" x1="153.11" y1="514.54" x2="247.85" y2="514.54"/><line class="cls-2" x1="153.11" y1="642.17" x2="153.11" y2="497.08"/><line class="cls-2" x1="1" y1="464.47" x2="222.75" y2="464.47"/><line class="cls-2" x1="153.22" y1="464.47" x2="153.22" y2="483.74"/><line class="cls-2" x1="1" y1="379.1" x2="222.42" y2="379.1"/><line class="cls-2" x1="222.75" y1="464.47" x2="222.75" y2="431.43"/><line class="cls-2" x1="222.42" y1="333.9" x2="222.42" y2="414.25"/><line class="cls-2" x1="135.19" y1="379.69" x2="135.19" y2="269.72"/><line class="cls-2" x1="135.19" y1="295.9" x2="222.42" y2="295.9"/><line class="cls-2" x1="222.27" y1="310.99" x2="222.27" y2="268.38"/><line class="cls-2" x1="1" y1="230.12" x2="264.6" y2="230.12"/><line class="cls-2" x1="222.56" y1="230.12" x2="222.56" y2="246.62"/><line class="cls-2" x1="297.64" y1="1.21" x2="297.64" y2="309.6"/><line class="cls-2" x1="297.64" y1="230.34" x2="284.11" y2="230.34"/><line class="cls-2" x1="297.64" y1="88.57" x2="284.11" y2="88.57"/><line class="cls-2" x1="1" y1="88.76" x2="264.6" y2="88.76"/><line class="cls-2" x1="1" y1="168.25" x2="222.03" y2="168.25"/><line class="cls-2" x1="222.42" y1="88.57" x2="222.42" y2="119.84"/><line class="cls-2" x1="222.03" y1="168.25" x2="222.03" y2="143.04"/><line class="cls-2" x1="297.41" y1="412.45" x2="297.41" y2="331.97"/><line class="cls-2" x1="297.64" y1="428.1" x2="297.64" y2="465.65"/><line class="cls-2" x1="359.89" y1="465.65" x2="297.64" y2="465.65"/><line class="cls-2" x1="297.64" y1="385.67" x2="727.8" y2="385.67"/><line class="cls-2" x1="348.9" y1="466.32" x2="348.9" y2="385.67"/><line class="cls-2" x1="398.81" y1="385.67" x2="398.81" y2="438.25"/><line class="cls-2" x1="398.81" y1="465.5" x2="398.81" y2="454.44"/><line class="cls-2" x1="460.87" y1="465.5" x2="378.55" y2="465.5"/><line class="cls-2" x1="446.41" y1="465.9" x2="446.41" y2="386.35"/><line class="cls-2" x1="497.11" y1="385.67" x2="497.11" y2="465.25"/><line class="cls-2" x1="600.37" y1="465.5" x2="481.04" y2="465.5"/><line class="cls-2" x1="618.57" y1="465.5" x2="728.1" y2="465.5"/><line class="cls-2" x1="727.8" y1="385.67" x2="727.8" y2="465.5"/><line class="cls-2" x1="637.63" y1="385.67" x2="637.63" y2="465.5"/><line class="cls-2" x1="429.65" y1="385.67" x2="429.65" y2="49.84"/><line class="cls-2" x1="297.81" y1="210.2" x2="566.81" y2="210.2"/><line class="cls-2" x1="567.16" y1="48.16" x2="567.16" y2="240.2"/><line class="cls-2" x1="429.58" y1="1" x2="429.58" y2="35.88"/><line class="cls-2" x1="567.34" y1="1" x2="567.34" y2="33.77"/><line class="cls-2" x1="785.11" y1="1.62" x2="785.11" y2="25.95"/><line class="cls-2" x1="784.52" y1="161.46" x2="784.52" y2="41.07"/><line class="cls-2" x1="822.2" y1="161.28" x2="784.41" y2="161.28"/><line class="cls-2" x1="785.11" y1="83.66" x2="905.37" y2="83.66"/><line class="cls-2" x1="844.97" y1="161.28" x2="917.68" y2="161.28"/><line class="cls-2" x1="904.92" y1="1.03" x2="904.92" y2="161.46"/><line class="cls-2" x1="1015.76" y1="161.22" x2="941.08" y2="161.22"/><line class="cls-2" x1="947.46" y1="241.31" x2="947.46" y2="161.22"/><line class="cls-2" x1="947.46" y1="288.47" x2="947.46" y2="253.47"/><line class="cls-2" x1="1015.76" y1="288.71" x2="926.73" y2="288.71"/><line class="cls-2" x1="825.12" y1="288.95" x2="908" y2="288.95"/><line class="cls-2" x1="1015.76" y1="428.1" x2="786.15" y2="428.1"/><line class="cls-2" x1="786.15" y1="288.7" x2="786.15" y2="447.47"/><line class="cls-2" x1="805.59" y1="288.7" x2="786.15" y2="288.7"/><line class="cls-2" x1="786.15" y1="612.49" x2="786.15" y2="527.11"/><line class="cls-2" x1="785.78" y1="642.6" x2="785.78" y2="629.3"/><line class="cls-2" x1="949.36" y1="643.6" x2="949.36" y2="485.13"/><line class="cls-2" x1="1015.76" y1="484.13" x2="786.15" y2="484.13"/><line class="cls-2" x1="879" y1="484.13" x2="879" y2="642.6"/><line class="cls-2" x1="879" y1="558.45" x2="786.15" y2="558.45"/><line class="cls-2" x1="879" y1="506.73" x2="785.96" y2="506.73"/><line class="cls-2" x1="785.96" y1="459.59" x2="785.96" y2="488.2"/><line class="cls-2" x1="785.96" y1="500.39" x2="785.96" y2="513.67"/><line class="cls-2" x1="567.39" y1="385.67" x2="567.39" y2="255.33"/><line class="cls-2" x1="567.34" y1="288.34" x2="660.63" y2="288.34"/><line class="cls-2" x1="728.45" y1="288.7" x2="678.87" y2="288.7"/><line class="cls-2" x1="727.8" y1="385.67" x2="727.8" y2="288.7"/><path class="cls-1" d="M828.19,182.9c.45-.19.93-.4,1.42-.65s1-.51,1.44-.8.92-.59,1.35-.91a8.9,8.9,0,0,0,1.16-1H836v16.26h-3.5v-11.7a11.05,11.05,0,0,1-1.57.86c-.58.26-1.14.48-1.69.67Z"/><path class="cls-1" d="M923.35,257.16a4.36,4.36,0,0,1-.35,1.71,7.6,7.6,0,0,1-.91,1.58,13.36,13.36,0,0,1-1.27,1.47c-.47.47-.93.92-1.38,1.34l-.76.74c-.27.27-.54.55-.79.83s-.47.54-.67.79a1.67,1.67,0,0,0-.36.6h7v2.93H913a3.86,3.86,0,0,1,0-.66v-.56a5.68,5.68,0,0,1,.36-2.06,7.81,7.81,0,0,1,.95-1.75,10.5,10.5,0,0,1,1.33-1.51l1.47-1.41,1.06-1a10.53,10.53,0,0,0,.87-.94,4.31,4.31,0,0,0,.59-.92,2.18,2.18,0,0,0,.21-.93,1.66,1.66,0,0,0-.59-1.45,2.44,2.44,0,0,0-1.45-.42,3.48,3.48,0,0,0-1.18.2,6.24,6.24,0,0,0-1,.47,6.75,6.75,0,0,0-.79.54c-.22.18-.38.32-.49.43l-1.74-2.44a8.85,8.85,0,0,1,2.4-1.58,7.11,7.11,0,0,1,2.94-.62,8.14,8.14,0,0,1,2.46.33,4.62,4.62,0,0,1,1.7.93,3.53,3.53,0,0,1,1,1.45A5.54,5.54,0,0,1,923.35,257.16Z"/><path class="cls-1" d="M814.34,268.79a12.8,12.8,0,0,1-1.34-.08c-.47,0-.92-.13-1.36-.22s-.84-.2-1.2-.3a4.76,4.76,0,0,1-.84-.31l.68-2.91c.41.17.93.36,1.56.55a8,8,0,0,0,2.36.29,3.72,3.72,0,0,0,2.37-.61,2.2,2.2,0,0,0,.48-2.71,2.07,2.07,0,0,0-.74-.7,3.23,3.23,0,0,0-1.11-.38,8.54,8.54,0,0,0-1.37-.11h-1.36v-2.81H814a5.47,5.47,0,0,0,1-.09,2.6,2.6,0,0,0,.86-.32,1.67,1.67,0,0,0,.6-.61,1.91,1.91,0,0,0,.22-1,1.47,1.47,0,0,0-.19-.77,1.67,1.67,0,0,0-.48-.54,2.13,2.13,0,0,0-.68-.32,3,3,0,0,0-.79-.11,5.44,5.44,0,0,0-1.87.31,7.51,7.51,0,0,0-1.56.75l-1.24-2.56a9.62,9.62,0,0,1,.88-.49,9.5,9.5,0,0,1,1.11-.47,9.87,9.87,0,0,1,1.3-.35,7.64,7.64,0,0,1,1.47-.14,7.88,7.88,0,0,1,2.47.34,4.68,4.68,0,0,1,1.72,1,3.92,3.92,0,0,1,1,1.45,4.86,4.86,0,0,1,.33,1.81,3.74,3.74,0,0,1-2,3.23,4.22,4.22,0,0,1,2,1.54,4.28,4.28,0,0,1,.69,2.45,5.66,5.66,0,0,1-.38,2.08,4.2,4.2,0,0,1-1.17,1.64,5.68,5.68,0,0,1-2,1.08A9.67,9.67,0,0,1,814.34,268.79Z"/><path class="cls-1" d="M674.42,252.19V262h1.74v2.86h-1.74v3.64H671v-3.64h-7v-2.56c.34-.69.77-1.47,1.29-2.33s1.09-1.76,1.72-2.67,1.3-1.81,2-2.69a28,28,0,0,1,2.11-2.37ZM671,256.46c-.61.8-1.26,1.67-2,2.6a17.74,17.74,0,0,0-1.74,2.89H671v-5.49Z"/><path class="cls-3" d="M628.63,307.62c.45-.19.93-.4,1.42-.65s1-.51,1.44-.8.92-.59,1.35-.91a8.9,8.9,0,0,0,1.16-1h2.44V320.5h-3.5V308.8a11.05,11.05,0,0,1-1.57.86c-.58.26-1.14.48-1.69.67Z"/><path class="cls-3" d="M652,308.52a4.36,4.36,0,0,1-.35,1.71,7.6,7.6,0,0,1-.91,1.58,13.36,13.36,0,0,1-1.27,1.47c-.47.47-.93.92-1.38,1.34l-.76.74c-.27.27-.54.55-.79.83s-.47.54-.67.79a1.67,1.67,0,0,0-.36.6h7v2.93H641.61a3.86,3.86,0,0,1-.05-.66v-.56a5.68,5.68,0,0,1,.36-2.06,7.81,7.81,0,0,1,1-1.75A10.5,10.5,0,0,1,644.2,314l1.47-1.41,1.06-1a10.53,10.53,0,0,0,.87-.94,4.31,4.31,0,0,0,.59-.92,2.18,2.18,0,0,0,.21-.93,1.66,1.66,0,0,0-.59-1.45,2.44,2.44,0,0,0-1.45-.42,3.48,3.48,0,0,0-1.18.2,6.24,6.24,0,0,0-1,.47,6.75,6.75,0,0,0-.79.54c-.22.18-.38.32-.49.43l-1.74-2.44a8.85,8.85,0,0,1,2.4-1.58,7.11,7.11,0,0,1,2.94-.62,8.14,8.14,0,0,1,2.46.33,4.62,4.62,0,0,1,1.7.93,3.53,3.53,0,0,1,1,1.45A5.5,5.5,0,0,1,652,308.52Z"/><path class="cls-3" d="M665.27,308.52a4.36,4.36,0,0,1-.35,1.71,7.6,7.6,0,0,1-.91,1.58,13.36,13.36,0,0,1-1.27,1.47c-.47.47-.93.92-1.38,1.34l-.76.74c-.27.27-.54.55-.79.83s-.47.54-.67.79a1.67,1.67,0,0,0-.36.6h7v2.93H654.93a3.86,3.86,0,0,1,0-.66v-.56a5.68,5.68,0,0,1,.36-2.06,7.81,7.81,0,0,1,1-1.75,10.5,10.5,0,0,1,1.33-1.51l1.47-1.41,1.06-1a10.53,10.53,0,0,0,.87-.94,4.31,4.31,0,0,0,.59-.92,2.18,2.18,0,0,0,.21-.93,1.66,1.66,0,0,0-.59-1.45,2.44,2.44,0,0,0-1.45-.42,3.48,3.48,0,0,0-1.18.2,6.24,6.24,0,0,0-1,.47,6.75,6.75,0,0,0-.79.54c-.22.18-.38.32-.49.43l-1.74-2.44a8.85,8.85,0,0,1,2.4-1.58,7.11,7.11,0,0,1,2.94-.62,8.14,8.14,0,0,1,2.46.33,4.62,4.62,0,0,1,1.7.93,3.53,3.53,0,0,1,1,1.45A5.5,5.5,0,0,1,665.27,308.52Z"/><path class="cls-3" d="M47.75,257.29c.45-.19.93-.4,1.42-.65s1-.51,1.44-.8.92-.59,1.35-.91a8.9,8.9,0,0,0,1.16-1h2.44v16.26h-3.5v-11.7a11.05,11.05,0,0,1-1.57.86c-.58.26-1.14.48-1.69.67Z"/><path class="cls-3" d="M61.07,257.29c.45-.19.93-.4,1.42-.65s1-.51,1.44-.8.92-.59,1.35-.91a8.9,8.9,0,0,0,1.16-1h2.44v16.26h-3.5v-11.7a11.05,11.05,0,0,1-1.57.86c-.58.26-1.14.48-1.69.67Z"/><path class="cls-3" d="M81.24,263.71a4.09,4.09,0,0,1-1.09.34,6.14,6.14,0,0,1-1,.11,8.24,8.24,0,0,1-2.6-.36,4.65,4.65,0,0,1-1.77-1,4.1,4.1,0,0,1-1-1.61,6.25,6.25,0,0,1,0-4,5.11,5.11,0,0,1,1-1.79,5.52,5.52,0,0,1,1.72-1.34,6.43,6.43,0,0,1,7.08,1.33,8.25,8.25,0,0,1,1.54,5.36,12.57,12.57,0,0,1-.6,4.06,7.35,7.35,0,0,1-1.85,3,8.12,8.12,0,0,1-3.2,1.82,16,16,0,0,1-4.62.65c0-.5,0-1-.07-1.45s-.06-.95-.09-1.45a17.27,17.27,0,0,0,2.42-.2,6.52,6.52,0,0,0,1.9-.59,4.41,4.41,0,0,0,1.4-1.09A5.8,5.8,0,0,0,81.24,263.71Zm-1.71-2.27a6.54,6.54,0,0,0,1.13-.11,2.5,2.5,0,0,0,.87-.29v-.21a1.28,1.28,0,0,1,0-.19,1,1,0,0,0,0-.16,12.72,12.72,0,0,0-.14-1.58,4.34,4.34,0,0,0-.4-1.29,2.23,2.23,0,0,0-.76-.87,2.12,2.12,0,0,0-1.18-.32,2,2,0,0,0-1,.23,2,2,0,0,0-.68.61,3,3,0,0,0-.39.82,3,3,0,0,0-.13.87,2.57,2.57,0,0,0,.62,1.88A2.82,2.82,0,0,0,79.53,261.44Z"/><path class="cls-3" d="M49.39,194.8c.45-.19.93-.4,1.42-.65s1-.51,1.44-.8.92-.59,1.35-.91a8.9,8.9,0,0,0,1.16-1H57.2v16.26H53.7V196a11.05,11.05,0,0,1-1.57.86c-.58.26-1.14.48-1.69.67Z"/><path class="cls-3" d="M72.71,195.69a4.36,4.36,0,0,1-.35,1.71,7.23,7.23,0,0,1-.92,1.58,13.36,13.36,0,0,1-1.27,1.47c-.47.47-.93.92-1.38,1.34l-.76.74c-.27.27-.54.55-.79.83s-.47.54-.67.79a1.67,1.67,0,0,0-.36.6h7v2.93H62.36a3.86,3.86,0,0,1,0-.66v-.56a5.68,5.68,0,0,1,.36-2.06,7.6,7.6,0,0,1,.95-1.75A10.5,10.5,0,0,1,65,201.14l1.47-1.41,1.06-1a10.53,10.53,0,0,0,.87-.94,4.31,4.31,0,0,0,.59-.92,2.18,2.18,0,0,0,.21-.93,1.66,1.66,0,0,0-.59-1.45,2.44,2.44,0,0,0-1.45-.42,3.48,3.48,0,0,0-1.18.2,5.87,5.87,0,0,0-1,.47,6.75,6.75,0,0,0-.79.54c-.22.18-.38.32-.49.43l-1.74-2.44a8.85,8.85,0,0,1,2.4-1.58,7.14,7.14,0,0,1,2.94-.62,8.14,8.14,0,0,1,2.46.33,4.62,4.62,0,0,1,1.7.93,3.65,3.65,0,0,1,1,1.45A5.58,5.58,0,0,1,72.71,195.69Z"/><path class="cls-3" d="M86.92,199.52a10.77,10.77,0,0,1-1.56,6.3,5.32,5.32,0,0,1-8.6,0,10.77,10.77,0,0,1-1.56-6.3,14.52,14.52,0,0,1,.41-3.61,8,8,0,0,1,1.18-2.65,5.15,5.15,0,0,1,1.85-1.64,5.08,5.08,0,0,1,2.42-.56,5,5,0,0,1,4.3,2.19A10.71,10.71,0,0,1,86.92,199.52Zm-3.56,0a18.82,18.82,0,0,0-.12-2.22,7.57,7.57,0,0,0-.38-1.72,2.8,2.8,0,0,0-.7-1.13,1.59,1.59,0,0,0-1.1-.4,1.53,1.53,0,0,0-1.09.4,2.84,2.84,0,0,0-.7,1.13,7.54,7.54,0,0,0-.39,1.72,18.58,18.58,0,0,0-.12,2.22,19,19,0,0,0,.12,2.23,7.73,7.73,0,0,0,.39,1.74,2.91,2.91,0,0,0,.7,1.13,1.53,1.53,0,0,0,1.09.4,1.55,1.55,0,0,0,1.1-.4,2.63,2.63,0,0,0,.7-1.13,8.08,8.08,0,0,0,.38-1.74A19.12,19.12,0,0,0,83.36,199.52Z"/><path class="cls-3" d="M100.5,207.68c-.18-.56-.38-1.15-.58-1.74s-.42-1.19-.62-1.78H93c-.21.59-.41,1.19-.62,1.78s-.4,1.17-.58,1.74H88q.92-2.62,1.74-4.86c.55-1.49,1.09-2.89,1.61-4.2s1-2.56,1.55-3.74,1-2.33,1.59-3.46h3.47c.53,1.13,1.06,2.28,1.58,3.46s1,2.43,1.57,3.74,1.06,2.71,1.61,4.2,1.13,3.1,1.74,4.86Zm-4.4-12.57q-.12.36-.36,1l-.54,1.41-.67,1.76c-.25.64-.5,1.31-.76,2h4.65l-.72-2c-.23-.64-.45-1.23-.66-1.76l-.55-1.41C96.33,195.66,96.2,195.34,96.1,195.11Z"/><path class="cls-3" d="M49.39,122.75c.45-.19.93-.4,1.42-.65s1-.51,1.44-.8.92-.59,1.35-.91a8.9,8.9,0,0,0,1.16-1H57.2v16.26H53.7v-11.7a11.05,11.05,0,0,1-1.57.86c-.58.26-1.14.48-1.69.67Z"/><path class="cls-3" d="M72.71,123.64a4.36,4.36,0,0,1-.35,1.71,7.23,7.23,0,0,1-.92,1.58,13.36,13.36,0,0,1-1.27,1.47c-.47.47-.93.92-1.38,1.34l-.76.74c-.27.27-.54.55-.79.83s-.47.54-.67.79a1.67,1.67,0,0,0-.36.6h7v2.93H62.36a3.86,3.86,0,0,1,0-.66v-.56a5.68,5.68,0,0,1,.36-2.06,7.6,7.6,0,0,1,.95-1.75A10.5,10.5,0,0,1,65,129.09l1.47-1.41,1.06-1a10.53,10.53,0,0,0,.87-.94,4.31,4.31,0,0,0,.59-.92,2.18,2.18,0,0,0,.21-.93,1.66,1.66,0,0,0-.59-1.45,2.44,2.44,0,0,0-1.45-.42,3.48,3.48,0,0,0-1.18.2,5.87,5.87,0,0,0-1,.47,6.75,6.75,0,0,0-.79.54c-.22.18-.38.32-.49.43L61.9,121.2a8.85,8.85,0,0,1,2.4-1.58,7.14,7.14,0,0,1,2.94-.62,8.14,8.14,0,0,1,2.46.33,4.62,4.62,0,0,1,1.7.93,3.65,3.65,0,0,1,1,1.45A5.5,5.5,0,0,1,72.71,123.64Z"/><path class="cls-3" d="M86.92,127.46a10.77,10.77,0,0,1-1.56,6.3,5.32,5.32,0,0,1-8.6,0,10.77,10.77,0,0,1-1.56-6.3,14.52,14.52,0,0,1,.41-3.61,8,8,0,0,1,1.18-2.65,5.15,5.15,0,0,1,1.85-1.64,5.08,5.08,0,0,1,2.42-.56,5,5,0,0,1,4.3,2.19A10.71,10.71,0,0,1,86.92,127.46Zm-3.56,0a18.82,18.82,0,0,0-.12-2.22,7.57,7.57,0,0,0-.38-1.72,2.8,2.8,0,0,0-.7-1.13,1.59,1.59,0,0,0-1.1-.4,1.53,1.53,0,0,0-1.09.4,2.84,2.84,0,0,0-.7,1.13,7.54,7.54,0,0,0-.39,1.72,18.58,18.58,0,0,0-.12,2.22,19,19,0,0,0,.12,2.23,7.73,7.73,0,0,0,.39,1.74,2.91,2.91,0,0,0,.7,1.13,1.53,1.53,0,0,0,1.09.4,1.55,1.55,0,0,0,1.1-.4,2.63,2.63,0,0,0,.7-1.13,8.08,8.08,0,0,0,.38-1.74A18.87,18.87,0,0,0,83.36,127.46Z"/><path class="cls-3" d="M95,135.84c-.89,0-1.78,0-2.66-.08a17.6,17.6,0,0,1-2.76-.39V119.61a23.43,23.43,0,0,1,2.46-.32c.89-.07,1.72-.11,2.49-.11a16.83,16.83,0,0,1,2.85.22,6.79,6.79,0,0,1,2.24.76,4.09,4.09,0,0,1,1.47,1.42,4.18,4.18,0,0,1,.53,2.17,3.44,3.44,0,0,1-1.88,3.07,3.79,3.79,0,0,1,2.11,1.6,4.53,4.53,0,0,1,.56,2.28,4.38,4.38,0,0,1-1.86,3.85A9.77,9.77,0,0,1,95,135.84Zm-1.85-10.09h1.78a5,5,0,0,0,2.42-.43,1.51,1.51,0,0,0,.73-1.4,1.42,1.42,0,0,0-.75-1.38,4.79,4.79,0,0,0-2.21-.4h-1q-.54,0-1,.06v3.54Zm0,2.79v4.2c.27,0,.55.06.87.07s.66,0,1,0a6.39,6.39,0,0,0,2.65-.47,1.74,1.74,0,0,0,1-1.74,1.71,1.71,0,0,0-.84-1.61,5,5,0,0,0-2.42-.48h-2.3Z"/><path class="cls-3" d="M49.39,37.55c.45-.19.93-.4,1.42-.65s1-.51,1.44-.8.92-.59,1.35-.91a8.9,8.9,0,0,0,1.16-1H57.2V50.43H53.7V38.73a11.05,11.05,0,0,1-1.57.86c-.58.26-1.14.48-1.69.67Z"/><path class="cls-3" d="M72.71,38.44a4.36,4.36,0,0,1-.35,1.71,7.23,7.23,0,0,1-.92,1.58,13.36,13.36,0,0,1-1.27,1.47c-.47.47-.93.92-1.38,1.34l-.76.74c-.27.27-.54.55-.79.83s-.47.54-.67.79a1.67,1.67,0,0,0-.36.6h7v2.93H62.36a3.86,3.86,0,0,1,0-.66v-.56a5.68,5.68,0,0,1,.36-2.06,7.6,7.6,0,0,1,.95-1.75A10.5,10.5,0,0,1,65,43.89l1.47-1.41,1.06-1a10.53,10.53,0,0,0,.87-.94,4.31,4.31,0,0,0,.59-.92,2.18,2.18,0,0,0,.21-.93,1.66,1.66,0,0,0-.59-1.45,2.44,2.44,0,0,0-1.45-.42,3.48,3.48,0,0,0-1.18.2,5.87,5.87,0,0,0-1,.47,6.75,6.75,0,0,0-.79.54c-.22.18-.38.32-.49.43L61.9,36a8.85,8.85,0,0,1,2.4-1.58,7.14,7.14,0,0,1,2.94-.62,8.14,8.14,0,0,1,2.46.33,4.62,4.62,0,0,1,1.7.93,3.65,3.65,0,0,1,1,1.45A5.5,5.5,0,0,1,72.71,38.44Z"/><path class="cls-3" d="M86.92,42.26a10.77,10.77,0,0,1-1.56,6.3,5.32,5.32,0,0,1-8.6,0,10.77,10.77,0,0,1-1.56-6.3,14.52,14.52,0,0,1,.41-3.61A8,8,0,0,1,76.79,36a5.15,5.15,0,0,1,1.85-1.64,5.08,5.08,0,0,1,2.42-.56A5,5,0,0,1,85.36,36,10.71,10.71,0,0,1,86.92,42.26Zm-3.56,0A18.82,18.82,0,0,0,83.24,40a7.57,7.57,0,0,0-.38-1.72,2.8,2.8,0,0,0-.7-1.13,1.59,1.59,0,0,0-1.1-.4,1.53,1.53,0,0,0-1.09.4,2.84,2.84,0,0,0-.7,1.13A7.54,7.54,0,0,0,78.88,40a18.58,18.58,0,0,0-.12,2.22,19,19,0,0,0,.12,2.23,7.73,7.73,0,0,0,.39,1.74,2.91,2.91,0,0,0,.7,1.13,1.53,1.53,0,0,0,1.09.4,1.55,1.55,0,0,0,1.1-.4,2.63,2.63,0,0,0,.7-1.13,8.08,8.08,0,0,0,.38-1.74A19,19,0,0,0,83.36,42.26Z"/><path class="cls-3" d="M97,50.75a7.86,7.86,0,0,1-6-2.21,8.81,8.81,0,0,1-2.08-6.26,9.71,9.71,0,0,1,.63-3.6A7.54,7.54,0,0,1,91.26,36a7.08,7.08,0,0,1,2.63-1.65,9.39,9.39,0,0,1,3.31-.56,10.85,10.85,0,0,1,1.88.15,12.06,12.06,0,0,1,1.48.35,7.62,7.62,0,0,1,1.06.41c.28.14.48.25.61.33l-1.06,3a8.63,8.63,0,0,0-1.75-.68A8.22,8.22,0,0,0,97.16,37a4.93,4.93,0,0,0-1.65.28,3.77,3.77,0,0,0-1.43.9,4.51,4.51,0,0,0-1,1.61,6.73,6.73,0,0,0-.38,2.39,8.28,8.28,0,0,0,.25,2.1,4.37,4.37,0,0,0,.8,1.68,3.82,3.82,0,0,0,1.44,1.11,5.17,5.17,0,0,0,2.16.41,10.23,10.23,0,0,0,1.43-.09c.42-.06.8-.14,1.13-.22a6.32,6.32,0,0,0,.87-.29l.68-.3,1,2.93a8.7,8.7,0,0,1-2.18.84A13.55,13.55,0,0,1,97,50.75Z"/><path class="cls-3" d="M828.41,98.66c.45-.19.93-.4,1.42-.65s1-.51,1.44-.8.92-.59,1.35-.91a8.9,8.9,0,0,0,1.16-1h2.44v16.26h-3.5V99.84a11.05,11.05,0,0,1-1.57.86c-.58.26-1.14.48-1.69.67Z"/><path class="cls-3" d="M851.72,99.56a4.36,4.36,0,0,1-.35,1.71,7.6,7.6,0,0,1-.91,1.58,13.36,13.36,0,0,1-1.27,1.47c-.47.47-.93.92-1.38,1.34l-.76.74c-.27.27-.54.55-.79.83s-.47.54-.67.79a1.67,1.67,0,0,0-.36.6h7v2.93H841.38a3.86,3.86,0,0,1,0-.66v-.56a5.68,5.68,0,0,1,.36-2.06,7.81,7.81,0,0,1,.95-1.75A10.5,10.5,0,0,1,844,105l1.47-1.41,1.06-1a10.53,10.53,0,0,0,.87-.94,4.31,4.31,0,0,0,.59-.92,2.18,2.18,0,0,0,.21-.93,1.66,1.66,0,0,0-.59-1.45,2.44,2.44,0,0,0-1.45-.42,3.48,3.48,0,0,0-1.18.2,6.24,6.24,0,0,0-1,.47,6.75,6.75,0,0,0-.79.54c-.22.18-.38.32-.49.43l-1.74-2.44a8.85,8.85,0,0,1,2.4-1.58,7.11,7.11,0,0,1,2.94-.62,8.14,8.14,0,0,1,2.46.33,4.62,4.62,0,0,1,1.7.93,3.53,3.53,0,0,1,1,1.45A5.28,5.28,0,0,1,851.72,99.56Z"/><path class="cls-3" d="M856.74,111.54a22.88,22.88,0,0,1,.59-3.57,35.41,35.41,0,0,1,1.09-3.64,31.32,31.32,0,0,1,1.44-3.37,19.69,19.69,0,0,1,1.62-2.73h-7.06v-3H865.8v2.53a15.83,15.83,0,0,0-1.65,2.28,26.62,26.62,0,0,0-1.71,3.3,31,31,0,0,0-1.41,4,20.76,20.76,0,0,0-.74,4.22h-3.55Z"/><path class="cls-1" d="M249.65,260.44a2.41,2.41,0,0,0-.3-1.21,2.27,2.27,0,0,0-1.06-.88,7.73,7.73,0,0,0-2-.54,23.11,23.11,0,0,0-3.19-.19c.17-1.45.31-2.93.42-4.43s.2-2.91.26-4.22h8.8v2.93H246.7c0,.56-.07,1.11-.11,1.63s-.08,1-.13,1.37a8.67,8.67,0,0,1,5,1.61,4.7,4.7,0,0,1,1.63,3.81,5.33,5.33,0,0,1-.4,2.09,4.49,4.49,0,0,1-1.2,1.67,5.62,5.62,0,0,1-2,1.1,9,9,0,0,1-2.83.4,12.61,12.61,0,0,1-1.33-.08c-.46-.05-.91-.12-1.34-.21s-.82-.18-1.16-.27a4.77,4.77,0,0,1-.8-.28l.63-2.89a10.15,10.15,0,0,0,1.55.5,9.57,9.57,0,0,0,2.3.25,3.46,3.46,0,0,0,2.35-.65A1.92,1.92,0,0,0,249.65,260.44Z"/><path class="cls-1" d="M244.53,138.61a22.88,22.88,0,0,1,.59-3.57,35.41,35.41,0,0,1,1.09-3.64,31.32,31.32,0,0,1,1.44-3.37,19.69,19.69,0,0,1,1.62-2.73h-7.06v-3h11.38v2.53a15.83,15.83,0,0,0-1.65,2.28,26.62,26.62,0,0,0-1.71,3.3,31,31,0,0,0-1.41,3.95,20.09,20.09,0,0,0-.74,4.22h-3.55Z"/><path class="cls-1" d="M279.11,69.51a5.11,5.11,0,0,1-.36,1.94A4.25,4.25,0,0,1,277.66,73a4.94,4.94,0,0,1-1.82,1,8.07,8.07,0,0,1-2.52.36,7,7,0,0,1-2.73-.46,5.47,5.47,0,0,1-1.76-1.14,3.94,3.94,0,0,1-.95-1.49,4.52,4.52,0,0,1-.28-1.49,4.06,4.06,0,0,1,.19-1.29,3.94,3.94,0,0,1,.52-1.07,5.66,5.66,0,0,1,.74-.88,7.91,7.91,0,0,1,.88-.75,6.44,6.44,0,0,1-1.49-1.62,3.9,3.9,0,0,1-.48-2,4.32,4.32,0,0,1,.39-1.8,4.53,4.53,0,0,1,1.09-1.51,5.44,5.44,0,0,1,1.7-1,6,6,0,0,1,2.22-.39,6.65,6.65,0,0,1,2.45.41,5.16,5.16,0,0,1,1.68,1,3.78,3.78,0,0,1,.95,1.42,4.3,4.3,0,0,1,.29,1.56,3.94,3.94,0,0,1-.6,2.1,4.65,4.65,0,0,1-1.49,1.53,6,6,0,0,1,1.91,1.82A4.31,4.31,0,0,1,279.11,69.51Zm-8.12.14a1.64,1.64,0,0,0,.13.62,1.68,1.68,0,0,0,.41.62,2.48,2.48,0,0,0,.73.47,2.71,2.71,0,0,0,1.08.19,2.37,2.37,0,0,0,1.78-.59,1.88,1.88,0,0,0,.56-1.32,1.81,1.81,0,0,0-.25-1,2.47,2.47,0,0,0-.67-.74,4.51,4.51,0,0,0-1-.56c-.38-.16-.79-.32-1.23-.46a4.61,4.61,0,0,0-1.1,1.15A2.82,2.82,0,0,0,271,69.65Zm4.34-7.72a1.68,1.68,0,0,0-.11-.55,1.56,1.56,0,0,0-.35-.55,1.9,1.9,0,0,0-.62-.43,2.13,2.13,0,0,0-.92-.18,2.21,2.21,0,0,0-.89.16,1.79,1.79,0,0,0-1,1,1.58,1.58,0,0,0-.12.58,2.11,2.11,0,0,0,.55,1.4,4.27,4.27,0,0,0,1.89,1.12,3.64,3.64,0,0,0,1.15-1.08A2.5,2.5,0,0,0,275.33,61.93Z"/><path class="cls-1" d="M273.55,201.89a7.29,7.29,0,0,1,2.59.41,4.91,4.91,0,0,1,1.75,1.11,4.23,4.23,0,0,1,1,1.64,6.48,6.48,0,0,1,.31,2,5.72,5.72,0,0,1-.34,1.92,5.27,5.27,0,0,1-2.79,3.09,5.78,5.78,0,0,1-2.52.52,5.47,5.47,0,0,1-4.46-1.85,7.79,7.79,0,0,1-1.52-5.11,10.94,10.94,0,0,1,.73-4.15,8.16,8.16,0,0,1,2.08-3,9.12,9.12,0,0,1,3.26-1.88,14,14,0,0,1,4.3-.67c0,.48.06,1,.09,1.42s.06.94.09,1.44a14.17,14.17,0,0,0-2.24.22,7.31,7.31,0,0,0-1.9.62,5.26,5.26,0,0,0-1.49,1.09,4.85,4.85,0,0,0-1,1.63,4.07,4.07,0,0,1,1.06-.33A9.37,9.37,0,0,1,273.55,201.89Zm-.44,2.72a7.29,7.29,0,0,0-1.1.09,3.2,3.2,0,0,0-.92.26c0,.06,0,.16,0,.28s0,.23,0,.33a10.29,10.29,0,0,0,.12,1.6,4.29,4.29,0,0,0,.4,1.31,2.25,2.25,0,0,0,.75.88,2,2,0,0,0,1.17.32,1.88,1.88,0,0,0,1-.25,2.24,2.24,0,0,0,.68-.62,2.77,2.77,0,0,0,.4-.83,3.13,3.13,0,0,0,.13-.88,2.6,2.6,0,0,0-.6-1.84A2.64,2.64,0,0,0,273.11,204.61Z"/><path class="cls-4" d="M614.49,706.89H457.78a25.44,25.44,0,0,1-25.45-25.45h0A25.44,25.44,0,0,1,457.78,656H614.49a25.44,25.44,0,0,1,25.45,25.45h0A25.45,25.45,0,0,1,614.49,706.89Z"/><path class="cls-1" d="M459.81,689.45c-1,0-2,0-3.05-.09a21.58,21.58,0,0,1-3.16-.44V670.86a27,27,0,0,1,2.82-.36q1.53-.12,2.85-.12a19.53,19.53,0,0,1,3.27.26,7.78,7.78,0,0,1,2.57.87,4.46,4.46,0,0,1,1.68,1.63,4.78,4.78,0,0,1,.61,2.49,4,4,0,0,1-2.15,3.52,4.43,4.43,0,0,1,2.42,1.83,5.26,5.26,0,0,1,.64,2.61,5,5,0,0,1-2.14,4.41A11.46,11.46,0,0,1,459.81,689.45Zm-2.12-11.55h2a5.72,5.72,0,0,0,2.77-.5,1.7,1.7,0,0,0,.83-1.6,1.66,1.66,0,0,0-.86-1.59,5.59,5.59,0,0,0-2.53-.46h-1.16c-.41,0-.78,0-1.1.07v4.07Zm0,3.19v4.81c.3,0,.64.06,1,.08s.75,0,1.18,0a7.26,7.26,0,0,0,3-.54,2,2,0,0,0,1.16-2,1.94,1.94,0,0,0-1-1.84,5.63,5.63,0,0,0-2.77-.55Z"/><path class="cls-1" d="M476.78,679l2.81-4h4.14L478.82,682a44.86,44.86,0,0,1,3,3.85,37.27,37.27,0,0,1,2.1,3.41h-4.3c-.15-.27-.33-.61-.54-1s-.46-.83-.72-1.26a7,7,0,0,0-.84-1.12c-.29-.3-.58-.58-.86-.83-.27.23-.55.49-.83.77a5.35,5.35,0,0,0-.8,1.05l-.74,1.25c-.24.41-.46.8-.65,1.15h-4.07c.22-.44.52-1,.89-1.58s.77-1.25,1.22-1.9a23.58,23.58,0,0,1,1.43-1.9c.51-.62,1-1.19,1.51-1.73l-2.53-3.6-2.41-3.42H474Z"/><path class="cls-1" d="M498.65,682.12a9.25,9.25,0,0,1-.48,3,6.55,6.55,0,0,1-1.4,2.36,6.25,6.25,0,0,1-2.19,1.52,7.79,7.79,0,0,1-5.7,0,6.25,6.25,0,0,1-2.19-1.52,6.89,6.89,0,0,1-1.42-2.36,8.75,8.75,0,0,1-.51-3,8.47,8.47,0,0,1,.53-3,7,7,0,0,1,1.45-2.34,6.5,6.5,0,0,1,2.2-1.51,7.07,7.07,0,0,1,2.78-.54,7.15,7.15,0,0,1,2.81.54,6.36,6.36,0,0,1,2.19,1.51,6.71,6.71,0,0,1,1.42,2.34A8.62,8.62,0,0,1,498.65,682.12Zm-4.09,0a5.07,5.07,0,0,0-.74-2.92,2.41,2.41,0,0,0-2.11-1.06,2.44,2.44,0,0,0-2.12,1.06,5,5,0,0,0-.75,2.92,5.08,5.08,0,0,0,.75,2.94,2.42,2.42,0,0,0,2.12,1.09,2.38,2.38,0,0,0,2.11-1.09A5.12,5.12,0,0,0,494.56,682.12Z"/><path class="cls-1" d="M500.4,685.93h1.75a6.67,6.67,0,0,0,1.17-2.27,15.3,15.3,0,0,0,.59-2.88c.12-1,.18-2,.2-3s0-1.9,0-2.69h11v10.86h2.39v7.31h-3.41v-4H503.82v4h-3.41v-7.31Zm10.75,0v-7.58h-3.28q-.06.95-.12,1.95a18.64,18.64,0,0,1-.24,2,15.81,15.81,0,0,1-.47,1.92,7.71,7.71,0,0,1-.78,1.72Z"/><path class="cls-1" d="M522.42,694.18h-4.11l9-26h4Z"/><path class="cls-1" d="M539.08,689.45c-1,0-2,0-3.05-.09a21.77,21.77,0,0,1-3.16-.44V670.86a27,27,0,0,1,2.82-.36q1.53-.12,2.85-.12a19.53,19.53,0,0,1,3.27.26,7.86,7.86,0,0,1,2.57.87,4.46,4.46,0,0,1,1.68,1.63,4.78,4.78,0,0,1,.6,2.49,4,4,0,0,1-2.15,3.52,4.43,4.43,0,0,1,2.42,1.83,5.26,5.26,0,0,1,.65,2.61,5,5,0,0,1-2.14,4.41A11.46,11.46,0,0,1,539.08,689.45ZM537,677.9h2a5.72,5.72,0,0,0,2.77-.5,1.72,1.72,0,0,0,.83-1.6,1.66,1.66,0,0,0-.86-1.59,5.59,5.59,0,0,0-2.53-.46h-1.16c-.41,0-.78,0-1.1.07v4.07Zm0,3.19v4.81c.31,0,.64.06,1,.08s.75,0,1.18,0a7.26,7.26,0,0,0,3-.54,2,2,0,0,0,1.16-2,1.94,1.94,0,0,0-1-1.84,5.63,5.63,0,0,0-2.77-.55Z"/><path class="cls-1" d="M554.67,680.1a7,7,0,0,1,1-.18c.4,0,.87-.07,1.38-.07a8.8,8.8,0,0,1,2.33.3,5.67,5.67,0,0,1,1.9.9,4.34,4.34,0,0,1,1.28,1.53,4.77,4.77,0,0,1,.47,2.16,4.86,4.86,0,0,1-.43,2.14,3.87,3.87,0,0,1-1.24,1.48,5.62,5.62,0,0,1-1.92.86,10.09,10.09,0,0,1-2.49.28,29.31,29.31,0,0,1-3.25-.17,25.5,25.5,0,0,1-3-.55V675.07h4v5Zm2,6.32a3.1,3.1,0,0,0,1.73-.42,1.51,1.51,0,0,0,.63-1.36,1.44,1.44,0,0,0-.22-.82,1.62,1.62,0,0,0-.59-.54,2.78,2.78,0,0,0-.87-.28,7.13,7.13,0,0,0-1.06-.08c-.27,0-.57,0-.89.05a7.13,7.13,0,0,0-.72.11v3.23a7.24,7.24,0,0,0,.86.08C555.89,686.41,556.27,686.42,556.66,686.42Zm12.39,2.79h-4V675.07h4Z"/><path class="cls-1" d="M578.42,679l2.81-4h4.14L580.46,682a44.86,44.86,0,0,1,3,3.85,37.27,37.27,0,0,1,2.1,3.41h-4.3c-.15-.27-.33-.61-.54-1s-.46-.83-.72-1.26a7,7,0,0,0-.84-1.12c-.29-.3-.58-.58-.86-.83-.27.23-.55.49-.83.77a5.35,5.35,0,0,0-.8,1.05l-.74,1.25c-.24.41-.46.8-.65,1.15h-4.07c.22-.44.52-1,.89-1.58s.77-1.25,1.22-1.9a23.58,23.58,0,0,1,1.43-1.9c.51-.62,1-1.19,1.51-1.73l-2.53-3.6-2.41-3.42h4.33Z"/><path class="cls-1" d="M600.29,682.12a9.25,9.25,0,0,1-.48,3,6.55,6.55,0,0,1-1.4,2.36,6.25,6.25,0,0,1-2.19,1.52,7.79,7.79,0,0,1-5.7,0,6.25,6.25,0,0,1-2.19-1.52,6.89,6.89,0,0,1-1.42-2.36,8.75,8.75,0,0,1-.51-3,8.47,8.47,0,0,1,.53-3,7,7,0,0,1,1.45-2.34,6.5,6.5,0,0,1,2.2-1.51,7.07,7.07,0,0,1,2.78-.54,7.15,7.15,0,0,1,2.81.54,6.36,6.36,0,0,1,2.19,1.51,6.71,6.71,0,0,1,1.42,2.34A8.62,8.62,0,0,1,600.29,682.12Zm-4.09,0a5.07,5.07,0,0,0-.74-2.92,2.41,2.41,0,0,0-2.11-1.06,2.44,2.44,0,0,0-2.12,1.06,5,5,0,0,0-.75,2.92,5.08,5.08,0,0,0,.75,2.94,2.42,2.42,0,0,0,2.12,1.09,2.38,2.38,0,0,0,2.11-1.09A5.12,5.12,0,0,0,596.2,682.12Z"/><path class="cls-1" d="M602,685.93h1.75a6.67,6.67,0,0,0,1.17-2.27,15.3,15.3,0,0,0,.59-2.88c.12-1,.18-2,.2-3s0-1.9,0-2.69h11v10.86h2.39v7.31h-3.41v-4H605.45v4H602v-7.31Zm10.76,0v-7.58h-3.28q-.06.95-.12,1.95a18.64,18.64,0,0,1-.24,2,15.81,15.81,0,0,1-.47,1.92,7.71,7.71,0,0,1-.78,1.72Z"/><path class="cls-3" d="M631.23,366.09c.43.08.56.12.68.13a1.13,1.13,0,0,1,1.07,1.72c-.12.31-.35.28-.58.27-1.49-.06-3-.11-4.48-.2a1.39,1.39,0,0,1-1-1.82c.64-1.31,1.36-2.58,2-3.9.4-.83.83-.26,1.21-.07s1,.25.58,1a1.71,1.71,0,0,0-.4.93c.31.18.5-.1.71-.22,3-1.74,6.08-3.46,9.08-5.26.75-.45.92-.05,1.19.44s.68.89-.19,1.32c-1.4.69-2.71,1.56-4.07,2.32-.62.34-.77.56,0,1q4.88,2.76,9.71,5.6c.73.43.82.19.82-.51q0-6.27,0-12.54a1.07,1.07,0,0,0-.6-1.06Q641.44,352,636,348.87c-.64-.37-.79-.24-.79.46,0,3.26,0,6.52,0,9.79,0,.79-.19,1-1,1s-1-.28-1-1.05q.06-5.76,0-11.52a2.28,2.28,0,0,1,1.3-2.21c4-2.25,7.87-4.57,11.84-6.8a1.85,1.85,0,0,0,1.17-2.07,13.66,13.66,0,0,1,0-1.81c-.41-.06-.47.24-.56.42-.33.72-.7.79-1.38.33s-.84-.7-.32-1.39c.75-1,1.36-2.11,2.05-3.16a1.33,1.33,0,0,1,2.4,0c.74,1.14,1.42,2.32,2.21,3.42.47.66,0,.83-.4,1.05s-.84.88-1.3,0a6.1,6.1,0,0,0-.53-.74,1.76,1.76,0,0,0-.18,1.16c0,3.3,0,6.59,0,9.89,0,.9-.38.93-1.08,1s-1-.29-.93-1c.05-1.56,0-3.13,0-4.69,0-.59-.15-.74-.69-.43q-5,2.91-10.06,5.81c-.45.26-.43.44,0,.68l11.29,6.52a.81.81,0,0,0,.93,0q5.55-3.22,11.11-6.42c.89-.51.19-.69-.17-.9-2.7-1.57-5.4-3.14-8.13-4.66-.71-.39-.75-.71-.35-1.38s.67-.8,1.37-.38q4.77,2.83,9.61,5.56a2.4,2.4,0,0,1,1.35,2.3c0,4.59,0,9.18,0,13.76a1.68,1.68,0,0,0,1.06,1.83,18.42,18.42,0,0,1,1.74,1c.18-.24,0-.38,0-.52-.48-1-.23-1.48.91-1.8.42-.12.48.16.59.37.7,1.32,1.4,2.64,2.06,4A1.28,1.28,0,0,1,669,368c-1.36.07-2.72.06-4.07.21-1,.11-.89-.47-1-1.09s.21-1,.9-.91a.81.81,0,0,0,.78-.25l-2.07-1.21c-2.53-1.46-5-3-7.6-4.35-.9-.48-.46-.87-.21-1.42s.6-.73,1.22-.34c1.32.83,2.7,1.56,4,2.36.53.31.83.42.82-.4,0-3.81,0-7.61,0-11.42,0-.64-.18-.69-.7-.39-3.67,2.13-7.35,4.26-11,6.36a1.07,1.07,0,0,0-.59,1.06c0,4.18,0,8.36,0,12.54,0,.73.12.91.82.5,2.81-1.65,5.66-3.24,8.45-4.92.76-.46,1-.28,1.46.39s.16,1-.45,1.36c-3.31,1.88-6.61,3.77-9.88,5.7a2.42,2.42,0,0,1-2.75,0c-4-2.35-8-4.61-12-6.95a1.45,1.45,0,0,0-1.83,0C632.73,365.27,632.09,365.58,631.23,366.09Z"/><path class="cls-3" d="M162.91,51.18c-4.66,0-9.32,0-14,0a38.68,38.68,0,0,1-4.81-.4,1.32,1.32,0,0,1-1.3-1.52c0-1.51,0-3,0-4.52a1.36,1.36,0,0,1,1.39-1.55c.85-.1,1.7-.23,2.55-.28a.82.82,0,0,0,.85-.69,7.48,7.48,0,0,1,.83-2.09c.63-.93.34-1.53-.28-2.31-2.22-2.75-2.21-2.28.3-4.81l2-2a1.25,1.25,0,0,1,1.83-.12c.89.69,1.74,1.77,2.72,1.91s2-.81,3-1.13a1.14,1.14,0,0,0,1-1.22c0-.85.19-1.7.31-2.55a1.16,1.16,0,0,1,1.26-1.09h4.93A1.2,1.2,0,0,1,166.74,28c.12.88.26,1.76.33,2.65a.94.94,0,0,0,.79,1,9.4,9.4,0,0,1,2.18.88,1.34,1.34,0,0,0,1.88-.18c.54-.52,1.18-.94,1.77-1.41a1.25,1.25,0,0,1,1.84.06l3.41,3.42a1.28,1.28,0,0,1,.07,1.92c-.56.69-1.08,1.42-1.66,2.09a.83.83,0,0,0-.09,1.1,5.23,5.23,0,0,1,.72,1.58c.25,1.49,1.16,1.87,2.54,2,2.65.21,2.64.29,2.64,2.95,0,1.06,0,2.12,0,3.19a1.31,1.31,0,0,1-1.27,1.54,36.67,36.67,0,0,1-4.19.4Zm11.89-9.79c0-.6-1-1.21-1.48-.94-.73.41-1.19.23-1.34-.58-.11-.59-.53-.53-.93-.53s-.79,0-.89.57-.66,1-1.26.57-.78-.14-1.12.21-.58.6-.21,1.12a.73.73,0,0,1-.47,1.24c-.61.12-.67.43-.67.92s0,.84.63,1a.72.72,0,0,1,.51,1.21c-.36.51-.18.78.19,1.12s.58.6,1.12.23,1.14-.16,1.27.55.41.62.86.62.87,0,1-.59c.16-.79.64-1,1.33-.52.49.35.74,0,1-.27s.63-.53.26-1c-.52-.7-.23-1.17.54-1.33s.56-.56.58-1-.07-.74-.63-.85c-.72-.14-.89-.64-.55-1.29A2.11,2.11,0,0,1,174.8,41.39Zm-18.11,5.86a.93.93,0,0,1,.34.15c.46.45.8.28,1.2-.12s.52-.67.16-1.21a.71.71,0,0,1,.53-1.15c.59-.11.68-.44.66-.94s0-.82-.63-.95a.75.75,0,0,1-.48-1.3c.37-.49.08-.73-.22-1s-.56-.65-1.11-.25a.75.75,0,0,1-1.28-.52c-.11-.58-.44-.6-.87-.6s-.86,0-1,.6-.66,1-1.27.52-.79,0-1.12.26-.56.55-.2,1a.75.75,0,0,1-.48,1.3c-.61.13-.66.44-.67.93s.07.81.66,1,1,.64.49,1.28c-.37.48-.09.72.21,1s.59.65,1.11.25a.71.71,0,0,1,1.23.44c.14.62.45.74,1,.73s.87-.1.88-.71S156.34,47.45,156.69,47.25Z"/><path class="cls-3" d="M177.05,52.75a3.09,3.09,0,0,1-.66,1.66,1,1,0,0,0,.15,1.44c.59.66,1.08,1.42,1.68,2.08s.39.91-.09,1.37c-1,.92-1.92,1.86-2.83,2.83-.46.49-.82.57-1.37.1a9,9,0,0,0-2.6-2c-1-.35-1.88.92-3,1.07-1.59.22-2.1,1.09-2.2,2.67-.15,2.37-.28,2.37-2.67,2.37-.82,0-1.65,0-2.47,0s-1-.29-1.08-1c-.06-.85-.21-1.7-.27-2.55a1,1,0,0,0-.91-1.14,10.39,10.39,0,0,1-3.21-1.33,1,1,0,0,0-1.35.15c-.73.63-1.52,1.18-2.25,1.8a.69.69,0,0,1-1.13-.07c-1-1-2-2.06-3.05-3.06a.73.73,0,0,1,0-1.21c.28-.3.48-.68.77-1,1.12-1.08,1.75-2.2.56-3.66-.36-.44-.09-.64.43-.63,1.23,0,2.47,0,3.7,0a1.07,1.07,0,0,1,.92.52c4.77,6.23,13,6.21,17.76,0,.19-.25.34-.49.72-.49Z"/><path class="cls-3" d="M137.92,24a2.06,2.06,0,0,1,1.26-1.85,2,2,0,0,1,2.21.28,1.86,1.86,0,0,1,.69,2.19,1,1,0,0,0,.39,1.35c1.61,1.33,3.14,2.74,4.76,4.06.64.52.24.76-.11,1.09s-.57.78-1.1.13c-1.32-1.61-2.73-3.15-4.06-4.76a1,1,0,0,0-1.36-.4A2.09,2.09,0,0,1,137.92,24Z"/><path class="cls-3" d="M186.14,21.94a2.06,2.06,0,0,1,1.77,1.31,2,2,0,0,1-.35,2.2,1.84,1.84,0,0,1-2.21.62c-.63-.28-.91,0-1.27.39-1.34,1.59-2.75,3.13-4.06,4.75-.56.69-.8.21-1.18-.12s-.56-.65,0-1.1c1.63-1.35,3.21-2.77,4.83-4.13a.83.83,0,0,0,.31-1.1A2.11,2.11,0,0,1,186.14,21.94Z"/><path class="cls-3" d="M173.38,44a2.31,2.31,0,1,1-2.22-2.34A2.29,2.29,0,0,1,173.38,44Z"/><path class="cls-3" d="M155,46.28A2.3,2.3,0,1,1,157.25,44,2.29,2.29,0,0,1,155,46.28Z"/><path class="cls-3" d="M136.21,204.16c.13-.64.25-1.29.39-1.93a16.7,16.7,0,0,1,3.88-7.42,19.65,19.65,0,0,1,2.62-2.52c0,1.05,0,2.1,0,3.15,0,.38-.4.63-.63.93a12.06,12.06,0,0,0-2.43,9.91,10.34,10.34,0,0,0,4.66,7,8,8,0,0,0,8.21.39,13.74,13.74,0,0,0,3.18-2.34c.33-.3.38-.55,0-.87s-.84-.82-1.23-1.25c-.21-.23-.67-.41-.55-.73a4.92,4.92,0,0,1,.82-1.27c.18-.23.3,0,.41.15.58.57,1.19,1.12,1.72,1.73.4.46.64.41,1.07,0s.31-.7-.07-1.06c-.61-.57-1.17-1.21-1.8-1.76-.39-.35-.42-.63-.08-1a1,1,0,0,0,.21-.32c.28-.62.58-.6,1-.11.63.69,1.34,1.32,2,2,.29.31.51.46.83,0s.77-.57.2-1.09c-.73-.67-1.35-1.46-2.1-2.1-.59-.51-.57-.88-.15-1.49s.6-.63,1.08-.11c.78.84,1.67,1.57,2.43,2.42.51.57.72.15,1.06-.14s.33-.55,0-.88c-.92-.88-1.78-1.82-2.71-2.68-.44-.4-.5-.69-.13-1.19.65-.88.61-.9,1.4-.11s1.79,1.74,2.63,2.65c.41.45.63.4,1.06,0s.32-.69-.06-1.06c-1.08-1-2.11-2.13-3.19-3.17a.57.57,0,0,1-.08-.89c1-1.53,2.06-3.09,3.07-4.64a6.77,6.77,0,0,1,1.47-1.31c.21-.19.36-.06.51.09,1.42,1.42,2.83,2.85,4.27,4.26.33.32.09.46-.1.66-1,1-2,2-3,3-.34.32-.36.52,0,.84.85.8,1.68,1.63,2.48,2.48.38.41.59.33.95,0,.93-1,1.91-1.9,2.85-2.87.29-.3.48-.34.79,0,1.38,1.39,2.78,2.76,4.17,4.14.17.17.34.31.11.57a6.87,6.87,0,0,1-1.44,1.56q-2.25,1.44-4.44,3a.61.61,0,0,1-1-.08c-1.07-1.12-2.21-2.18-3.27-3.31-.43-.46-.64-.23-1,.09s-.55.51-.09.95c1.08,1,2.08,2.09,3.13,3.13.32.31.32.47-.08.72-1.05.68-1,.7-1.9-.16s-1.68-1.63-2.47-2.49c-.5-.54-.66,0-.94.22s-.49.45-.09.82c.93.86,1.79,1.81,2.72,2.67.39.36.33.55-.1.76a1.67,1.67,0,0,0-.38.25c-.45.43-.8.31-1.2-.11-.73-.78-1.54-1.48-2.27-2.26-.56-.59-.75,0-1.08.25s-.14.53.09.76c.72.72,1.42,1.46,2.15,2.16.32.31.43.55-.07.78a1.22,1.22,0,0,0-.38.26c-.44.41-.78.36-1.19-.1-.57-.65-1.24-1.21-1.82-1.85-.33-.37-.56-.32-.84,0s-.66.53-.17,1,1.16,1.21,1.78,1.78c.35.33.28.48-.09.71-1.35.81-.91.76-1.93-.15-.49-.44-.88-1.26-1.44-1.24s-.95.76-1.43,1.18c-4.78,4.19-10.68,4.78-15.75,1.5a13.6,13.6,0,0,1-6.22-9.71c0-.25,0-.51-.16-.73C136.21,205.68,136.21,204.92,136.21,204.16Z"/><path class="cls-3" d="M189.79,192c-.35,0-.49.34-.69.55q-4.71,4.68-9.39,9.39c-.42.42-.64.45-1.06,0-1-1-2-2-3-3-.19-.19-.49-.4-.11-.66s.4-.85,1-.5c.45.25.86.83,1.37.65s.74-.67,1.1-1c1.29-1.3,2.59-2.59,3.86-3.91.34-.36.55-.46.95,0,.87.92.9.89,1.78,0s1.61-1.56,2.37-2.38c.38-.41.64-.47,1,0a7.6,7.6,0,0,0,.76.74Z"/><path class="cls-3" d="M163.6,191.67a2.8,2.8,0,0,1,.27-1.54,3.78,3.78,0,0,0,0-2.53c-.09-.32-.44-.44-.82-.43-.81,0-1.63,0-2.44,0-.47,0-.65-.15-.6-.61,0-.12,0-.26,0-.38.08-.74-.25-1-1-.9s-1-.21-.94-.85c0-.82-.37-1-1.1-1-1.3,0-2.6.06-3.89,0-.61,0-.85.23-.81.77.07.91-.36,1.22-1.21,1.11-.53-.07-.69.17-.7.69,0,1.16-.07,1.15-1.25,1.16H147.3c-.59,0-.91.27-.91.87s-.24,1.55.08,2c.52.74.29,1.45.37,2.16,0,.34.07.71-.32.94-.18.1-.13.32-.14.49V196a.82.82,0,0,0,1,.92c.76,0,1.53,0,2.29,0,.41,0,.52-.16.52-.54,0-1.14,0-2.29,0-3.43,0-.31,0-.62.44-.62s.41.34.41.63c0,1.14,0,2.29,0,3.43,0,.34,0,.58.48.58s.46-.26.46-.59q0-1.68,0-3.36c0-.31-.17-.75.45-.74s.4.42.41.71c0,1.12,0,2.24,0,3.36,0,.42.11.58.55.6s.42-.32.42-.61c0-1.14,0-2.29,0-3.43,0-.3-.06-.62.43-.62s.43.3.43.61c0,1.17,0,2.34,0,3.51,0,.34,0,.57.47.57s.55-.19.55-.6c0-1.17,0-2.34,0-3.51,0-.27,0-.56.39-.58s.45.29.45.6c0,1.17,0,2.34,0,3.51,0,.42.11.59.55.58s.49-.22.48-.57c0-1.14,0-2.29,0-3.43,0-.3-.13-.7.43-.68s.38.38.39.65c0,1.14,0,2.29,0,3.43,0,.32,0,.61.46.58s.56-.18.55-.6c0-1.17,0-2.34,0-3.51,0-.28-.05-.56.4-.55s.45.22.45.53c0,1.25,0,2.49,0,3.74,0,.84-.73,1.37-1.17,2-.24.35-.72.16-1.08.16-3.89,0-7.78,0-11.67,0-1.28,0-1.69-.44-1.69-1.69q0-6.22,0-12.44c0-.38,0-.76,0-1.14,0-1.22.46-1.67,1.66-1.68q6.06,0,12.13,0c1.91,0,3.82,0,5.72,0,1.08,0,1.55.45,1.57,1.52,0,2,0,4,.07,6a.82.82,0,0,1-.37.77A7.85,7.85,0,0,0,163.6,191.67Z"/><path class="cls-3" d="M182.75,192.29l-.44.47c-1.36,1.37-2.74,2.72-4.09,4.11a.69.69,0,0,1-1,.15c-1.07-.66-1.08-.63-1.95.25-1.08,1.08-2.16,2.15-3.23,3.24-.3.31-.51.44-.84,0s-1.34-.94-1.36-1.55.85-1,1.32-1.49c.83-.86,1.66-1.72,2.52-2.55.39-.37.53-.71.14-1.16-.58-.66-.52-1.18.18-1.81,1.34-1.21,2.57-2.53,3.84-3.81.23-.23.39-.41.72-.08,1.29,1.3,2.61,2.57,3.91,3.85C182.56,192.05,182.64,192.17,182.75,192.29Z"/><path class="cls-3" d="M179.91,182.08c-.11.12-.22.26-.34.38-1,1-1.95,1.93-2.95,2.87-.32.3-.38.48,0,.83.93.92.91.94,0,1.9-1.27,1.28-2.51,2.59-3.83,3.83a1.06,1.06,0,0,0-.19,1.66c.18.25.61.52.2,1-.65.74-.65.76-1.37.05-.92-.91-1.82-1.85-2.76-2.74-.4-.38-.36-.59,0-1q4.77-4.73,9.48-9.5c.53-.54.87-.54,1.28,0C179.53,181.64,179.81,181.77,179.91,182.08Z"/><path class="cls-3" d="M182,190.39c-.15-.13-.3-.26-.44-.4s0-.31.11-.43c.89-.9,1.8-1.79,2.68-2.69.23-.23.38-.17.55,0s.37.3.11.56c-.94.92-1.87,1.86-2.8,2.79A1.51,1.51,0,0,1,182,190.39Z"/><path class="cls-3" d="M178,186.44a4.8,4.8,0,0,1-.4-.39c-.19-.22,0-.31.15-.42l2.58-2.57c.19-.19.35-.35.62-.08s.23.38,0,.62c-.88.88-1.73,1.78-2.6,2.66C178.26,186.35,178.19,186.47,178,186.44Z"/><path class="cls-3" d="M187.69,189.68a.68.68,0,0,1-.29.56c-.81.84-1.64,1.67-2.44,2.51-.23.24-.39.32-.67,0s-.2-.43,0-.66l2.53-2.53c.11-.11.21-.34.43-.23A2.68,2.68,0,0,1,187.69,189.68Z"/><path class="cls-3" d="M179.28,187.92c-.15-.21-.29-.39-.41-.58s0-.27.15-.37l2.64-2.62c.22-.22.38-.25.63,0s.1.43-.08.61l-2.54,2.62Z"/><path class="cls-3" d="M183.27,191.71a4.27,4.27,0,0,1-.44-.41c-.14-.16,0-.27.09-.38l2.74-2.75c.2-.2.35-.15.5,0s.39.24.15.48l-2.82,2.88A1.39,1.39,0,0,1,183.27,191.71Z"/><path class="cls-3" d="M183.88,185.84c-.15.18-.22.28-.31.37-.85.88-1.7,1.75-2.54,2.63-.2.21-.35.32-.62,0s-.28-.41,0-.67c.88-.84,1.74-1.71,2.61-2.57.11-.11.23-.31.44-.14S183.73,185.73,183.88,185.84Z"/><path class="cls-3" d="M137.19,130.32v-3.64a6,6,0,0,0,.13-.61,22.43,22.43,0,0,1,16.81-19.3c1.2-.3,2.43-.4,3.63-.67h3.64a6,6,0,0,0,.61.13A22.44,22.44,0,0,1,181.29,123c.3,1.22.41,2.47.68,3.7v3.64c0,.2-.11.4-.13.6a22.36,22.36,0,0,1-17.49,19.44c-1,.21-2,.35-2.95.52h-3.64a1,1,0,0,0-.53-.13A22.41,22.41,0,0,1,137.88,134C137.56,132.8,137.45,131.55,137.19,130.32Zm42.31-1.83a19.92,19.92,0,1,0-19.91,19.93A19.89,19.89,0,0,0,179.5,128.49Z"/><path class="cls-3" d="M159.71,116.33H171c1.61,0,2.34.73,2.34,2.36v14.62c0,1.87-.65,2.51-2.53,2.51-2.82,0-5.64,0-8.46,0-.5,0-.8.06-.72.67s-.31,1.72.17,2.14,1.38.11,2.1.12,1.59,0,2.38,0a1.26,1.26,0,0,1,1.22,1.73c-.07.22-.22.21-.38.21h-1c-4.43,0-8.86,0-13.29,0-.3,0-.79.29-.88-.34-.11-.78.12-1.34.68-1.52a2.28,2.28,0,0,1,.69-.07c1.31,0,2.61,0,3.92,0,.49,0,.58-.18.56-.61a13.45,13.45,0,0,1,0-1.68c.05-.54-.16-.66-.67-.66-2.87,0-5.74,0-8.6,0-1.75,0-2.41-.66-2.41-2.4V118.8c0-1.82.66-2.47,2.49-2.47Zm0,2c-3.66,0-7.32,0-11,0-.55,0-.7.15-.7.7q0,6.12,0,12.24c0,.52.11.72.68.72q11,0,22,0c.55,0,.71-.15.71-.71,0-4.08,0-8.16,0-12.24,0-.62-.21-.71-.76-.71C167,118.3,163.37,118.28,159.71,118.28Zm1,15.61a1,1,0,0,0-1-1,1,1,0,0,0-1,1,1,1,0,0,0,.94.94A1,1,0,0,0,160.7,133.89Z"/><path class="cls-3" d="M135.2,263.4c0-1.33,0-2.66,0-4,0-.59.14-.82.75-.79,1,.05,2.09,0,3.14,0a.75.75,0,0,0,.86-.61,14.88,14.88,0,0,1,1.26-2.93.77.77,0,0,0-.11-1.06c-.64-.69-1.23-1.44-1.87-2.13-.32-.35-.31-.58,0-.92,1.74-1.78,3.46-3.58,5.17-5.38.28-.3.46-.3.76,0,.75.66,1.53,1.29,2.28,1.94a.61.61,0,0,0,.82.13,13.12,13.12,0,0,1,3.3-1.33.69.69,0,0,0,.58-.8c0-.92,0-1.85,0-2.77,0-.45.17-.6.6-.6,2.4,0,4.81,0,7.21,0,.43,0,.6.12.59.59q0,1.56,0,3.12c0,.7-.44.53-.81.53s-.86.18-.8-.52v-.09c-.09-.64.32-1.51-.2-1.88s-1.2-.1-1.82-.1c-.85,0-1.7,0-2.55,0-.46,0-.66.13-.65.63,0,.81-.08,1.62-.07,2.43a.66.66,0,0,1-.61.76,13.29,13.29,0,0,0-5,2.08c-.31.23-.5.08-.73-.12-.65-.56-1.32-1.09-1.95-1.67-.36-.33-.6-.39-1,0q-1.47,1.62-3,3.16c-.35.35-.33.56,0,.91.67.74,1.66,1.44,1.84,2.31S142.42,256,142,257a16.15,16.15,0,0,0-.93,2.69.67.67,0,0,1-.81.63c-.93,0-1.87,0-2.8,0-.48,0-.72.1-.71.66q0,2.43,0,4.86c0,.56.22.68.71.66.88,0,1.76,0,2.63,0a.75.75,0,0,1,.92.71,18.35,18.35,0,0,0,2.23,5.77c.22.35.11.56-.11.84-.59.74-1.15,1.51-1.75,2.24-.28.35-.33.59,0,.94q1.58,1.57,3.1,3.21c.32.34.53.29.82,0,.64-.65,1.33-1.26,2-1.92a.63.63,0,0,1,.94-.13,14.74,14.74,0,0,0,5,2.12c.41.09.54.29.53.71,0,1,0,2.08,0,3.12,0,.49.16.66.64.65,1.3,0,2.6,0,3.9,0,.54,0,.67-.21.66-.71,0-1,0-2,0-3,0-.73.42-.59.83-.6s.83-.1.8.62c0,1.59,0,3.18,0,4.77,0,.46-.16.59-.59.59-2.4,0-4.81,0-7.21,0-.51,0-.61-.2-.6-.66,0-1.13,0-2.26,0-3.38a.74.74,0,0,0-.61-.86,13,13,0,0,1-3-1.31.71.71,0,0,0-1,.18c-.73.73-1.49,1.41-2.21,2.15-.32.33-.5.3-.8,0-1.71-1.81-3.43-3.6-5.18-5.37-.36-.36-.28-.59,0-.92.65-.8,1.26-1.64,1.9-2.44a.8.8,0,0,0,.1-1,19,19,0,0,1-1.5-3.95c-.13-.48-.34-.65-.82-.63-1,0-2,0-3,0-.62,0-.76-.2-.74-.79C135.22,266,135.2,264.7,135.2,263.4Z"/><path class="cls-3" d="M159.44,274.24c1.32,0,2.4,0,3.47,0a1.06,1.06,0,0,1,1,.56c1.37,2,2.77,4.08,4.14,6.13.32.48.57.69,1.21.47a3.62,3.62,0,0,1,4.39,1.86,3.91,3.91,0,0,1-.89,4.72,3.68,3.68,0,0,1-4.7.14,3.81,3.81,0,0,1-1.1-4.73,1.2,1.2,0,0,0-.14-1.46c-1.25-1.78-2.48-3.59-3.68-5.4a1.28,1.28,0,0,0-1.18-.64,62.19,62.19,0,0,1-6.69-.13,12.23,12.23,0,0,1-10.79-12.13c.06-6.52,5.57-12.41,11.94-12.77.37,0,.79-.1.71.51-.06.46.3,1.07-.65,1.16a11.42,11.42,0,0,0-10.37,11.7,10.58,10.58,0,0,0,8.22,9.69A23.66,23.66,0,0,0,159.44,274.24Zm13.08,10.83a2.16,2.16,0,0,0-2.12-2.22,2.13,2.13,0,0,0-2.17,2.16,2.15,2.15,0,1,0,4.29.06Z"/><path class="cls-3" d="M161.29,257.76c1.33,0,2.66,0,4,0a1.5,1.5,0,0,0,1.5-.84c1-1.58,2.05-3.12,3.06-4.68a1,1,0,0,1,1-.56c.22,0,.45,0,.68,0a2.58,2.58,0,0,0,2.87-1.27c.85-1.44,2.91-1.68,4.43-.92a3.83,3.83,0,0,1,2,4.2,3.75,3.75,0,0,1-3.51,3.09,3.68,3.68,0,0,1-3.72-2.7c-.17-.65-.48-.73-1.05-.79a2.17,2.17,0,0,0-2.37,1.3c-.83,1.44-1.82,2.78-2.71,4.19a1.18,1.18,0,0,1-1.17.63q-4.62,0-9.24,0a4.37,4.37,0,0,0-.8,8.65,10.59,10.59,0,0,0,2.11.09c.45,0,.57.23.49.58s.33.92-.34,1.07a6.41,6.41,0,0,1-6.51-3,6,6,0,0,1,5-9.08C158.46,257.72,159.87,257.76,161.29,257.76Zm18-4.85a2.15,2.15,0,1,0-2.12,2.22A2.16,2.16,0,0,0,179.31,252.91Z"/><path class="cls-3" d="M166.19,268.17c.7-.23,1.16.25,1.61.88.87,1.24,1.83,2.42,2.7,3.67a1.47,1.47,0,0,0,1.34.68,2.27,2.27,0,0,0,2.43-1.13,3.46,3.46,0,0,1,4.46-1.14,3.9,3.9,0,0,1,2.16,4.05,3.84,3.84,0,0,1-3.53,3.3,3.71,3.71,0,0,1-3.76-2.65c-.19-.67-.47-.93-1.1-.8a3.21,3.21,0,0,1-3.68-1.82c-.58-1-1.4-1.89-2.08-2.84a1,1,0,0,0-1.06-.53c-.74.14-.78-.28-.81-.88s.27-.85.85-.77A4.55,4.55,0,0,1,166.19,268.17Zm13.11,6.44a2.15,2.15,0,1,0-2.12,2.21A2.16,2.16,0,0,0,179.3,274.61Z"/><path class="cls-3" d="M171.31,263c1.27,0,2.54,0,3.81,0,.55,0,.83-.09,1-.72a3.69,3.69,0,0,1,3.85-2.74,3.86,3.86,0,0,1,.93,7.48,3.63,3.63,0,0,1-4.48-1.81.94.94,0,0,0-1-.58c-2.68,0-5.37,0-8.05,0-.72,0-.8-.28-.83-.9s.28-.79.85-.78C168.71,263,170,263,171.31,263Zm8.39,2.58a2.2,2.2,0,1,0-2.14-2.21A2.15,2.15,0,0,0,179.7,265.55Z"/><path class="cls-3" d="M163.23,251.82c-.11-.7,0-1.12.69-1a.91.91,0,0,0,.86-.43q1.71-2,3.46-4a1,1,0,0,0,.22-1.08,3.83,3.83,0,0,1,2-4.47,3.72,3.72,0,0,1,4.57,1.14,3.88,3.88,0,0,1-.14,4.87,3.61,3.61,0,0,1-4.68.8c-.56-.34-.8-.21-1.16.23-1.14,1.39-2.32,2.75-3.49,4.12a2.54,2.54,0,0,1-2.16.5C163.05,252.27,163.27,251.94,163.23,251.82Zm11-7.6a2.14,2.14,0,0,0-2.19-2.14,2.2,2.2,0,1,0,2.19,2.14Z"/><path class="cls-3" d="M161.8,269.81c-.33-.22-1.12.49-1.17-.62,0-.82.17-1.19,1-1a2.9,2.9,0,0,0,.51,0c.9,0,1.27.56.95,1.4C163,269.81,163,269.81,161.8,269.81Z"/><path class="cls-3" d="M159.85,252.45c-.62.1-1,0-.92-.73,0-.57,0-1,.79-.92s.9.16.86.87S160.52,252.67,159.85,252.45Z"/><path class="cls-3" d="M159.78,263c.75-.19.78.25.81.86s-.26.76-.84.8c-.74.05-.8-.29-.82-.9S159.17,262.86,159.78,263Z"/><path class="cls-3" d="M164.8,263.83c.19.8-.32.75-.87.8-.73.07-.71-.33-.76-.88-.07-.79.34-.78.91-.81S164.9,263.24,164.8,263.83Z"/><line class="cls-5" x1="765.33" y1="188.29" x2="805.33" y2="188.29"/><path class="cls-6" d="M817.4,188.29c-5.68,2.11-12.73,5.7-17.09,9.51l3.44-9.51-3.44-9.51C804.68,182.59,811.72,186.19,817.4,188.29Z"/><line class="cls-5" x1="744.7" y1="270.26" x2="744.7" y2="467.24"/><path class="cls-6" d="M744.7,479.31c-2.11-5.68-5.7-12.73-9.51-17.09l9.51,3.44,9.51-3.44C750.4,466.59,746.8,473.63,744.7,479.31Z"/><line class="cls-5" x1="544.34" y1="497.08" x2="753.09" y2="497.08"/><path class="cls-6" d="M765.16,497.08c-5.68,2.11-12.73,5.7-17.09,9.51l3.44-9.51-3.44-9.51C752.43,491.38,759.48,495,765.16,497.08Z"/><line class="cls-5" x1="544.34" y1="642.6" x2="544.34" y2="509.15"/><path class="cls-6" d="M544.34,497.08c2.11,5.68,5.7,12.73,9.51,17.09l-9.51-3.44-9.51,3.44C538.64,509.8,542.24,502.76,544.34,497.08Z"/><line class="cls-5" x1="274.52" y1="479.31" x2="274.52" y2="233.25"/><path class="cls-6" d="M274.52,221.18c2.11,5.68,5.7,12.73,9.51,17.09l-9.51-3.44L265,238.27C268.82,233.91,272.41,226.86,274.52,221.18Z"/><line class="cls-5" x1="274.52" y1="188.06" x2="274.52" y2="95.26"/><path class="cls-6" d="M274.52,83.19c2.11,5.68,5.7,12.73,9.51,17.09l-9.51-3.44L265,100.28C268.82,95.92,272.41,88.87,274.52,83.19Z"/><line class="cls-5" x1="744.7" y1="479.31" x2="286.59" y2="479.31"/><path class="cls-6" d="M274.52,479.31c5.68-2.11,12.73-5.7,17.09-9.51l-3.44,9.51,3.44,9.51C287.25,485,280.2,481.42,274.52,479.31Z"/><line class="cls-5" x1="901.13" y1="261.51" x2="843.08" y2="261.51"/><path class="cls-6" d="M831,261.51c5.68-2.11,12.73-5.7,17.09-9.51l-3.44,9.51L848.1,271C843.74,267.21,836.69,263.61,831,261.51Z"/><line class="cls-5" x1="798.41" y1="261.51" x2="698.77" y2="261.51"/><path class="cls-6" d="M686.69,261.51c5.68-2.11,12.73-5.7,17.09-9.51l-3.44,9.51,3.44,9.51C699.42,267.21,692.37,263.61,686.69,261.51Z"/><line class="cls-5" x1="765.33" y1="497.08" x2="765.33" y2="188.39"/><path class="cls-6" d="M833.93,172.48c-3.13,3.13-9.33,4.63-13.63,4.75,5.77-4.3,10.81-9.88,13.63-16.64,2.7,6.76,8,12.1,13.63,16.64C843,176.87,837.37,175.74,833.93,172.48Z"/><path class="cls-6" d="M917.68,277.11c3.13-3.13,9.33-4.63,13.63-4.75-5.77,4.3-10.81,9.88-13.63,16.64-2.7-6.76-8-12.1-13.63-16.64C908.65,272.73,914.24,273.86,917.68,277.11Z"/><circle class="cls-7" cx="833.93" cy="188.29" r="16.56"/><circle class="cls-7" cx="917.68" cy="261.51" r="16.56"/><path class="cls-6" d="M815,276.64c3.13-3.13,9.33-4.63,13.63-4.75-5.77,4.3-10.81,9.88-13.63,16.64-2.7-6.76-8-12.1-13.63-16.64C805.94,272.26,811.53,273.39,815,276.64Z"/><circle class="cls-7" cx="814.97" cy="260.8" r="16.56"/><path class="cls-6" d="M670.13,276.64c3.13-3.13,9.33-4.63,13.63-4.75-5.77,4.3-10.81,9.88-13.63,16.64-2.7-6.76-8-12.1-13.63-16.64C661.11,272.26,666.7,273.39,670.13,276.64Z"/><circle class="cls-7" cx="670.13" cy="260.8" r="16.56"/><path class="cls-6" d="M232.59,257.5c3.13,3.13,4.63,9.33,4.75,13.63-4.3-5.77-9.88-10.81-16.64-13.63,6.76-2.7,12.1-8,16.64-13.63C237,248.47,235.85,254.06,232.59,257.5Z"/><path class="cls-6" d="M232.8,131c3.13,3.13,4.63,9.33,4.75,13.63-4.3-5.77-9.88-10.81-16.64-13.63,6.76-2.7,12.1-8,16.64-13.63C237.18,121.94,236.06,127.53,232.8,131Z"/><circle class="cls-7" cx="248.04" cy="257.59" r="16.56"/><circle class="cls-7" cx="248.04" cy="130.97" r="16.56"/><circle class="cls-7" cx="273.52" cy="66.4" r="16.56"/><circle class="cls-7" cx="273.52" cy="204.62" r="16.56"/><polyline class="cls-5" points="850.49 188.29 917.68 188.29 917.68 232.88"/><path class="cls-6" d="M917.68,245c-2.11-5.68-5.7-12.73-9.51-17.09l9.51,3.44,9.51-3.44C923.39,232.22,919.79,239.27,917.68,245Z"/><line class="cls-5" x1="264.6" y1="257.59" x2="274.52" y2="257.59"/><line class="cls-5" x1="264.6" y1="131.14" x2="274.52" y2="131.14"/><path class="cls-3" d="M830.7,131.82c-3.15-3.56-2-7.47,0-9.39a6.58,6.58,0,0,1,9.31,9.29h6.06a8.7,8.7,0,0,1-2.76-8.21,8.24,8.24,0,0,1,3.32-5.26,8.68,8.68,0,0,1,11,13.44,4.82,4.82,0,0,0,1.64.09c2,0,2.86.9,2.88,2.86,0,.46,0,.91,0,1.46l5.35-1.33a3.43,3.43,0,0,1,1.59-.16,2,2,0,0,1,1.58,2c0,3.43.05,6.85,0,10.28,0,1.6-1.2,2.39-2.81,2s-3.37-.83-5.06-1.27c-.47-.12-.72-.09-.65.49a7.64,7.64,0,0,1,0,1.07,2.42,2.42,0,0,1-2.6,2.58H831.68c-2,0-2.87-.88-2.87-2.91,0-4.71,0-9.41,0-14.12A2.65,2.65,0,0,1,830.7,131.82Zm14.76,17.91h0q6.9,0,13.81,0c.6,0,.8-.19.8-.8q0-7.09,0-14.19c0-.7-.2-.93-.91-.93q-13.65,0-27.31,0c-.76,0-1,.2-1,1q0,7,0,14c0,.75.24,1,1,.95Zm6.39-31.14a6.6,6.6,0,1,0,6.59,6.66A6.59,6.59,0,0,0,851.85,118.59Zm-21,8.46a4.49,4.49,0,1,0,4.53-4.44A4.51,4.51,0,0,0,830.82,127.05Zm37.76,14.75c0-1.53,0-3.06,0-4.59,0-.46-.12-.57-.57-.46-1.8.47-3.61.91-5.41,1.35a.55.55,0,0,0-.49.63q0,3.06,0,6.12a.54.54,0,0,0,.49.62q2.71.65,5.41,1.35c.43.11.57,0,.57-.44C868.57,144.87,868.58,143.33,868.58,141.8Z"/><path class="cls-3" d="M842.18,147.19h-5.13c-1.66,0-2.4-.74-2.41-2.37,0-2,0-4.09,0-6.13a2,2,0,0,1,2.27-2.28h10.8a2,2,0,0,1,2.18,2.15c0,2.14,0,4.29,0,6.43a2,2,0,0,1-2.27,2.21Zm0-1.38c1.76,0,3.53,0,5.29,0,.72,0,1-.29,1-1q0-3,0-6.06c0-.67-.26-1-1-1H837.05c-.88,0-1,.16-1,1q0,3,0,5.91c0,.94.14,1.08,1.07,1.08Z"/><path class="cls-3" d="M855.29,137c.46,0,.92,0,1.37,0a1,1,0,0,1,0,2c-1,0-2,0-3,0a.93.93,0,0,1-.92-.95,1,1,0,0,1,.89-1.05c.53-.06,1.07,0,1.6,0Z"/><path class="cls-1" d="M482.63,156.31v-22.6h-34v22.6H461v4.62h-5v1h19.29v-1h-5v-4.62ZM452,152.74V137.28h27.2v15.46Z"/><path class="cls-1" d="M482.63,110.12V87.52h-34v22.6H461v4.62h-5v1h19.29v-1h-5v-4.62ZM452,106.55V91.09h27.2v15.46Z"/><path class="cls-1" d="M482.63,65.21V42.61h-34v22.6H461v4.62h-5v1h19.29v-1h-5V65.21ZM452,61.63V46.17h27.2V61.63Z"/><path class="cls-1" d="M549.6,134.41v-22.6h-34v22.6h12.37V139h-5v1h19.29v-1h-5v-4.62ZM519,130.84V115.38h27.2v15.46Z"/><path class="cls-1" d="M549.6,87.67V65.07h-34v22.6h12.37v4.62h-5v1h19.29v-1h-5V87.67ZM519,84.1V68.64h27.2V84.1Z"/><path class="cls-1" d="M549.6,178.51v-22.6h-34v22.6h12.37v4.62h-5v1h19.29v-1h-5v-4.62ZM519,174.94V159.48h27.2v15.46Z"/><rect class="cls-1" x="497.78" y="108.05" width="2.62" height="80.66"/><rect class="cls-1" x="495.93" y="118.03" width="6.32" height="14.62"/><rect class="cls-1" x="495.93" y="162.71" width="6.32" height="14.62"/><rect class="cls-1" x="499.09" y="169.13" width="13.22" height="2.25"/><rect class="cls-1" x="499.09" y="124.79" width="13.22" height="2.25"/><rect class="cls-1" x="485.87" y="146.69" width="13.22" height="2.25"/><rect class="cls-1" x="497.78" y="39.41" width="2.62" height="80.66"/><rect class="cls-1" x="495.93" y="49.4" width="6.32" height="14.62"/><rect class="cls-1" x="495.93" y="94.07" width="6.32" height="14.62"/><rect class="cls-1" x="485.88" y="100.5" width="13.22" height="2.25"/><rect class="cls-1" x="485.88" y="56.16" width="13.22" height="2.25"/><rect class="cls-1" x="499.09" y="78.05" width="13.22" height="2.25"/><path class="cls-1" d="M482.63,342.31v-22.6h-34v22.6H461v4.62h-5v1h19.29v-1h-5v-4.62ZM452,338.74V323.28h27.2v15.46Z"/><path class="cls-1" d="M482.63,296.12v-22.6h-34v22.6H461v4.62h-5v1h19.29v-1h-5v-4.62ZM452,292.55V277.09h27.2v15.46Z"/><path class="cls-1" d="M482.63,251.2V228.6h-34v22.6H461v4.62h-5v1h19.29v-1h-5V251.2ZM452,247.63V232.17h27.2v15.46Z"/><path class="cls-1" d="M549.6,320.41v-22.6h-34v22.6h12.37V325h-5v1h19.29v-1h-5v-4.62ZM519,316.84V301.38h27.2v15.46Z"/><path class="cls-1" d="M549.6,273.67v-22.6h-34v22.6h12.37v4.62h-5v1h19.29v-1h-5v-4.62ZM519,270.1V254.64h27.2V270.1Z"/><path class="cls-1" d="M549.6,364.51v-22.6h-34v22.6h12.37v4.62h-5v1h19.29v-1h-5v-4.62ZM519,360.94V345.48h27.2v15.46Z"/><rect class="cls-1" x="497.78" y="294.05" width="2.62" height="80.66"/><rect class="cls-1" x="495.93" y="304.03" width="6.32" height="14.62"/><rect class="cls-1" x="495.93" y="348.71" width="6.32" height="14.62"/><rect class="cls-1" x="499.09" y="355.13" width="13.22" height="2.25"/><rect class="cls-1" x="499.09" y="310.79" width="13.22" height="2.25"/><rect class="cls-1" x="485.87" y="332.69" width="13.22" height="2.25"/><rect class="cls-1" x="497.78" y="225.41" width="2.62" height="80.66"/><rect class="cls-1" x="495.93" y="235.4" width="6.32" height="14.62"/><rect class="cls-1" x="495.93" y="280.07" width="6.32" height="14.62"/><rect class="cls-1" x="485.88" y="286.5" width="13.22" height="2.25"/><rect class="cls-1" x="485.88" y="242.16" width="13.22" height="2.25"/><rect class="cls-1" x="499.09" y="264.05" width="13.22" height="2.25"/><line class="cls-2" x1="746.07" y1="76.22" x2="746.07" y2="142.66"/><line class="cls-2" x1="694.13" y1="114.41" x2="694.13" y2="123.67"/><line class="cls-2" x1="694.13" y1="134.21" x2="694.13" y2="143.47"/><line class="cls-2" x1="694.13" y1="154.02" x2="694.13" y2="163.28"/><line class="cls-2" x1="694.13" y1="173.82" x2="694.13" y2="183.08"/><line class="cls-2" x1="664.83" y1="114.41" x2="664.83" y2="123.67"/><line class="cls-2" x1="664.83" y1="134.21" x2="664.83" y2="143.47"/><line class="cls-2" x1="664.83" y1="154.02" x2="664.83" y2="163.28"/><line class="cls-2" x1="664.83" y1="173.82" x2="664.83" y2="183.08"/><line class="cls-2" x1="635.53" y1="114.41" x2="635.53" y2="123.67"/><line class="cls-2" x1="635.53" y1="134.21" x2="635.53" y2="143.47"/><line class="cls-2" x1="635.53" y1="154.02" x2="635.53" y2="163.28"/><line class="cls-2" x1="635.53" y1="173.82" x2="635.53" y2="183.08"/><line class="cls-2" x1="606.24" y1="114.41" x2="606.24" y2="123.67"/><line class="cls-2" x1="606.24" y1="134.21" x2="606.24" y2="143.47"/><line class="cls-2" x1="606.24" y1="154.02" x2="606.24" y2="163.28"/><line class="cls-2" x1="606.24" y1="173.82" x2="606.24" y2="183.08"/><line class="cls-2" x1="694.13" y1="34.31" x2="694.13" y2="43.57"/><line class="cls-2" x1="694.13" y1="54.11" x2="694.13" y2="63.37"/><line class="cls-2" x1="694.13" y1="73.92" x2="694.13" y2="83.18"/><line class="cls-2" x1="694.13" y1="93.72" x2="694.13" y2="102.98"/><line class="cls-2" x1="664.83" y1="34.31" x2="664.83" y2="43.57"/><line class="cls-2" x1="664.83" y1="54.11" x2="664.83" y2="63.37"/><line class="cls-2" x1="664.83" y1="73.92" x2="664.83" y2="83.18"/><line class="cls-2" x1="664.83" y1="93.72" x2="664.83" y2="102.98"/><line class="cls-2" x1="635.53" y1="34.31" x2="635.53" y2="43.57"/><line class="cls-2" x1="635.53" y1="54.11" x2="635.53" y2="63.37"/><line class="cls-2" x1="635.53" y1="73.92" x2="635.53" y2="83.18"/><line class="cls-2" x1="635.53" y1="93.72" x2="635.53" y2="102.98"/><line class="cls-2" x1="606.24" y1="34.31" x2="606.24" y2="43.57"/><line class="cls-2" x1="606.24" y1="54.11" x2="606.24" y2="63.37"/><line class="cls-2" x1="606.24" y1="73.92" x2="606.24" y2="83.18"/><line class="cls-2" x1="606.24" y1="93.72" x2="606.24" y2="102.98"/><path class="cls-1" d="M443,627.61a1.38,1.38,0,0,1-.77-1.4,20,20,0,0,1,.41-5.23,10.59,10.59,0,0,1,5.25-6.5c.32-.17.46-.14.62.19.77,1.58,1.56,3.14,2.35,4.71.48,1,1.14,1.09,1.95.41l3.36-2.8a.75.75,0,0,1,.48-.27v10.9Z"/><path class="cls-1" d="M457.88,592.1c1.74.67,3.54,1.17,5.31,1.75s3.76,1.21,5.64,1.81c1.14.36,1.35,1.12.58,2.05-.65.78-1.32,1.54-1.94,2.35a.79.79,0,0,1-1,.33,29.91,29.91,0,0,0-17.79,0,.7.7,0,0,1-.89-.27c-.67-.86-1.39-1.68-2.08-2.52s-.49-1.63.59-2l10.44-3.36c.17,0,.37-.06.49-.22C457.43,592.1,457.65,592.1,457.88,592.1Z"/><path class="cls-1" d="M458.76,627.61V616.8c.24-.1.32.1.43.19l3.2,2.74c.88.75,1.53.61,2.05-.44.74-1.49,1.5-3,2.21-4.47.21-.44.39-.45.77-.22a10.48,10.48,0,0,1,5.38,8.77c.06,1,0,2,0,3a1.26,1.26,0,0,1-.76,1.18Zm6.39-3.18h0c.54,0,1.07,0,1.61,0a1.05,1.05,0,0,0,1.07-1,1,1,0,0,0-1.05-1.06q-1.63,0-3.27,0a1,1,0,1,0,0,2.09C464,624.45,464.6,624.43,465.15,624.43Z"/><path class="cls-1" d="M450.34,613.58a9.35,9.35,0,0,1,1.6-.3c0-.23-.22-.33-.34-.46a8.15,8.15,0,0,1-2.25-6.17c0-.25,0-.51.38-.3A17.09,17.09,0,0,0,458,608a16.56,16.56,0,0,0,7.36-1.57c.39-.2.42,0,.44.29a8.2,8.2,0,0,1-2.25,6.12l-.41.44c.54.1,1,.19,1.51.26.25,0,.31.12.19.36-.55,1.09-1.1,2.18-1.63,3.27-.14.3-.26.21-.45.05-.77-.67-1.55-1.32-2.31-2a.59.59,0,0,0-.64-.15,7.92,7.92,0,0,1-4.21.05.65.65,0,0,0-.65.17l-2.29,1.93c-.2.17-.32.27-.48-.06C451.54,616,451,614.8,450.34,613.58Z"/><path class="cls-1" d="M456.61,601.19a33.62,33.62,0,0,1,9.34,1.25c.38.1.36.26.19.53a4.8,4.8,0,0,1-2.59,1.9,18.34,18.34,0,0,1-9.29.71,11.15,11.15,0,0,1-3.63-1.15A4.21,4.21,0,0,1,449,603c-.18-.28-.17-.42.21-.53A29.78,29.78,0,0,1,456.61,601.19Z"/><rect class="cls-1" x="786.15" y="288.7" width="229.61" height="138.22"/><path class="cls-3" d="M823.84,307.63c.45-.19.93-.4,1.42-.65s1-.51,1.44-.8.92-.59,1.35-.91a8.9,8.9,0,0,0,1.16-1h2.44v16.26h-3.5v-11.7a11.05,11.05,0,0,1-1.57.86c-.58.26-1.14.48-1.69.67Z"/><path class="cls-3" d="M840.87,320.86a12.8,12.8,0,0,1-1.34-.08c-.47,0-.92-.13-1.36-.22s-.84-.2-1.2-.3a4.76,4.76,0,0,1-.84-.31l.68-2.91c.41.17.93.36,1.56.55a8,8,0,0,0,2.36.29,3.72,3.72,0,0,0,2.37-.61,2.2,2.2,0,0,0,.48-2.71,2.07,2.07,0,0,0-.74-.7,3.23,3.23,0,0,0-1.11-.38,8.54,8.54,0,0,0-1.37-.11H839v-2.81h1.55a5.47,5.47,0,0,0,1-.09,2.6,2.6,0,0,0,.86-.32,1.67,1.67,0,0,0,.6-.61,1.91,1.91,0,0,0,.22-1,1.47,1.47,0,0,0-.19-.77,1.67,1.67,0,0,0-.48-.54,2.13,2.13,0,0,0-.68-.32,3,3,0,0,0-.79-.11,5.44,5.44,0,0,0-1.87.31,7.51,7.51,0,0,0-1.56.75l-1.24-2.56a9.62,9.62,0,0,1,.88-.49,9.5,9.5,0,0,1,1.11-.47,9.87,9.87,0,0,1,1.3-.35,7.64,7.64,0,0,1,1.47-.14,7.88,7.88,0,0,1,2.47.34,4.68,4.68,0,0,1,1.72,1,3.92,3.92,0,0,1,1,1.45,4.86,4.86,0,0,1,.33,1.81,3.74,3.74,0,0,1-2,3.23,4.22,4.22,0,0,1,2,1.54,4.28,4.28,0,0,1,.69,2.45,5.66,5.66,0,0,1-.38,2.08,4.2,4.2,0,0,1-1.17,1.64,5.68,5.68,0,0,1-2,1.08A9.72,9.72,0,0,1,840.87,320.86Z"/><path class="cls-3" d="M861.37,312.34a10.77,10.77,0,0,1-1.56,6.3,5.32,5.32,0,0,1-8.6,0,10.77,10.77,0,0,1-1.56-6.3,14.52,14.52,0,0,1,.41-3.61,8,8,0,0,1,1.18-2.65,5.15,5.15,0,0,1,1.85-1.64,5.08,5.08,0,0,1,2.42-.56,5,5,0,0,1,4.3,2.19A10.71,10.71,0,0,1,861.37,312.34Zm-3.57,0a18.82,18.82,0,0,0-.12-2.22,7.45,7.45,0,0,0-.38-1.72,2.8,2.8,0,0,0-.7-1.13,1.57,1.57,0,0,0-1.1-.4,1.53,1.53,0,0,0-1.09.4,2.84,2.84,0,0,0-.7,1.13,7.54,7.54,0,0,0-.39,1.72,18.58,18.58,0,0,0-.12,2.22,19,19,0,0,0,.12,2.23,7.73,7.73,0,0,0,.39,1.74,2.91,2.91,0,0,0,.7,1.13,1.53,1.53,0,0,0,1.09.4,1.57,1.57,0,0,0,1.1-.4,2.63,2.63,0,0,0,.7-1.13,8.08,8.08,0,0,0,.38-1.74A19,19,0,0,0,857.8,312.34Z"/><path class="cls-3" d="M842.76,375.32c-6.51,0-13,0-19.54,0-2.58,0-3.88-1.36-3.88-3.95q0-12.09,0-24.18a3.27,3.27,0,0,1,2.89-3.67c.54-.12.44-.47.4-.76-.09-.75.17-1,.94-1,2.09.05,4.19.05,6.28,0,.7,0,1,.15.93.9-.06,1,0,1,1,1a.75.75,0,0,0,.77-.52c.42-.9.84-1.8,1.3-2.68a4,4,0,0,1,3.71-2.34c3.58,0,7.17,0,10.75,0a4,4,0,0,1,3.7,2.37c.46.88.89,1.78,1.3,2.68a.72.72,0,0,0,.78.48c1.33,0,2.67,0,4,0,.41,0,.68,0,.68-.56a.92.92,0,0,1,.93-.9,15.61,15.61,0,0,1,2.9,0,.84.84,0,0,1,.83.71c0,.51.31.61.7.74a3.32,3.32,0,0,1,2.32,3.51v24.25c0,2.48-1.34,3.89-3.79,3.89C856,375.33,849.37,375.32,842.76,375.32Zm.08-28.87a12.89,12.89,0,1,0,12.89,12.95A12.9,12.9,0,0,0,842.84,346.45Zm0-3.15h0c1.65,0,3.29,0,4.94,0,.88,0,1-.36,1-1.07,0-1.15,0-1.15-.93-1.15H838.1c-1.11,0-1.11,0-1.1,1.13,0,.1,0,.21,0,.31-.06.58.19.78.77.77C839.46,343.28,841.16,343.3,842.85,343.3Zm-16.17,5.32a2.2,2.2,0,1,0-2.16,2.24A2.22,2.22,0,0,0,826.68,348.62Zm.78,1.9a1,1,0,0,0-1.1,1.07,1,1,0,0,0,1,1.08,1.08,1.08,0,1,0,.1-2.15Z"/><path class="cls-3" d="M842.89,369.64a10.31,10.31,0,1,1,10.28-10.31A10.33,10.33,0,0,1,842.89,369.64Zm5.48-10.25a5.51,5.51,0,1,0-5.52,5.47A5.5,5.5,0,0,0,848.37,359.39Z"/><path class="cls-3" d="M940,308c.45-.19.93-.4,1.42-.65s1-.51,1.44-.8.92-.59,1.35-.91a8.9,8.9,0,0,0,1.16-1h2.44v16.26h-3.5v-11.7a11.05,11.05,0,0,1-1.57.86c-.58.26-1.14.48-1.69.67Z"/><path class="cls-3" d="M963.29,308.87a4.36,4.36,0,0,1-.35,1.71,7.6,7.6,0,0,1-.91,1.58,13.36,13.36,0,0,1-1.27,1.47c-.47.47-.93.92-1.38,1.34l-.76.74c-.27.27-.54.55-.79.83s-.47.54-.67.79a1.67,1.67,0,0,0-.36.6h7v2.93H953a3.86,3.86,0,0,1-.05-.66v-.56a5.68,5.68,0,0,1,.36-2.06,7.81,7.81,0,0,1,1-1.75,10.5,10.5,0,0,1,1.33-1.51l1.47-1.41,1.06-1a10.53,10.53,0,0,0,.87-.94,4.31,4.31,0,0,0,.59-.92,2.18,2.18,0,0,0,.21-.93,1.66,1.66,0,0,0-.59-1.45,2.44,2.44,0,0,0-1.45-.42,3.48,3.48,0,0,0-1.18.2,6.24,6.24,0,0,0-1,.47,6.75,6.75,0,0,0-.79.54c-.22.18-.38.32-.49.43l-1.74-2.44a8.85,8.85,0,0,1,2.4-1.58,7.11,7.11,0,0,1,2.94-.62,8.14,8.14,0,0,1,2.46.33,4.62,4.62,0,0,1,1.7.93,3.53,3.53,0,0,1,1,1.45A5.32,5.32,0,0,1,963.29,308.87Z"/><path class="cls-3" d="M973.47,314.41a4.09,4.09,0,0,1-1.09.34,6.14,6.14,0,0,1-1,.11,8.24,8.24,0,0,1-2.6-.36,4.65,4.65,0,0,1-1.77-1,4.1,4.1,0,0,1-1-1.61,6.25,6.25,0,0,1,0-4,5.11,5.11,0,0,1,1-1.79,5.52,5.52,0,0,1,1.72-1.34,6.43,6.43,0,0,1,7.08,1.33,8.25,8.25,0,0,1,1.54,5.36,12.57,12.57,0,0,1-.6,4.06,7.35,7.35,0,0,1-1.85,3,8.12,8.12,0,0,1-3.2,1.82,16,16,0,0,1-4.62.65c0-.5,0-1-.07-1.45s-.06-1-.09-1.45a17.27,17.27,0,0,0,2.42-.2,6.52,6.52,0,0,0,1.9-.59,4.41,4.41,0,0,0,1.4-1.09A5.8,5.8,0,0,0,973.47,314.41Zm-1.71-2.28a6.54,6.54,0,0,0,1.13-.11,2.5,2.5,0,0,0,.87-.29v-.21a1.28,1.28,0,0,1,0-.19,1,1,0,0,0,0-.16,12.72,12.72,0,0,0-.14-1.58,4.34,4.34,0,0,0-.4-1.29,2.23,2.23,0,0,0-.76-.87,2.29,2.29,0,0,0-2.17-.09,2,2,0,0,0-.68.61,3,3,0,0,0-.39.82,3,3,0,0,0-.13.87,2.57,2.57,0,0,0,.62,1.88A2.8,2.8,0,0,0,971.76,312.13Z"/><path class="cls-3" d="M995.08,370.16a7.91,7.91,0,1,1-7.78-7.84A7.74,7.74,0,0,1,995.08,370.16Zm-8,4a4.08,4.08,0,1,0-4-4.07A4,4,0,0,0,987.13,374.18Z"/><path class="cls-3" d="M953,378c-.87-.11-1.73-.24-2.6-.32-.64-.06-.93-.29-1-1-.19-2.15,0-2.31,2.1-2a6.45,6.45,0,0,0,2.93-.1c.66-.21,1.25-.5,1.31-1.28s-.45-1.09-1-1.34-1.43-.55-2.13-.84c-2.47-1-3.42-2.43-3.18-4.74.21-2.05,1.62-3.39,4-3.91a10.81,10.81,0,0,1,4.24.16c1.6.29.75,1.58.83,2.41.11,1.14-.76.52-1.26.51-.82,0-1.64-.11-2.46,0s-1.45.31-1.54,1.19.56,1.15,1.17,1.4,1.46.48,2.17.76a4.22,4.22,0,0,1,3,4.24,4.37,4.37,0,0,1-3.18,4.3A10.47,10.47,0,0,1,953,378Z"/><path class="cls-3" d="M974.81,373.73c.07.1.11.14.12.19.34,3.6-.35,4.32-4,3.94-3.15-.33-5.7-1.68-6.85-4.8a7.55,7.55,0,0,1,1.5-8.25c2.31-2.46,5.27-2.89,8.47-2.2.62.13.95.42.92,1.11,0,.87,0,1.74,0,2.76-2.6-.66-5.17-1.17-6.89,1.53a3.93,3.93,0,0,0,.29,4.61C970.18,374.88,972.52,374.37,974.81,373.73Z"/><path class="cls-3" d="M934.81,375.59c.47,1.55-.38,2-1.81,2.23a8.45,8.45,0,0,1-8.43-3.55,8.13,8.13,0,0,1,.49-8.95,8.49,8.49,0,0,1,8.89-2.68c.42.13.89.21.89.79a6.92,6.92,0,0,1-.14,2.91c-.18.39-.78-.07-1.19-.17-2.73-.64-5,.28-5.81,2.37a4.2,4.2,0,0,0,4.38,5.75,3.53,3.53,0,0,0,1.13-.19C934.79,373.41,935.1,374.13,934.81,375.59Z"/><path class="cls-3" d="M936.54,343.73c0-3.17,0-6.34,0-9.52,0-1.24.34-2.22,1.78-2.22s1.8,1,1.8,2.22q0,9.53,0,19c0,1.26-.29,2.38-1.82,2.4s-1.75-1.18-1.75-2.4v-9.52Z"/><path class="cls-3" d="M982,344c0,3.12,0,6.23,0,9.35,0,1.21-.22,2.27-1.68,2.32s-1.89-1-1.89-2.31q0-9.6,0-19.19c0-1.29.48-2.16,1.88-2.14s1.69,1,1.68,2.13q0,4.92,0,9.84Z"/><path class="cls-3" d="M944,370.14c0,2-.1,3.95,0,5.91.1,1.59-.75,1.6-1.91,1.59s-1.84,0-1.79-1.5q.18-6,0-12c0-1.58.71-1.56,1.86-1.59s1.9.2,1.8,1.67c-.12,2,0,3.94,0,5.91Z"/><path class="cls-3" d="M950.64,345.65c0,1.31,0,2.62,0,3.93s-.4,2.26-1.77,2.31-1.87-.95-1.88-2.18c0-2.84,0-5.67,0-8.51,0-1.16.51-2.07,1.83-2.05s1.78.92,1.81,2.09c0,1.47,0,2.95,0,4.42C950.63,345.65,950.63,345.65,950.64,345.65Z"/><path class="cls-3" d="M992.47,345.44c0,1.53,0,3.06,0,4.59a1.77,1.77,0,1,1-3.54.05c0-3.06,0-6.12,0-9.18a1.63,1.63,0,0,1,1.75-1.76,1.65,1.65,0,0,1,1.79,1.87c0,1.47,0,2.95,0,4.42Z"/><path class="cls-3" d="M926.07,345.35c0-1.36,0-2.73,0-4.09,0-1.21.43-2.08,1.73-2.11s1.83.79,1.83,2c0,2.89,0,5.78,0,8.67,0,1.21-.56,2.06-1.82,2s-1.75-.91-1.74-2.12C926.09,348.3,926.08,346.82,926.07,345.35Z"/><path class="cls-3" d="M967.94,345.44c0-1.36,0-2.73,0-4.09s.46-2.19,1.84-2.2,1.75.89,1.75,2.08v8.34c0,1.21-.35,2.28-1.73,2.3s-1.87-1.07-1.87-2.36v-4.09S967.94,345.44,967.94,345.44Z"/><path class="cls-3" d="M915.6,348a16.65,16.65,0,0,1,0-2.12,1.61,1.61,0,0,1,1.8-1.51,1.54,1.54,0,0,1,1.67,1.46,34.85,34.85,0,0,1,0,4.57,1.58,1.58,0,0,1-1.69,1.46,1.62,1.62,0,0,1-1.76-1.57,21.65,21.65,0,0,1,0-2.28Z"/><path class="cls-3" d="M961,348.19c0,.71.06,1.43,0,2.13a1.73,1.73,0,0,1-3.44,0,28.36,28.36,0,0,1,0-4.42,1.61,1.61,0,0,1,1.81-1.53,1.67,1.67,0,0,1,1.71,1.65,18.9,18.9,0,0,1,0,2.13Z"/><path class="cls-3" d="M999.43,348.07c0-.71-.06-1.42,0-2.12a1.76,1.76,0,0,1,3.47-.1,31.54,31.54,0,0,1,0,4.56,1.56,1.56,0,0,1-1.67,1.48,1.63,1.63,0,0,1-1.79-1.53A19.44,19.44,0,0,1,999.43,348.07Z"/><line class="cls-8" x1="898.36" y1="428.1" x2="898.36" y2="289.24"/><line class="cls-8" x1="1" y1="230.12" x2="223.13" y2="230.12"/><line class="cls-8" x1="1" y1="168.94" x2="222.42" y2="168.94"/><line class="cls-8" x1="1" y1="88.76" x2="222.42" y2="88.76"/></g></g></svg>